# Blender v2.93.5 OBJ File: ''
# www.blender.org
mtllib fence_pillar2.mtl
o STPillar2_Cubo.016
v 0.602321 0.015587 0.089490
v 0.592712 0.947934 0.087719
v 0.598407 0.013772 -0.081135
v 0.590868 0.950711 -0.091467
v 0.770636 0.015854 0.087730
v 0.772990 0.949484 0.089407
v 0.766099 0.014537 -0.090411
v 0.773753 0.951086 -0.087987
v 0.598505 0.010374 -0.003978
v 0.583297 0.849759 0.097919
v 0.583051 0.964731 0.000099
v 0.612950 0.121334 -0.081164
v 0.684753 0.011323 -0.084595
v 0.684421 0.960449 -0.096398
v 0.769230 0.121425 -0.081289
v 0.771066 0.010007 -0.003842
v 0.783002 0.964543 -0.000283
v 0.771786 0.121388 0.084020
v 0.683468 0.009665 0.091211
v 0.684518 0.961659 0.097599
v 0.600716 0.363854 0.088839
v 0.585648 0.606615 -0.093304
v 0.773435 0.606827 -0.093602
v 0.772717 0.606968 0.091212
v 0.586748 0.606695 0.094251
v 0.581830 0.849736 -0.098538
v 0.776622 0.849955 -0.096045
v 0.780068 0.849577 0.100943
v 0.602694 0.363938 -0.086450
v 0.776134 0.364051 -0.091052
v 0.776401 0.364143 0.091169
v 0.609185 0.121507 0.082990
v 0.689064 0.121368 0.092863
v 0.777277 0.121427 0.000205
v 0.689778 0.121334 -0.091116
v 0.605627 0.122130 -0.000157
v 0.579965 0.607041 0.000303
v 0.680701 0.606850 -0.101710
v 0.782278 0.607139 0.000218
v 0.680692 0.606724 0.105463
v 0.593136 0.363989 0.000068
v 0.689025 0.363979 -0.099830
v 0.783754 0.364500 0.000384
v 0.689104 0.364025 0.095022
v 0.684920 0.980008 -0.000110
v 0.680495 0.849714 0.106157
v 0.785902 0.849790 0.000029
v 0.680925 0.849699 -0.109844
v 0.573857 0.849670 -0.000448
vt 0.690440 0.838718
vt 0.694531 0.785438
vt 0.746326 0.791353
vt 0.746326 0.842835
vt 0.636584 0.834673
vt 0.644595 0.785936
vt 0.686706 0.892663
vt 0.637602 0.885312
vt 0.200619 0.780936
vt 0.202995 0.732577
vt 0.335901 0.733216
vt 0.333852 0.784368
vt 0.202881 0.684113
vt 0.202767 0.634553
vt 0.335297 0.633392
vt 0.335531 0.683397
vt 0.463157 0.682771
vt 0.461268 0.631769
vt 0.514880 0.631343
vt 0.525996 0.681207
vt 0.063681 0.776892
vt 0.063099 0.731987
vt 0.329840 0.482002
vt 0.331846 0.532214
vt 0.198851 0.537562
vt 0.196590 0.487929
vt 0.064234 0.684374
vt 0.002579 0.775627
vt 0.001314 0.728936
vt 0.331881 0.835454
vt 0.198375 0.829568
vt 0.063558 0.821534
vt 0.327559 0.430140
vt 0.461582 0.424206
vt 0.461785 0.476947
vt 0.200611 0.585556
vt 0.333385 0.582957
vt 0.464605 0.786774
vt 0.465642 0.839436
vt 0.000382 0.493388
vt 0.062022 0.494316
vt 0.062993 0.541487
vt 0.004473 0.543458
vt 0.005129 0.819995
vt 0.001193 0.590829
vt 0.063443 0.588740
vt 0.000221 0.686322
vt 0.462918 0.733981
vt 0.063042 0.635604
vt 0.462067 0.581358
vt 0.001471 0.445698
vt 0.060334 0.449074
vt 0.460701 0.530038
vt 0.515004 0.528937
vt 0.523008 0.578896
vt 0.524979 0.478395
vt 0.525996 0.786185
vt 0.522559 0.836705
vt 0.193990 0.437446
vt 0.518209 0.428896
vt 0.738372 0.891894
vt 0.518193 0.733447
vt 0.002339 0.634794
vn 0.0016 1.0000 0.0032
vn 0.0133 0.6846 -0.7288
vn -0.5860 0.5416 -0.6027
vn -0.7126 0.7015 0.0094
vn 0.7329 0.6804 -0.0058
vn 0.6098 0.5256 -0.5933
vn -0.0068 0.6826 0.7308
vn 0.6014 0.5274 0.6001
vn -0.0131 -0.0256 -0.9996
vn -0.7171 -0.0532 -0.6949
vn -0.7222 -0.0442 -0.6902
vn -0.0040 -0.0206 -0.9998
vn -0.9985 -0.0530 -0.0104
vn -0.7117 -0.0510 0.7006
vn -0.7160 -0.0399 0.6970
vn -0.9992 -0.0403 0.0019
vn -0.9994 0.0343 0.0083
vn -0.7072 0.0489 0.7053
vn -0.5946 0.5305 0.6042
vn -0.0212 -0.0205 -0.9996
vn -0.7050 -0.0020 -0.7092
vn 1.0000 -0.0050 -0.0028
vn 0.7118 -0.0181 0.7022
vn 0.7092 -0.0169 0.7048
vn 1.0000 -0.0086 -0.0031
vn -0.9998 0.0175 -0.0096
vn -0.0307 -0.0064 -0.9995
vn -0.7471 0.0548 -0.6625
vn 0.7091 -0.0116 -0.7050
vn 0.7125 -0.0216 -0.7013
vn 0.7149 -0.0321 -0.6985
vn 0.7097 0.0298 -0.7038
vn 0.9999 0.0107 -0.0076
vn -0.0027 -0.0234 0.9997
vn 0.0003 -0.0223 0.9998
vn 0.0113 0.0377 -0.9992
vn 0.9991 -0.0360 -0.0233
vn 0.9994 -0.0313 -0.0144
vn 0.7196 -0.0237 0.6940
vn 0.7094 -0.0175 0.7046
vn 0.6674 -0.0171 -0.7445
vn -0.0017 0.0171 0.9999
vn -0.0037 -0.0013 1.0000
vn -0.9966 0.0823 -0.0031
vn -0.7131 0.0439 -0.6997
vn -0.7168 0.0102 0.6972
vn -0.0073 0.0396 0.9992
vn 0.7039 0.0315 0.7096
vn -0.7136 0.0608 0.6979
usemtl STFence_MAT
s 1
f 45/1/1 14/2/2 4/3/3 11/4/4
f 45/1/1 17/5/5 8/6/6 14/2/2
f 45/1/1 20/7/7 6/8/8 17/5/5
f 42/9/9 29/10/10 22/11/11 38/12/12
f 41/13/13 21/14/14 25/15/15 37/16/16
f 49/17/17 10/18/18 2/19/19 11/20/4
f 29/10/10 42/9/9 35/21/20 12/22/21
f 39/23/22 24/24/23 31/25/24 43/26/25
f 29/10/10 12/22/21 36/27/26 41/13/13
f 13/28/27 3/29/28 12/22/21 35/21/20
f 23/30/29 30/31/30 42/9/9 38/12/12
f 42/9/9 30/31/30 15/32/31 35/21/20
f 39/23/22 23/33/29 27/34/32 47/35/33
f 25/15/15 21/14/14 44/36/34 40/37/35
f 25/15/15 10/18/18 49/17/17 37/16/16
f 23/30/29 38/12/12 48/38/36 27/39/32
f 16/40/37 34/41/38 18/42/39 5/43/40
f 13/28/27 35/21/20 15/32/31 7/44/41
f 19/45/42 5/43/40 18/42/39 33/46/43
f 9/47/44 36/27/26 12/22/21 3/29/28
f 26/48/45 48/38/36 38/12/12 22/11/11
f 18/42/39 31/25/24 44/36/34 33/46/43
f 41/13/13 36/27/26 32/49/46 21/14/14
f 25/15/15 40/37/35 46/50/47 10/18/18
f 37/16/16 49/17/17 26/48/45 22/11/11
f 16/40/37 7/51/41 15/52/31 34/41/38
f 37/16/16 22/11/11 29/10/10 41/13/13
f 47/35/33 28/53/48 24/24/23 39/23/22
f 6/54/8 20/55/7 46/50/47 28/53/48
f 17/56/5 6/54/8 28/53/48 47/35/33
f 40/37/35 24/24/23 28/53/48 46/50/47
f 44/36/34 31/25/24 24/24/23 40/37/35
f 14/57/2 8/58/6 27/39/32 48/38/36
f 15/52/31 30/59/30 43/26/25 34/41/38
f 8/60/6 17/56/5 47/35/33 27/34/32
f 18/42/39 34/41/38 43/26/25 31/25/24
f 45/1/1 11/4/4 2/61/19 20/7/7
f 32/49/46 33/46/43 44/36/34 21/14/14
f 4/62/3 14/57/2 48/38/36 26/48/45
f 2/19/19 10/18/18 46/50/47 20/55/7
f 33/46/43 32/49/46 1/63/49 19/45/42
f 11/20/4 4/62/3 26/48/45 49/17/17
f 36/27/26 9/47/44 1/63/49 32/49/46
f 39/23/22 43/26/25 30/59/30 23/33/29
