# Blender v2.93.5 OBJ File: ''
# www.blender.org
mtllib fence_pillar1.mtl
o STPillar1_Cubo.015
v -0.582471 0.017946 0.079812
v -0.570843 0.951280 0.091375
v -0.588731 0.015127 -0.082104
v -0.567850 0.952377 -0.091334
v -0.747835 0.015495 0.080342
v -0.752417 0.950374 0.088576
v -0.748502 0.015382 -0.080937
v -0.754194 0.954075 -0.093767
v -0.569267 0.012865 -0.005710
v -0.560473 0.849788 0.099575
v -0.561187 0.964716 0.000080
v -0.596466 0.121498 -0.080382
v -0.667901 0.010583 -0.088602
v -0.662535 0.962144 -0.097795
v -0.756209 0.121361 -0.082905
v -0.764808 0.010029 -0.005397
v -0.761321 0.964620 -0.000246
v -0.757378 0.121335 0.083984
v -0.668514 0.010025 0.090370
v -0.662729 0.963147 0.097990
v -0.593155 0.121314 0.082746
v -0.584278 0.363789 0.089506
v -0.564878 0.606657 0.094250
v -0.560236 0.849797 -0.098637
v -0.564844 0.606779 -0.092017
v -0.585902 0.363674 -0.089986
v -0.755536 0.849854 -0.096797
v -0.752244 0.606817 -0.093799
v -0.755263 0.364039 -0.088809
v -0.759282 0.849588 0.100446
v -0.751967 0.606878 0.091280
v -0.758314 0.364039 0.090131
v -0.558098 0.606998 0.000285
v -0.575328 0.363708 -0.000043
v -0.586991 0.122090 -0.000249
v -0.658840 0.606851 -0.101704
v -0.673158 0.363991 -0.099879
v -0.675636 0.121244 -0.092768
v -0.760426 0.607149 0.000193
v -0.762682 0.364536 0.000412
v -0.760521 0.121533 0.000308
v -0.658838 0.606718 0.105462
v -0.671228 0.364036 0.094630
v -0.673387 0.121284 0.092668
v -0.663036 0.980358 -0.000132
v -0.658676 0.849693 0.106152
v -0.764026 0.849775 0.000035
v -0.658996 0.849650 -0.109844
v -0.551979 0.849660 -0.000467
vt 0.329792 0.007002
vt 0.464308 0.000221
vt 0.463804 0.054247
vt 0.332200 0.057987
vt 0.636142 0.844316
vt 0.582157 0.841433
vt 0.585326 0.785438
vt 0.636142 0.791542
vt 0.631277 0.895037
vt 0.579067 0.895513
vt 0.529550 0.888501
vt 0.528047 0.838135
vt 0.527605 0.057035
vt 0.518012 0.108798
vt 0.462364 0.107661
vt 0.333362 0.211666
vt 0.332785 0.262137
vt 0.199451 0.260243
vt 0.199962 0.211187
vt 0.334257 0.108941
vt 0.063918 0.120369
vt 0.200942 0.115618
vt 0.200555 0.163612
vt 0.066091 0.166088
vt 0.463560 0.159106
vt 0.333719 0.159979
vt 0.008209 0.302825
vt 0.066502 0.303193
vt 0.063886 0.347440
vt 0.002572 0.347608
vt 0.198391 0.309337
vt 0.331929 0.314259
vt 0.330759 0.366152
vt 0.196957 0.354710
vt 0.464358 0.368980
vt 0.464126 0.423764
vt 0.329340 0.418557
vt 0.195116 0.015619
vt 0.198232 0.065888
vt 0.462823 0.211290
vt 0.464517 0.263827
vt 0.061312 0.391616
vt 0.002085 0.391785
vt 0.068182 0.212546
vt 0.194959 0.403111
vt 0.060663 0.027772
vt 0.062543 0.072930
vt 0.066897 0.257948
vt 0.005505 0.259944
vt 0.001364 0.028057
vt 0.000221 0.071887
vt 0.010011 0.211571
vt 0.004386 0.167442
vt 0.005223 0.119597
vt 0.464569 0.315999
vt 0.525644 0.161115
vt 0.517798 0.212112
vt 0.527605 0.262360
vt 0.522160 0.315269
vt 0.526940 0.366736
vt 0.521681 0.419873
vt 0.534008 0.787097
vt 0.522210 0.005175
vn 0.7218 -0.0484 -0.6904
vn 0.7133 0.0379 -0.6998
vn 0.9995 0.0319 0.0041
vn 0.9987 -0.0500 -0.0022
vn 0.0008 0.6876 -0.7261
vn -0.0019 1.0000 0.0056
vn 0.7159 0.6982 0.0054
vn 0.5936 0.5428 -0.5941
vn -0.6046 0.5235 -0.6003
vn -0.7346 0.6785 0.0025
vn -0.6090 0.5283 0.5916
vn -0.0073 0.6872 0.7264
vn 0.5817 0.5400 0.6083
vn 0.7061 0.0438 0.7067
vn -0.7165 -0.0160 0.6974
vn -1.0000 -0.0028 -0.0081
vn -0.9999 0.0044 -0.0096
vn -0.7196 -0.0086 0.6944
vn 0.7156 -0.0484 0.6968
vn 0.6951 0.0141 0.7188
vn 0.7015 -0.0578 0.7103
vn -0.0015 -0.0237 0.9997
vn 0.0033 -0.0219 0.9998
vn -0.0044 0.0350 0.9994
vn -0.0043 -0.0235 0.9997
vn -0.6900 -0.0316 -0.7232
vn -0.7219 -0.0248 -0.6916
vn 0.0007 -0.0261 -0.9997
vn 0.0100 -0.0187 -0.9998
vn -0.7220 -0.0094 -0.6918
vn -0.7117 -0.0126 -0.7024
vn 0.0015 -0.0203 -0.9998
vn -0.0004 -0.0224 -0.9997
vn 0.0010 0.0270 -0.9996
vn 0.7031 -0.0569 -0.7088
vn 0.9980 -0.0617 -0.0098
vn -0.7090 0.0309 0.7046
vn -1.0000 0.0074 -0.0064
vn 0.6922 0.0099 -0.7217
vn 0.6882 0.0748 -0.7216
vn -0.7194 -0.0281 0.6940
vn 0.9989 0.0397 -0.0230
vn -0.9999 -0.0134 -0.0068
vn -0.9997 -0.0212 -0.0091
vn 0.9913 0.1255 -0.0404
vn -0.6927 -0.0408 0.7200
vn 0.0066 -0.0250 0.9997
vn 0.7269 0.0748 0.6827
vn -0.7115 0.0161 -0.7025
usemtl STFence_MAT
s 1
f 25/1/1 24/2/2 49/3/3 33/4/4
f 14/5/5 45/6/6 11/7/7 4/8/8
f 45/6/6 14/5/5 8/9/9 17/10/10
f 45/6/6 17/10/10 6/11/11 20/12/12
f 49/3/3 11/13/7 2/14/13 10/15/14
f 31/16/15 39/17/16 40/18/17 32/19/18
f 10/15/14 23/20/19 33/4/4 49/3/3
f 21/21/20 22/22/21 43/23/22 44/24/23
f 10/15/14 46/25/24 42/26/25 23/20/19
f 7/27/26 15/28/27 38/29/28 13/30/29
f 29/31/30 28/32/31 36/33/32 37/34/33
f 29/31/30 40/18/17 39/17/16 28/32/31
f 48/35/34 24/36/2 25/37/1 36/33/32
f 26/38/35 25/1/1 33/4/4 34/39/36
f 31/16/15 30/40/37 47/41/38 39/17/16
f 38/29/28 12/42/39 3/43/40 13/30/29
f 18/44/41 44/24/23 43/23/22 32/19/18
f 26/45/35 37/34/33 36/33/32 25/37/1
f 12/46/39 26/38/35 34/39/36 35/47/42
f 41/48/43 15/28/27 7/27/26 16/49/44
f 3/50/40 12/46/39 35/47/42 9/51/45
f 15/28/27 29/31/30 37/34/33 38/29/28
f 15/28/27 41/48/43 40/18/17 29/31/30
f 44/24/23 18/44/41 5/52/46 19/53/47
f 35/47/42 21/21/20 1/54/48 9/51/45
f 23/20/19 22/22/21 34/39/36 33/4/4
f 5/52/46 18/44/41 41/48/43 16/49/44
f 22/22/21 21/21/20 35/47/42 34/39/36
f 28/32/31 27/55/49 48/35/34 36/33/32
f 31/16/15 42/26/25 46/25/24 30/40/37
f 21/21/20 44/24/23 19/53/47 1/54/48
f 30/40/37 46/25/24 20/56/12 6/57/11
f 17/58/10 8/59/9 27/55/49 47/41/38
f 22/22/21 23/20/19 42/26/25 43/23/22
f 14/60/5 4/61/8 24/36/2 48/35/34
f 28/32/31 39/17/16 47/41/38 27/55/49
f 18/44/41 32/19/18 40/18/17 41/48/43
f 10/15/14 2/14/13 20/56/12 46/25/24
f 32/19/18 43/23/22 42/26/25 31/16/15
f 20/12/12 2/62/13 11/7/7 45/6/6
f 6/57/11 17/58/10 47/41/38 30/40/37
f 12/42/39 38/29/28 37/34/33 26/45/35
f 8/59/9 14/60/5 48/35/34 27/55/49
f 4/63/8 11/13/7 49/3/3 24/2/2
