# Blender v2.93.5 OBJ File: ''
# www.blender.org
mtllib fence_plank1.mtl
o STPlank1_Plano.016
v 0.709827 0.277057 0.104625
v 0.700360 0.288411 0.160783
v 0.703828 0.451650 0.104462
v 0.701952 0.454024 0.162173
v -0.709810 0.284976 0.108295
v -0.713647 0.276182 0.169419
v -0.714583 0.459497 0.104586
v -0.704243 0.446211 0.162409
v 0.716717 0.368398 0.100154
v 0.711999 0.368641 0.166093
v -0.719210 0.367813 0.100418
v -0.716995 0.367826 0.170719
v -0.633364 0.268722 0.100173
v -0.633169 0.461736 0.100963
v -0.633358 0.269205 0.173146
v -0.633138 0.459539 0.173810
v -0.633238 0.365367 0.183042
v -0.633146 0.365195 0.093630
v -0.272618 0.263591 0.100435
v -0.272848 0.445206 0.104031
v -0.272609 0.263474 0.171406
v -0.272655 0.444664 0.161457
v -0.272584 0.359583 0.180850
v -0.272603 0.359440 0.098205
v -0.092474 0.271932 0.173105
v -0.092902 0.454300 0.166095
v -0.092377 0.269169 0.100425
v -0.092744 0.452663 0.101668
v -0.092502 0.365197 0.096346
v -0.092507 0.365284 0.178612
v 0.267918 0.281988 0.101054
v 0.267800 0.474186 0.100331
v 0.267940 0.282497 0.173557
v 0.267738 0.474193 0.168222
v 0.267929 0.377570 0.181849
v 0.267758 0.377657 0.092033
v 0.448023 0.286366 0.172485
v 0.448066 0.472947 0.170759
v 0.448009 0.281439 0.100017
v 0.448097 0.474521 0.099346
v 0.448017 0.377709 0.093345
v 0.448061 0.377620 0.180864
v 0.628384 0.274682 0.101069
v 0.628686 0.467601 0.100431
v 0.628733 0.280863 0.170570
v 0.628762 0.467442 0.172349
v 0.628673 0.371235 0.181746
v 0.628395 0.371268 0.092224
vt 0.666795 0.246857
vt 0.633885 0.246828
vt 0.632898 0.049104
vt 0.670049 0.051425
vt 0.746768 0.830949
vt 0.782587 0.832124
vt 0.778565 0.875985
vt 0.747432 0.880663
vt 0.751257 0.785438
vt 0.782587 0.785468
vt 0.634632 0.727191
vt 0.635389 0.767409
vt 0.591191 0.781282
vt 0.585984 0.733981
vt 0.532121 0.345010
vt 0.584721 0.347014
vt 0.581154 0.542485
vt 0.528758 0.541656
vt 0.714686 0.777015
vt 0.667899 0.766014
vt 0.669862 0.726435
vt 0.717487 0.731989
vt 0.669636 0.637204
vt 0.632828 0.637236
vt 0.717514 0.346946
vt 0.668194 0.349246
vt 0.716672 0.246336
vt 0.668279 0.543644
vt 0.720225 0.542543
vt 0.770771 0.049098
vt 0.811325 0.047395
vt 0.809798 0.246043
vt 0.770814 0.245821
vt 0.811767 0.821921
vt 0.816620 0.776783
vt 0.849896 0.772565
vt 0.849896 0.822286
vt 0.845206 0.865320
vt 0.813190 0.871720
vt 0.635684 0.004391
vt 0.581349 0.047971
vt 0.583873 0.000221
vt 0.584868 0.246831
vt 0.632734 0.349168
vt 0.531526 0.246761
vt 0.718703 0.049029
vt 0.719831 0.638410
vt 0.632462 0.543684
vt 0.581667 0.638958
vt 0.529644 0.641302
vt 0.534322 0.739825
vt 0.809156 0.344851
vt 0.769119 0.344960
vt 0.771556 0.541710
vt 0.715517 0.002281
vt 0.768077 0.003950
vt 0.763968 0.735213
vt 0.768985 0.640158
vt 0.809181 0.642238
vt 0.800597 0.741045
vt 0.759780 0.773904
vt 0.670147 0.011696
vt 0.790001 0.784996
vt 0.803762 0.002671
vt 0.811325 0.542108
vt 0.540978 0.784036
vt 0.528047 0.048045
vt 0.536992 0.004766
vn 0.0021 0.7607 0.6491
vn -0.0016 0.7261 -0.6875
vn -0.0395 0.7546 -0.6550
vn -0.0590 0.7310 0.6798
vn 0.7716 0.0077 -0.6360
vn 0.7467 0.0012 0.6652
vn 0.5727 -0.5724 0.5868
vn 0.6063 -0.6374 -0.4755
vn 0.6204 0.5640 -0.5450
vn 0.6196 0.5817 0.5270
vn 0.1042 0.7383 -0.6664
vn 0.0370 -0.0013 -0.9993
vn 0.0224 -0.7316 -0.6814
vn -0.0081 0.0090 -0.9999
vn -0.0032 0.0002 -1.0000
vn 0.0137 -0.7400 -0.6725
vn 0.1275 0.7314 0.6699
vn 0.0828 -0.0078 0.9965
vn 0.0099 0.7434 0.6688
vn 0.0138 0.7392 -0.6733
vn -0.0066 0.0424 0.9991
vn -0.0436 0.7616 0.6465
vn 0.0047 0.0381 0.9993
vn -0.0240 0.7582 0.6515
vn -0.0035 0.0263 0.9996
vn -0.0881 -0.7433 0.6632
vn -0.0835 -0.7238 -0.6850
vn 0.0090 -0.7292 -0.6842
vn 0.0109 -0.7420 0.6703
vn -0.7504 0.0058 -0.6610
vn -0.6221 -0.5491 -0.5581
vn -0.6180 -0.5887 0.5211
vn -0.7424 0.0238 0.6695
vn -0.5908 0.5627 0.5782
vn -0.6115 0.6238 -0.4867
vn -0.0361 0.0006 -0.9993
vn 0.0002 0.0137 -0.9999
vn -0.0441 0.7235 -0.6890
vn -0.0575 0.0271 0.9980
vn -0.0004 0.0082 1.0000
vn -0.0223 0.7381 -0.6743
vn 0.0003 -0.0028 -1.0000
vn -0.0093 -0.7497 -0.6617
vn 0.0354 -0.7713 -0.6355
vn 0.0246 -0.7234 0.6900
vn 0.0153 -0.7232 0.6905
vn 0.0619 -0.7069 0.7046
vn -0.0058 -0.7155 0.6986
usemtl STFence_MAT
s 1
f 22/1/1 20/2/2 14/3/3 16/4/4
f 9/5/5 10/6/6 2/7/7 1/8/8
f 3/9/9 4/10/10 10/6/6 9/5/5
f 44/11/11 3/12/9 9/13/5 48/14/12
f 27/15/13 29/16/14 36/17/15 31/18/16
f 10/19/6 4/20/10 46/21/17 47/22/18
f 38/23/19 46/21/17 44/11/11 40/24/20
f 30/25/21 26/26/22 22/1/1 23/27/23
f 34/28/24 26/26/22 30/25/21 35/29/25
f 15/30/26 13/31/27 19/32/28 21/33/29
f 46/21/17 4/20/10 3/12/9 44/11/11
f 11/34/30 5/35/31 6/36/32 12/37/33
f 11/34/30 12/37/33 8/38/34 7/39/35
f 7/40/35 14/3/3 18/41/36 11/42/30
f 24/43/37 20/2/2 28/44/38 29/16/14
f 27/15/13 19/45/28 24/43/37 29/16/14
f 23/27/23 17/46/39 15/30/26 21/33/29
f 38/23/19 42/47/40 47/22/18 46/21/17
f 16/4/4 17/46/39 23/27/23 22/1/1
f 34/28/24 38/23/19 40/24/20 32/48/41
f 40/24/20 44/11/11 48/14/12 41/49/42
f 39/50/43 41/49/42 48/14/12 43/51/44
f 28/44/38 26/26/22 34/28/24 32/48/41
f 21/33/29 19/32/28 27/52/13 25/53/45
f 38/23/19 34/28/24 35/29/25 42/47/40
f 30/25/21 25/53/45 33/54/46 35/29/25
f 18/41/36 14/3/3 20/2/2 24/43/37
f 15/30/26 17/46/39 12/55/33 6/56/32
f 45/57/47 37/58/48 39/59/43 43/60/44
f 20/2/2 22/1/1 26/26/22 28/44/38
f 2/61/7 10/19/6 47/22/18 45/57/47
f 16/4/4 14/3/3 7/40/35 8/62/34
f 45/57/47 43/60/44 1/63/8 2/61/7
f 30/25/21 23/27/23 21/33/29 25/53/45
f 15/30/26 6/56/32 5/64/31 13/31/27
f 42/47/40 35/29/25 33/54/46 37/58/48
f 31/18/16 36/17/15 41/49/42 39/50/43
f 32/48/41 40/24/20 41/49/42 36/17/15
f 47/22/18 42/47/40 37/58/48 45/57/47
f 37/58/48 33/54/46 31/65/16 39/59/43
f 28/44/38 32/48/41 36/17/15 29/16/14
f 1/66/8 43/51/44 48/14/12 9/13/5
f 18/41/36 13/67/27 5/68/31 11/42/30
f 17/46/39 16/4/4 8/62/34 12/55/33
f 19/45/28 13/67/27 18/41/36 24/43/37
f 25/53/45 27/52/13 31/65/16 33/54/46
