# Blender v2.93.5 OBJ File: ''
# www.blender.org
mtllib fence2.mtl
o STFence2_Cubo.010
v 0.573399 0.015587 0.089490
v 0.563790 0.947934 0.087719
v 0.569485 0.013772 -0.081135
v 0.561946 0.950711 -0.091467
v 0.741714 0.015854 0.087730
v 0.744068 0.949484 0.089407
v 0.737177 0.014537 -0.090411
v 0.744831 0.951086 -0.087987
v 0.569583 0.010374 -0.003978
v 0.554375 0.849759 0.097919
v 0.554129 0.964731 0.000099
v 0.584028 0.121334 -0.081164
v 0.655831 0.011323 -0.084595
v 0.655499 0.960449 -0.096398
v 0.740308 0.121425 -0.081289
v 0.742144 0.010007 -0.003842
v 0.754080 0.964543 -0.000283
v 0.742863 0.121388 0.084020
v 0.654545 0.009665 0.091211
v 0.655595 0.961659 0.097599
v 0.571794 0.363854 0.088839
v 0.556726 0.606615 -0.093304
v 0.744513 0.606827 -0.093602
v 0.743795 0.606968 0.091212
v 0.557826 0.606695 0.094251
v 0.552908 0.849736 -0.098538
v 0.747699 0.849955 -0.096045
v 0.751146 0.849577 0.100943
v 0.573772 0.363938 -0.086450
v 0.747212 0.364051 -0.091052
v 0.747479 0.364143 0.091169
v 0.580263 0.121507 0.082990
v 0.660142 0.121368 0.092863
v 0.748354 0.121427 0.000205
v 0.660856 0.121334 -0.091116
v 0.576705 0.122130 -0.000157
v 0.551043 0.607041 0.000303
v 0.651779 0.606850 -0.101710
v 0.753356 0.607139 0.000218
v 0.651770 0.606724 0.105463
v 0.564214 0.363989 0.000068
v 0.660103 0.363979 -0.099830
v 0.754832 0.364500 0.000384
v 0.660182 0.364025 0.095022
v 0.655998 0.980008 -0.000110
v 0.651573 0.849714 0.106157
v 0.756980 0.849790 0.000029
v 0.652002 0.849699 -0.109844
v 0.544935 0.849670 -0.000448
v 0.699547 0.296734 0.101126
v 0.686453 0.298057 0.140642
v 0.693232 0.394315 0.104824
v 0.685513 0.397985 0.140083
v -0.702742 0.298236 0.103884
v -0.695874 0.302894 0.139742
v -0.692952 0.403987 0.103157
v -0.692754 0.402996 0.147945
v 0.700705 0.349338 0.092684
v 0.682850 0.343779 0.146994
v -0.697171 0.350327 0.096353
v -0.692825 0.350196 0.148662
v 0.660136 0.295404 0.097462
v 0.657859 0.399886 0.101017
v 0.061814 0.292452 0.152255
v 0.061992 0.404363 0.155477
v 0.301157 0.286401 0.096181
v 0.301316 0.406968 0.095193
v 0.421125 0.294066 0.151916
v 0.420771 0.389137 0.142759
v -0.656878 0.293979 0.095863
v -0.657146 0.413367 0.096538
v -0.058060 0.301085 0.151283
v -0.058024 0.404015 0.154237
v -0.297409 0.302042 0.098135
v -0.297419 0.416571 0.096082
v -0.297393 0.357093 0.080904
v -0.058112 0.351068 0.155819
v -0.657196 0.352619 0.082073
v 0.061733 0.350227 0.083389
v 0.660339 0.338777 0.154107
v 0.301001 0.343701 0.154268
v 0.420671 0.345656 0.082771
v -0.536889 0.295177 0.095005
v -0.536895 0.413959 0.098703
v -0.656005 0.300098 0.155231
v -0.536558 0.300276 0.154916
v -0.656076 0.410161 0.154011
v -0.536856 0.410311 0.150327
v -0.657862 0.351571 0.160819
v -0.537087 0.354547 0.156716
v -0.536851 0.354829 0.081345
v -0.297440 0.300265 0.152850
v -0.297512 0.409898 0.151972
v -0.058000 0.294731 0.096239
v -0.058032 0.410222 0.095899
v -0.057982 0.352497 0.082817
v -0.297604 0.356625 0.159438
v 0.301634 0.288885 0.153950
v 0.300988 0.394342 0.142338
v 0.061700 0.291059 0.096091
v 0.061736 0.408635 0.096056
v 0.301148 0.345706 0.086053
v 0.061685 0.349521 0.155418
v 0.420842 0.293165 0.097098
v 0.540491 0.299431 0.098560
v 0.420999 0.402665 0.097041
v 0.540606 0.404534 0.096812
v 0.660697 0.297158 0.148735
v 0.541048 0.296462 0.150864
v 0.660385 0.399961 0.143806
v 0.540450 0.384239 0.141796
v 0.420540 0.341211 0.152064
v 0.540329 0.330140 0.149845
v 0.660558 0.343549 0.080986
v 0.540595 0.338156 0.079306
v 0.713947 0.578834 0.104625
v 0.704480 0.590188 0.160783
v 0.707948 0.753427 0.104462
v 0.706072 0.755801 0.162173
v -0.705690 0.586753 0.108295
v -0.709527 0.577959 0.169419
v -0.710463 0.761273 0.104586
v -0.700123 0.747987 0.162409
v 0.720837 0.670174 0.100154
v 0.716119 0.670418 0.166092
v -0.715090 0.669590 0.100418
v -0.712875 0.669603 0.170719
v -0.629245 0.570498 0.100173
v -0.629049 0.763513 0.100963
v -0.629238 0.570982 0.173145
v -0.629018 0.761316 0.173810
v -0.629118 0.667143 0.183042
v -0.629026 0.666972 0.093630
v -0.268498 0.565368 0.100435
v -0.268728 0.746982 0.104031
v -0.268489 0.565251 0.171406
v -0.268535 0.746440 0.161457
v -0.268464 0.661360 0.180849
v -0.268483 0.661217 0.098205
v -0.088354 0.573708 0.173105
v -0.088782 0.756077 0.166095
v -0.088257 0.570946 0.100425
v -0.088624 0.754440 0.101667
v -0.088382 0.666973 0.096346
v -0.088387 0.667061 0.178612
v 0.272038 0.583764 0.101054
v 0.271920 0.775962 0.100331
v 0.272060 0.584273 0.173557
v 0.271858 0.775969 0.168222
v 0.272049 0.679347 0.181849
v 0.271878 0.679433 0.092033
v 0.452143 0.588142 0.172484
v 0.452186 0.774724 0.170759
v 0.452129 0.583215 0.100017
v 0.452217 0.776298 0.099346
v 0.452137 0.679485 0.093345
v 0.452181 0.679397 0.180864
v 0.632504 0.576459 0.101069
v 0.632806 0.769378 0.100431
v 0.632853 0.582640 0.170570
v 0.632882 0.769219 0.172349
v 0.632793 0.673012 0.181746
v 0.632515 0.673045 0.092224
vt 0.690440 0.838718
vt 0.694531 0.785438
vt 0.746326 0.791353
vt 0.746326 0.842835
vt 0.636584 0.834673
vt 0.644595 0.785936
vt 0.686706 0.892663
vt 0.637602 0.885312
vt 0.200619 0.780936
vt 0.202995 0.732577
vt 0.335901 0.733216
vt 0.333852 0.784368
vt 0.202881 0.684113
vt 0.202767 0.634553
vt 0.335297 0.633392
vt 0.335531 0.683397
vt 0.463157 0.682771
vt 0.461268 0.631769
vt 0.514880 0.631343
vt 0.525996 0.681207
vt 0.063681 0.776892
vt 0.063099 0.731987
vt 0.329840 0.482002
vt 0.331846 0.532214
vt 0.198851 0.537562
vt 0.196590 0.487929
vt 0.064234 0.684374
vt 0.002579 0.775627
vt 0.001314 0.728936
vt 0.331881 0.835454
vt 0.198375 0.829568
vt 0.063558 0.821534
vt 0.327559 0.430140
vt 0.461582 0.424206
vt 0.461785 0.476947
vt 0.200611 0.585556
vt 0.333385 0.582957
vt 0.464605 0.786774
vt 0.465642 0.839436
vt 0.000382 0.493388
vt 0.062022 0.494316
vt 0.062993 0.541487
vt 0.004473 0.543458
vt 0.005129 0.819995
vt 0.001193 0.590829
vt 0.063443 0.588740
vt 0.000221 0.686322
vt 0.462918 0.733981
vt 0.063042 0.635604
vt 0.462067 0.581358
vt 0.001471 0.445698
vt 0.060334 0.449074
vt 0.460701 0.530038
vt 0.515004 0.528937
vt 0.523008 0.578896
vt 0.524979 0.478395
vt 0.525996 0.786185
vt 0.522559 0.836705
vt 0.193990 0.437446
vt 0.518209 0.428896
vt 0.738372 0.891894
vt 0.518193 0.733447
vt 0.002339 0.634794
vt 0.054160 0.869448
vt 0.024516 0.870423
vt 0.030575 0.839878
vt 0.054160 0.849779
vt 0.960833 0.153699
vt 0.927970 0.154771
vt 0.926402 0.089170
vt 0.963134 0.087907
vt 0.902166 0.351502
vt 0.903415 0.221889
vt 0.930039 0.221145
vt 0.934103 0.351217
vt 0.966088 0.678460
vt 0.999779 0.680619
vt 0.993555 0.746948
vt 0.961932 0.741657
vt 0.931387 0.736758
vt 0.929543 0.756914
vt 0.904237 0.755394
vt 0.903928 0.735826
vt 0.112195 0.865187
vt 0.082950 0.868327
vt 0.083586 0.839878
vt 0.112195 0.840899
vt 0.999194 0.547663
vt 0.967361 0.547747
vt 0.821534 0.086828
vt 0.825517 0.021457
vt 0.852475 0.025250
vt 0.850684 0.088083
vt 0.906629 0.012741
vt 0.926273 0.009325
vt 0.926412 0.028334
vt 0.905201 0.025906
vt 0.904956 0.677016
vt 0.932590 0.677093
vt 0.875450 0.738637
vt 0.875105 0.677495
vt 0.996808 0.218246
vt 0.963805 0.219568
vt 0.990804 0.152660
vt 0.869327 0.088743
vt 0.874593 0.155352
vt 0.848291 0.154738
vt 0.874243 0.548090
vt 0.903441 0.547998
vt 0.966852 0.416068
vt 0.934172 0.416673
vt 0.966691 0.350331
vt 0.875232 0.758122
vt 0.813531 0.219280
vt 0.845113 0.220127
vt 0.842232 0.349494
vt 0.811767 0.349918
vt 0.999779 0.349275
vt 0.874052 0.025151
vt 0.899547 0.088793
vt 0.933916 0.547894
vt 0.813186 0.680453
vt 0.813178 0.548188
vt 0.843193 0.548188
vt 0.846023 0.678319
vt 0.850304 0.738192
vt 0.872913 0.350675
vt 0.874958 0.221195
vt 0.876890 0.012475
vt 0.830922 0.000221
vt 0.851415 0.010765
vt 0.901731 0.416531
vt 0.901578 0.155458
vt 0.959404 0.764331
vt 0.987626 0.772123
vt 0.844319 0.415714
vt 0.872240 0.416222
vt 0.813492 0.415835
vt 0.986444 0.086910
vt 0.956793 0.025005
vt 0.983711 0.022135
vt 0.817757 0.153282
vt 0.820752 0.744703
vt 0.951363 0.003436
vt 0.980602 0.000451
vt 0.000221 0.864111
vt 0.001735 0.841582
vt 0.054602 0.863892
vt 0.057796 0.844195
vt 0.848934 0.759821
vt 0.999569 0.415276
vt 0.830787 0.767800
vt 0.666795 0.246857
vt 0.633885 0.246828
vt 0.632898 0.049104
vt 0.670049 0.051425
vt 0.746768 0.830949
vt 0.782587 0.832124
vt 0.778565 0.875985
vt 0.747432 0.880663
vt 0.751257 0.785438
vt 0.782587 0.785468
vt 0.634632 0.727191
vt 0.635389 0.767409
vt 0.591191 0.781282
vt 0.585984 0.733981
vt 0.532121 0.345010
vt 0.584721 0.347014
vt 0.581154 0.542485
vt 0.528758 0.541656
vt 0.714686 0.777015
vt 0.667899 0.766014
vt 0.669862 0.726435
vt 0.717487 0.731989
vt 0.669636 0.637204
vt 0.632828 0.637236
vt 0.717514 0.346946
vt 0.668194 0.349246
vt 0.716672 0.246336
vt 0.668279 0.543644
vt 0.720225 0.542543
vt 0.770771 0.049098
vt 0.811325 0.047395
vt 0.809798 0.246043
vt 0.770814 0.245821
vt 0.811767 0.821921
vt 0.816620 0.776783
vt 0.849896 0.772565
vt 0.849896 0.822286
vt 0.845206 0.865320
vt 0.813190 0.871720
vt 0.635684 0.004391
vt 0.581349 0.047971
vt 0.583873 0.000221
vt 0.584868 0.246831
vt 0.632734 0.349168
vt 0.531526 0.246761
vt 0.718703 0.049029
vt 0.719831 0.638410
vt 0.632462 0.543684
vt 0.581667 0.638958
vt 0.529644 0.641302
vt 0.534322 0.739825
vt 0.809156 0.344851
vt 0.769119 0.344960
vt 0.771556 0.541710
vt 0.715517 0.002281
vt 0.768077 0.003950
vt 0.763968 0.735213
vt 0.768985 0.640158
vt 0.809181 0.642238
vt 0.800597 0.741045
vt 0.759780 0.773904
vt 0.670147 0.011696
vt 0.790001 0.784996
vt 0.803762 0.002671
vt 0.811325 0.542108
vt 0.540978 0.784036
vt 0.528047 0.048045
vt 0.536992 0.004766
vn 0.0016 1.0000 0.0032
vn 0.0133 0.6846 -0.7288
vn -0.5860 0.5416 -0.6027
vn -0.7126 0.7015 0.0094
vn 0.7329 0.6804 -0.0058
vn 0.6098 0.5256 -0.5933
vn -0.0068 0.6826 0.7308
vn 0.6014 0.5274 0.6001
vn -0.0131 -0.0256 -0.9996
vn -0.7171 -0.0532 -0.6949
vn -0.7222 -0.0442 -0.6902
vn -0.0040 -0.0206 -0.9998
vn -0.9985 -0.0530 -0.0104
vn -0.7117 -0.0510 0.7006
vn -0.7160 -0.0399 0.6970
vn -0.9992 -0.0403 0.0019
vn -0.9994 0.0343 0.0083
vn -0.7072 0.0489 0.7053
vn -0.5946 0.5305 0.6042
vn -0.0212 -0.0205 -0.9996
vn -0.7050 -0.0020 -0.7092
vn 1.0000 -0.0050 -0.0028
vn 0.7118 -0.0181 0.7022
vn 0.7092 -0.0169 0.7048
vn 1.0000 -0.0086 -0.0031
vn -0.9998 0.0175 -0.0096
vn -0.0307 -0.0064 -0.9995
vn -0.7471 0.0548 -0.6625
vn 0.7091 -0.0116 -0.7050
vn 0.7125 -0.0216 -0.7013
vn 0.7149 -0.0321 -0.6985
vn 0.7097 0.0298 -0.7038
vn 0.9999 0.0107 -0.0076
vn -0.0027 -0.0234 0.9997
vn 0.0003 -0.0223 0.9998
vn 0.0113 0.0377 -0.9992
vn 0.9991 -0.0360 -0.0233
vn 0.9994 -0.0313 -0.0144
vn 0.7196 -0.0237 0.6940
vn 0.7094 -0.0175 0.7046
vn 0.6674 -0.0171 -0.7445
vn -0.0017 0.0171 0.9999
vn -0.0037 -0.0013 1.0000
vn -0.9966 0.0823 -0.0031
vn -0.7131 0.0439 -0.6997
vn -0.7168 0.0102 0.6972
vn -0.0073 0.0396 0.9992
vn 0.7039 0.0315 0.7096
vn -0.7136 0.0608 0.6979
vn 0.5894 0.6115 0.5280
vn 0.6621 0.0337 0.7486
vn 0.8316 0.0647 -0.5516
vn 0.7061 0.6085 -0.3621
vn -0.0064 -0.0241 -0.9997
vn 0.0140 0.8684 -0.4956
vn -0.0083 0.8752 -0.4837
vn 0.0021 -0.0586 -0.9983
vn 0.0204 0.6840 0.7292
vn 0.0340 0.6927 0.7205
vn 0.0244 0.8336 -0.5518
vn 0.0156 0.8112 -0.5846
vn 0.0003 0.0096 -1.0000
vn 0.0089 -0.8061 -0.5917
vn -0.1131 -0.7963 -0.5942
vn -0.1364 0.0133 -0.9906
vn -0.1566 0.7910 -0.5914
vn -0.6995 0.5689 -0.4325
vn -0.6795 0.5218 0.5158
vn -0.1370 0.7143 0.6863
vn -0.7951 0.0312 -0.6057
vn -0.7611 0.0103 0.6486
vn 0.0016 -0.8023 -0.5969
vn 0.0010 -0.0037 -1.0000
vn 0.0051 -0.8179 -0.5753
vn 0.0725 -0.8095 -0.5827
vn 0.1147 -0.7062 0.6987
vn 0.0104 -0.7185 0.6955
vn 0.0837 0.8352 -0.5436
vn 0.0792 0.7251 0.6841
vn 0.0045 0.7256 0.6881
vn -0.0043 0.8197 -0.5727
vn -0.1413 -0.0044 0.9900
vn 0.0100 0.0244 0.9997
vn 0.0101 -0.7901 -0.6129
vn 0.0005 -0.0086 -1.0000
vn 0.0229 -0.8004 -0.5990
vn -0.0022 0.0654 0.9979
vn 0.0178 0.0982 0.9950
vn 0.0417 -0.7014 0.7116
vn 0.0010 0.0089 1.0000
vn 0.0052 0.7103 0.7039
vn 0.0013 -0.0078 -1.0000
vn 0.0149 0.8118 -0.5837
vn 0.0027 -0.0031 -1.0000
vn 0.0169 -0.7058 0.7082
vn -0.0256 -0.7122 0.7015
vn -0.0232 -0.7921 -0.6099
vn 0.1216 0.0261 0.9922
vn -0.0164 0.6433 0.7655
vn 0.0068 0.8227 -0.5684
vn 0.0033 -0.7267 0.6869
vn 0.0128 -0.7101 0.7040
vn -0.1302 -0.6756 0.7256
vn 0.0058 0.0060 1.0000
vn 0.0158 0.0721 0.9973
vn 0.7190 -0.6055 -0.3411
vn 0.5834 -0.6078 0.5387
vn 0.0101 0.6861 0.7274
vn 0.0253 0.6599 0.7509
vn -0.7206 -0.5828 -0.3757
vn -0.0198 -0.7116 0.7023
vn 0.0015 -0.0198 0.9998
vn -0.0243 -0.8032 -0.5953
vn 0.1104 -0.0116 -0.9938
vn -0.6729 -0.5542 0.4900
vn 0.0021 0.7607 0.6491
vn -0.0016 0.7261 -0.6875
vn -0.0395 0.7546 -0.6550
vn -0.0590 0.7310 0.6798
vn 0.7716 0.0077 -0.6360
vn 0.7467 0.0012 0.6652
vn 0.5727 -0.5724 0.5868
vn 0.6063 -0.6374 -0.4755
vn 0.6204 0.5640 -0.5450
vn 0.6196 0.5817 0.5270
vn 0.1042 0.7383 -0.6664
vn 0.0370 -0.0013 -0.9993
vn 0.0224 -0.7316 -0.6814
vn -0.0081 0.0090 -0.9999
vn -0.0032 0.0002 -1.0000
vn 0.0137 -0.7400 -0.6725
vn 0.1275 0.7314 0.6699
vn 0.0828 -0.0078 0.9965
vn 0.0099 0.7434 0.6688
vn 0.0138 0.7392 -0.6733
vn -0.0066 0.0424 0.9991
vn -0.0436 0.7616 0.6465
vn 0.0047 0.0381 0.9993
vn -0.0240 0.7582 0.6515
vn -0.0035 0.0263 0.9996
vn -0.0881 -0.7433 0.6632
vn -0.0835 -0.7238 -0.6850
vn 0.0090 -0.7292 -0.6842
vn 0.0109 -0.7420 0.6703
vn -0.7504 0.0058 -0.6610
vn -0.6221 -0.5491 -0.5581
vn -0.6180 -0.5887 0.5211
vn -0.7424 0.0238 0.6695
vn -0.5908 0.5627 0.5782
vn -0.6115 0.6238 -0.4867
vn -0.0361 0.0006 -0.9993
vn 0.0002 0.0137 -0.9999
vn -0.0441 0.7235 -0.6890
vn -0.0575 0.0271 0.9980
vn -0.0004 0.0082 1.0000
vn -0.0223 0.7381 -0.6743
vn 0.0003 -0.0028 -1.0000
vn -0.0093 -0.7497 -0.6617
vn 0.0354 -0.7713 -0.6355
vn 0.0246 -0.7234 0.6900
vn 0.0153 -0.7232 0.6905
vn 0.0619 -0.7069 0.7046
vn -0.0058 -0.7155 0.6986
usemtl STFence_MAT
s 1
f 45/1/1 14/2/2 4/3/3 11/4/4
f 45/1/1 17/5/5 8/6/6 14/2/2
f 45/1/1 20/7/7 6/8/8 17/5/5
f 42/9/9 29/10/10 22/11/11 38/12/12
f 41/13/13 21/14/14 25/15/15 37/16/16
f 49/17/17 10/18/18 2/19/19 11/20/4
f 29/10/10 42/9/9 35/21/20 12/22/21
f 39/23/22 24/24/23 31/25/24 43/26/25
f 29/10/10 12/22/21 36/27/26 41/13/13
f 13/28/27 3/29/28 12/22/21 35/21/20
f 23/30/29 30/31/30 42/9/9 38/12/12
f 42/9/9 30/31/30 15/32/31 35/21/20
f 39/23/22 23/33/29 27/34/32 47/35/33
f 25/15/15 21/14/14 44/36/34 40/37/35
f 25/15/15 10/18/18 49/17/17 37/16/16
f 23/30/29 38/12/12 48/38/36 27/39/32
f 16/40/37 34/41/38 18/42/39 5/43/40
f 13/28/27 35/21/20 15/32/31 7/44/41
f 19/45/42 5/43/40 18/42/39 33/46/43
f 9/47/44 36/27/26 12/22/21 3/29/28
f 26/48/45 48/38/36 38/12/12 22/11/11
f 18/42/39 31/25/24 44/36/34 33/46/43
f 41/13/13 36/27/26 32/49/46 21/14/14
f 25/15/15 40/37/35 46/50/47 10/18/18
f 37/16/16 49/17/17 26/48/45 22/11/11
f 16/40/37 7/51/41 15/52/31 34/41/38
f 37/16/16 22/11/11 29/10/10 41/13/13
f 47/35/33 28/53/48 24/24/23 39/23/22
f 6/54/8 20/55/7 46/50/47 28/53/48
f 17/56/5 6/54/8 28/53/48 47/35/33
f 40/37/35 24/24/23 28/53/48 46/50/47
f 44/36/34 31/25/24 24/24/23 40/37/35
f 14/57/2 8/58/6 27/39/32 48/38/36
f 15/52/31 30/59/30 43/26/25 34/41/38
f 8/60/6 17/56/5 47/35/33 27/34/32
f 18/42/39 34/41/38 43/26/25 31/25/24
f 45/1/1 11/4/4 2/61/19 20/7/7
f 32/49/46 33/46/43 44/36/34 21/14/14
f 4/62/3 14/57/2 48/38/36 26/48/45
f 2/19/19 10/18/18 46/50/47 20/55/7
f 33/46/43 32/49/46 1/63/49 19/45/42
f 11/20/4 4/62/3 26/48/45 49/17/17
f 36/27/26 9/47/44 1/63/49 32/49/46
f 39/23/22 43/26/25 30/59/30 23/33/29
f 53/64/50 59/65/51 58/66/52 52/67/53
f 82/68/54 106/69/55 107/70/56 115/71/57
f 65/72/58 99/73/59 67/74/60 101/75/61
f 91/76/62 83/77/63 70/78/64 78/79/65
f 71/80/66 56/81/67 57/82/68 87/83/69
f 56/84/67 60/85/70 61/86/71 57/87/68
f 74/88/72 83/77/63 91/76/62 76/89/73
f 105/90/74 62/91/75 108/92/76 109/93/77
f 53/94/50 52/95/53 63/96/78 110/97/79
f 88/98/80 84/99/81 71/80/66 87/83/69
f 88/98/80 87/83/69 89/100/82 90/101/83
f 66/102/84 102/103/85 82/68/54 104/104/86
f 113/105/87 112/106/88 68/107/89 109/93/77
f 90/101/83 97/108/90 93/109/91 88/98/80
f 96/110/92 95/111/93 101/75/61 79/112/94
f 57/82/68 61/113/71 89/100/82 87/83/69
f 66/114/84 98/115/95 64/116/96 100/117/97
f 79/112/94 102/103/85 66/102/84 100/118/97
f 78/79/65 71/80/66 84/99/81 91/76/62
f 80/119/98 110/97/79 111/120/99 113/105/87
f 108/92/76 80/119/98 113/105/87 109/93/77
f 76/89/73 91/76/62 84/99/81 75/121/100
f 83/122/63 74/123/72 92/124/101 86/125/102
f 89/100/82 85/126/103 86/125/102 90/101/83
f 99/73/59 65/72/58 103/127/104 81/128/105
f 110/97/79 80/119/98 59/129/51 53/94/50
f 108/92/76 62/91/75 50/130/106 51/131/107
f 95/111/93 75/121/100 93/109/91 73/132/108
f 111/120/99 69/133/109 112/106/88 113/105/87
f 60/134/70 56/81/67 71/80/66 78/79/65
f 78/79/65 70/78/64 54/135/110 60/134/70
f 96/110/92 76/89/73 75/121/100 95/111/93
f 92/124/101 72/136/111 77/137/112 97/108/90
f 92/124/101 74/123/72 94/138/113 72/136/111
f 103/127/104 65/72/58 73/132/108 77/137/112
f 65/72/58 101/75/61 95/111/93 73/132/108
f 105/139/74 115/71/57 114/140/114 62/141/75
f 68/107/89 104/142/86 105/90/74 109/93/77
f 85/126/103 70/143/64 83/122/63 86/125/102
f 64/116/96 72/136/111 94/138/113 100/117/97
f 81/128/105 103/127/104 64/116/96 98/115/95
f 106/69/55 82/68/54 102/103/85 67/74/60
f 75/121/100 84/99/81 88/98/80 93/109/91
f 104/142/86 68/107/89 98/115/95 66/114/84
f 114/140/114 63/96/78 52/95/53 58/144/52
f 82/68/54 115/71/57 105/139/74 104/104/86
f 72/136/111 64/116/96 103/127/104 77/137/112
f 99/73/59 81/128/105 112/106/88 69/133/109
f 112/106/88 81/128/105 98/115/95 68/107/89
f 67/74/60 99/73/59 69/133/109 106/69/55
f 114/140/114 115/71/57 107/70/56 63/96/78
f 114/140/114 58/144/52 50/145/106 62/141/75
f 51/146/107 50/147/106 58/66/52 59/65/51
f 60/85/70 54/148/110 55/149/115 61/86/71
f 85/126/103 89/100/82 61/113/71 55/150/115
f 59/129/51 80/119/98 108/92/76 51/131/107
f 73/132/108 93/109/91 97/108/90 77/137/112
f 100/118/97 94/151/113 96/110/92 79/112/94
f 106/69/55 69/133/109 111/120/99 107/70/56
f 54/152/110 70/143/64 85/126/103 55/150/115
f 110/97/79 63/96/78 107/70/56 111/120/99
f 76/89/73 96/110/92 94/151/113 74/88/72
f 102/103/85 79/112/94 101/75/61 67/74/60
f 92/124/101 97/108/90 90/101/83 86/125/102
f 137/153/116 135/154/117 129/155/118 131/156/119
f 124/157/120 125/158/121 117/159/122 116/160/123
f 118/161/124 119/162/125 125/158/121 124/157/120
f 159/163/126 118/164/124 124/165/120 163/166/127
f 142/167/128 144/168/129 151/169/130 146/170/131
f 125/171/121 119/172/125 161/173/132 162/174/133
f 153/175/134 161/173/132 159/163/126 155/176/135
f 145/177/136 141/178/137 137/153/116 138/179/138
f 149/180/139 141/178/137 145/177/136 150/181/140
f 130/182/141 128/183/142 134/184/143 136/185/144
f 161/173/132 119/172/125 118/164/124 159/163/126
f 126/186/145 120/187/146 121/188/147 127/189/148
f 126/186/145 127/189/148 123/190/149 122/191/150
f 122/192/150 129/155/118 133/193/151 126/194/145
f 139/195/152 135/154/117 143/196/153 144/168/129
f 142/167/128 134/197/143 139/195/152 144/168/129
f 138/179/138 132/198/154 130/182/141 136/185/144
f 153/175/134 157/199/155 162/174/133 161/173/132
f 131/156/119 132/198/154 138/179/138 137/153/116
f 149/180/139 153/175/134 155/176/135 147/200/156
f 155/176/135 159/163/126 163/166/127 156/201/157
f 154/202/158 156/201/157 163/166/127 158/203/159
f 143/196/153 141/178/137 149/180/139 147/200/156
f 136/185/144 134/184/143 142/204/128 140/205/160
f 153/175/134 149/180/139 150/181/140 157/199/155
f 145/177/136 140/205/160 148/206/161 150/181/140
f 133/193/151 129/155/118 135/154/117 139/195/152
f 130/182/141 132/198/154 127/207/148 121/208/147
f 160/209/162 152/210/163 154/211/158 158/212/159
f 135/154/117 137/153/116 141/178/137 143/196/153
f 117/213/122 125/171/121 162/174/133 160/209/162
f 131/156/119 129/155/118 122/192/150 123/214/149
f 160/209/162 158/212/159 116/215/123 117/213/122
f 145/177/136 138/179/138 136/185/144 140/205/160
f 130/182/141 121/208/147 120/216/146 128/183/142
f 157/199/155 150/181/140 148/206/161 152/210/163
f 146/170/131 151/169/130 156/201/157 154/202/158
f 147/200/156 155/176/135 156/201/157 151/169/130
f 162/174/133 157/199/155 152/210/163 160/209/162
f 152/210/163 148/206/161 146/217/131 154/211/158
f 143/196/153 147/200/156 151/169/130 144/168/129
f 116/218/123 158/203/159 163/166/127 124/165/120
f 133/193/151 128/219/142 120/220/146 126/194/145
f 132/198/154 131/156/119 123/214/149 127/207/148
f 134/197/143 128/219/142 133/193/151 139/195/152
f 140/205/160 142/204/128 146/217/131 148/206/161
