# Blender v2.93.5 OBJ File: ''
# www.blender.org
mtllib fence3.mtl
o STFence3_Plano.013
v 0.697024 0.296734 0.101126
v 0.683930 0.298057 0.140642
v 0.690709 0.394315 0.104824
v 0.682990 0.397985 0.140083
v -0.705265 0.298236 0.103884
v -0.698397 0.302894 0.139742
v -0.695475 0.403987 0.103157
v -0.695277 0.402996 0.147945
v 0.698182 0.349338 0.092684
v 0.680327 0.343779 0.146994
v -0.699694 0.350327 0.096353
v -0.695348 0.350196 0.148662
v 0.657613 0.295404 0.097462
v 0.655336 0.399886 0.101017
v 0.059291 0.292452 0.152255
v 0.059469 0.404363 0.155477
v 0.298634 0.286401 0.096181
v 0.298793 0.406968 0.095193
v 0.418602 0.294066 0.151916
v 0.418248 0.389137 0.142759
v -0.659401 0.293979 0.095863
v -0.659669 0.413367 0.096538
v -0.060583 0.301085 0.151283
v -0.060547 0.404015 0.154237
v -0.299932 0.302042 0.098135
v -0.299942 0.416571 0.096082
v -0.299916 0.357093 0.080904
v -0.060635 0.351068 0.155819
v -0.659719 0.352619 0.082073
v 0.059210 0.350227 0.083389
v 0.657816 0.338777 0.154107
v 0.298478 0.343701 0.154268
v 0.418148 0.345656 0.082771
v -0.539412 0.295177 0.095005
v -0.539418 0.413959 0.098703
v -0.658528 0.300098 0.155231
v -0.539081 0.300276 0.154916
v -0.658599 0.410161 0.154011
v -0.539379 0.410311 0.150327
v -0.660385 0.351571 0.160819
v -0.539610 0.354547 0.156716
v -0.539374 0.354829 0.081345
v -0.299963 0.300265 0.152850
v -0.300035 0.409898 0.151972
v -0.060523 0.294731 0.096239
v -0.060555 0.410222 0.095899
v -0.060505 0.352497 0.082817
v -0.300127 0.356625 0.159438
v 0.299111 0.288885 0.153950
v 0.298465 0.394342 0.142338
v 0.059177 0.291059 0.096091
v 0.059213 0.408635 0.096056
v 0.298625 0.345706 0.086053
v 0.059162 0.349521 0.155418
v 0.418319 0.293165 0.097098
v 0.537968 0.299431 0.098560
v 0.418476 0.402665 0.097041
v 0.538083 0.404534 0.096812
v 0.658174 0.297158 0.148735
v 0.538525 0.296462 0.150864
v 0.657862 0.399961 0.143806
v 0.537927 0.384239 0.141796
v 0.418017 0.341211 0.152064
v 0.537806 0.330140 0.149845
v 0.658035 0.343549 0.080986
v 0.538072 0.338156 0.079306
v 0.711424 0.578834 0.104625
v 0.701957 0.590188 0.160783
v 0.705425 0.753427 0.104462
v 0.703549 0.755801 0.162173
v -0.708213 0.586753 0.108295
v -0.712050 0.577959 0.169419
v -0.712986 0.761273 0.104586
v -0.702646 0.747987 0.162409
v 0.718314 0.670174 0.100154
v 0.713596 0.670418 0.166092
v -0.717613 0.669590 0.100418
v -0.715398 0.669603 0.170719
v -0.631767 0.570498 0.100173
v -0.631572 0.763513 0.100963
v -0.631761 0.570982 0.173145
v -0.631541 0.761316 0.173810
v -0.631641 0.667143 0.183042
v -0.631549 0.666972 0.093630
v -0.271021 0.565368 0.100435
v -0.271251 0.746982 0.104031
v -0.271012 0.565251 0.171406
v -0.271058 0.746440 0.161457
v -0.270987 0.661360 0.180849
v -0.271006 0.661217 0.098205
v -0.090877 0.573708 0.173105
v -0.091305 0.756077 0.166095
v -0.090780 0.570946 0.100425
v -0.091147 0.754440 0.101667
v -0.090905 0.666973 0.096346
v -0.090910 0.667061 0.178612
v 0.269515 0.583764 0.101054
v 0.269397 0.775962 0.100331
v 0.269537 0.584273 0.173557
v 0.269335 0.775969 0.168222
v 0.269526 0.679347 0.181849
v 0.269355 0.679433 0.092033
v 0.449620 0.588142 0.172484
v 0.449663 0.774724 0.170759
v 0.449606 0.583215 0.100017
v 0.449694 0.776298 0.099346
v 0.449615 0.679485 0.093345
v 0.449658 0.679397 0.180864
v 0.629981 0.576459 0.101069
v 0.630283 0.769378 0.100431
v 0.630330 0.582640 0.170570
v 0.630359 0.769219 0.172349
v 0.630270 0.673012 0.181746
v 0.629992 0.673045 0.092224
v -0.574228 0.017946 0.079812
v -0.562600 0.951280 0.091375
v -0.580488 0.015127 -0.082104
v -0.559607 0.952377 -0.091334
v -0.739592 0.015495 0.080342
v -0.744174 0.950374 0.088576
v -0.740259 0.015382 -0.080937
v -0.745951 0.954075 -0.093767
v -0.561024 0.012865 -0.005710
v -0.552230 0.849788 0.099575
v -0.552944 0.964716 0.000080
v -0.588223 0.121498 -0.080382
v -0.659658 0.010583 -0.088602
v -0.654291 0.962144 -0.097795
v -0.747965 0.121361 -0.082905
v -0.756565 0.010029 -0.005397
v -0.753078 0.964620 -0.000246
v -0.749135 0.121335 0.083984
v -0.660271 0.010025 0.090370
v -0.654486 0.963147 0.097990
v -0.584912 0.121314 0.082746
v -0.576035 0.363789 0.089506
v -0.556635 0.606657 0.094250
v -0.551992 0.849797 -0.098637
v -0.556601 0.606779 -0.092017
v -0.577659 0.363674 -0.089986
v -0.747293 0.849854 -0.096797
v -0.744001 0.606817 -0.093799
v -0.747020 0.364039 -0.088809
v -0.751039 0.849588 0.100446
v -0.743724 0.606878 0.091280
v -0.750071 0.364039 0.090131
v -0.549855 0.606998 0.000285
v -0.567085 0.363708 -0.000043
v -0.578747 0.122090 -0.000249
v -0.650597 0.606851 -0.101704
v -0.664914 0.363991 -0.099879
v -0.667393 0.121244 -0.092768
v -0.752183 0.607149 0.000193
v -0.754439 0.364536 0.000412
v -0.752278 0.121533 0.000308
v -0.650595 0.606718 0.105462
v -0.662985 0.364036 0.094630
v -0.665144 0.121284 0.092668
v -0.654792 0.980358 -0.000132
v -0.650433 0.849693 0.106152
v -0.755783 0.849775 0.000035
v -0.650753 0.849650 -0.109844
v -0.543736 0.849660 -0.000467
vt 0.054160 0.869448
vt 0.024516 0.870423
vt 0.030575 0.839878
vt 0.054160 0.849779
vt 0.960833 0.153699
vt 0.927970 0.154771
vt 0.926402 0.089170
vt 0.963134 0.087907
vt 0.902166 0.351502
vt 0.903415 0.221889
vt 0.930039 0.221145
vt 0.934103 0.351217
vt 0.966088 0.678460
vt 0.999779 0.680619
vt 0.993555 0.746948
vt 0.961932 0.741657
vt 0.931387 0.736758
vt 0.929543 0.756914
vt 0.904237 0.755394
vt 0.903928 0.735826
vt 0.112195 0.865187
vt 0.082950 0.868327
vt 0.083586 0.839878
vt 0.112195 0.840899
vt 0.999194 0.547663
vt 0.967361 0.547747
vt 0.821534 0.086828
vt 0.825517 0.021457
vt 0.852475 0.025250
vt 0.850684 0.088083
vt 0.906629 0.012741
vt 0.926273 0.009325
vt 0.926412 0.028334
vt 0.905201 0.025906
vt 0.904956 0.677016
vt 0.932590 0.677093
vt 0.875450 0.738637
vt 0.875105 0.677495
vt 0.996808 0.218246
vt 0.963805 0.219568
vt 0.990804 0.152660
vt 0.869327 0.088743
vt 0.874593 0.155352
vt 0.848291 0.154738
vt 0.874243 0.548090
vt 0.903441 0.547998
vt 0.966852 0.416068
vt 0.934172 0.416673
vt 0.966691 0.350331
vt 0.875232 0.758122
vt 0.813531 0.219280
vt 0.845113 0.220127
vt 0.842232 0.349494
vt 0.811767 0.349918
vt 0.999779 0.349275
vt 0.874052 0.025151
vt 0.899547 0.088793
vt 0.933916 0.547894
vt 0.813186 0.680453
vt 0.813178 0.548188
vt 0.843193 0.548188
vt 0.846023 0.678319
vt 0.850304 0.738192
vt 0.872913 0.350675
vt 0.874958 0.221195
vt 0.876890 0.012475
vt 0.830922 0.000221
vt 0.851415 0.010765
vt 0.901731 0.416531
vt 0.901578 0.155458
vt 0.959404 0.764331
vt 0.987626 0.772123
vt 0.844319 0.415714
vt 0.872240 0.416222
vt 0.813492 0.415835
vt 0.986444 0.086910
vt 0.956793 0.025005
vt 0.983711 0.022135
vt 0.817757 0.153282
vt 0.820752 0.744703
vt 0.951363 0.003436
vt 0.980602 0.000451
vt 0.000221 0.864111
vt 0.001735 0.841582
vt 0.054602 0.863892
vt 0.057796 0.844195
vt 0.848934 0.759821
vt 0.999569 0.415276
vt 0.830787 0.767800
vt 0.666795 0.246857
vt 0.633885 0.246828
vt 0.632898 0.049104
vt 0.670049 0.051425
vt 0.746768 0.830949
vt 0.782587 0.832124
vt 0.778565 0.875985
vt 0.747432 0.880663
vt 0.751257 0.785438
vt 0.782587 0.785468
vt 0.634632 0.727191
vt 0.635389 0.767409
vt 0.591191 0.781282
vt 0.585984 0.733981
vt 0.532121 0.345010
vt 0.584721 0.347014
vt 0.581154 0.542485
vt 0.528758 0.541656
vt 0.714686 0.777015
vt 0.667899 0.766014
vt 0.669862 0.726435
vt 0.717487 0.731989
vt 0.669636 0.637204
vt 0.632828 0.637236
vt 0.717514 0.346946
vt 0.668194 0.349246
vt 0.716672 0.246336
vt 0.668279 0.543644
vt 0.720225 0.542543
vt 0.770771 0.049098
vt 0.811325 0.047395
vt 0.809798 0.246043
vt 0.770814 0.245821
vt 0.811767 0.821921
vt 0.816620 0.776783
vt 0.849896 0.772565
vt 0.849896 0.822286
vt 0.845206 0.865320
vt 0.813190 0.871720
vt 0.635684 0.004391
vt 0.581349 0.047971
vt 0.583873 0.000221
vt 0.584868 0.246831
vt 0.632734 0.349168
vt 0.531526 0.246761
vt 0.718703 0.049029
vt 0.719831 0.638410
vt 0.632462 0.543684
vt 0.581667 0.638958
vt 0.529644 0.641302
vt 0.534322 0.739825
vt 0.809156 0.344851
vt 0.769119 0.344960
vt 0.771556 0.541710
vt 0.715517 0.002281
vt 0.768077 0.003950
vt 0.763968 0.735213
vt 0.768985 0.640158
vt 0.809181 0.642238
vt 0.800597 0.741045
vt 0.759780 0.773904
vt 0.670147 0.011696
vt 0.790001 0.784996
vt 0.803762 0.002671
vt 0.811325 0.542108
vt 0.540978 0.784036
vt 0.528047 0.048045
vt 0.536992 0.004766
vt 0.329792 0.007002
vt 0.464308 0.000221
vt 0.463804 0.054247
vt 0.332200 0.057987
vt 0.636142 0.844316
vt 0.582157 0.841433
vt 0.585326 0.785438
vt 0.636142 0.791542
vt 0.631277 0.895037
vt 0.579067 0.895513
vt 0.529550 0.888501
vt 0.528047 0.838135
vt 0.527605 0.057035
vt 0.518012 0.108798
vt 0.462364 0.107661
vt 0.333362 0.211666
vt 0.332785 0.262137
vt 0.199451 0.260243
vt 0.199962 0.211187
vt 0.334257 0.108941
vt 0.063918 0.120369
vt 0.200942 0.115618
vt 0.200555 0.163612
vt 0.066091 0.166088
vt 0.463560 0.159106
vt 0.333719 0.159979
vt 0.008209 0.302825
vt 0.066502 0.303193
vt 0.063886 0.347440
vt 0.002572 0.347608
vt 0.198391 0.309337
vt 0.331929 0.314259
vt 0.330759 0.366152
vt 0.196957 0.354710
vt 0.464358 0.368980
vt 0.464126 0.423764
vt 0.329340 0.418557
vt 0.195116 0.015619
vt 0.198232 0.065888
vt 0.462823 0.211290
vt 0.464517 0.263827
vt 0.061312 0.391616
vt 0.002085 0.391785
vt 0.068182 0.212546
vt 0.194959 0.403111
vt 0.060663 0.027772
vt 0.062543 0.072930
vt 0.066897 0.257948
vt 0.005505 0.259944
vt 0.001364 0.028057
vt 0.000221 0.071887
vt 0.010011 0.211571
vt 0.004386 0.167442
vt 0.005223 0.119597
vt 0.464569 0.315999
vt 0.525644 0.161115
vt 0.517798 0.212112
vt 0.527605 0.262360
vt 0.522160 0.315269
vt 0.526940 0.366736
vt 0.521681 0.419873
vt 0.534008 0.787097
vt 0.522210 0.005175
vn 0.5894 0.6115 0.5280
vn 0.6621 0.0337 0.7486
vn 0.8316 0.0647 -0.5516
vn 0.7061 0.6085 -0.3621
vn -0.0064 -0.0241 -0.9997
vn 0.0140 0.8684 -0.4956
vn -0.0083 0.8752 -0.4837
vn 0.0021 -0.0586 -0.9983
vn 0.0204 0.6840 0.7292
vn 0.0340 0.6927 0.7205
vn 0.0244 0.8336 -0.5518
vn 0.0156 0.8112 -0.5846
vn 0.0003 0.0096 -1.0000
vn 0.0089 -0.8061 -0.5917
vn -0.1131 -0.7963 -0.5942
vn -0.1364 0.0133 -0.9906
vn -0.1566 0.7910 -0.5914
vn -0.6995 0.5689 -0.4325
vn -0.6795 0.5218 0.5158
vn -0.1370 0.7143 0.6863
vn -0.7951 0.0312 -0.6057
vn -0.7611 0.0103 0.6486
vn 0.0016 -0.8023 -0.5969
vn 0.0010 -0.0037 -1.0000
vn 0.0051 -0.8179 -0.5753
vn 0.0725 -0.8095 -0.5827
vn 0.1147 -0.7062 0.6987
vn 0.0104 -0.7185 0.6955
vn 0.0837 0.8352 -0.5436
vn 0.0792 0.7251 0.6841
vn 0.0045 0.7256 0.6881
vn -0.0043 0.8197 -0.5727
vn -0.1413 -0.0044 0.9900
vn 0.0100 0.0244 0.9997
vn 0.0101 -0.7901 -0.6129
vn 0.0005 -0.0086 -1.0000
vn 0.0229 -0.8004 -0.5990
vn -0.0022 0.0654 0.9979
vn 0.0178 0.0982 0.9950
vn 0.0417 -0.7014 0.7116
vn 0.0010 0.0089 1.0000
vn 0.0052 0.7103 0.7039
vn 0.0013 -0.0078 -1.0000
vn 0.0149 0.8118 -0.5837
vn 0.0027 -0.0031 -1.0000
vn 0.0169 -0.7058 0.7082
vn -0.0256 -0.7122 0.7015
vn -0.0232 -0.7921 -0.6099
vn 0.1216 0.0261 0.9922
vn -0.0164 0.6433 0.7655
vn 0.0068 0.8227 -0.5684
vn 0.0033 -0.7267 0.6869
vn 0.0128 -0.7101 0.7040
vn -0.1302 -0.6756 0.7256
vn 0.0058 0.0060 1.0000
vn 0.0158 0.0721 0.9973
vn 0.7190 -0.6055 -0.3411
vn 0.5834 -0.6078 0.5387
vn 0.0101 0.6861 0.7274
vn 0.0253 0.6599 0.7509
vn -0.7206 -0.5828 -0.3757
vn -0.0198 -0.7116 0.7023
vn 0.0015 -0.0198 0.9998
vn -0.0243 -0.8032 -0.5953
vn 0.1104 -0.0116 -0.9938
vn -0.6729 -0.5542 0.4900
vn 0.0021 0.7607 0.6491
vn -0.0016 0.7261 -0.6875
vn -0.0395 0.7546 -0.6550
vn -0.0590 0.7310 0.6798
vn 0.7716 0.0077 -0.6360
vn 0.7467 0.0012 0.6652
vn 0.5727 -0.5724 0.5868
vn 0.6063 -0.6374 -0.4755
vn 0.6204 0.5640 -0.5450
vn 0.6196 0.5817 0.5270
vn 0.1042 0.7383 -0.6664
vn 0.0370 -0.0013 -0.9993
vn 0.0224 -0.7316 -0.6814
vn -0.0081 0.0090 -0.9999
vn -0.0032 0.0002 -1.0000
vn 0.0137 -0.7400 -0.6725
vn 0.1275 0.7314 0.6699
vn 0.0828 -0.0078 0.9965
vn 0.0099 0.7434 0.6688
vn 0.0138 0.7392 -0.6733
vn -0.0066 0.0424 0.9991
vn -0.0436 0.7616 0.6465
vn 0.0047 0.0381 0.9993
vn -0.0240 0.7582 0.6515
vn -0.0035 0.0263 0.9996
vn -0.0881 -0.7433 0.6632
vn -0.0835 -0.7238 -0.6850
vn 0.0090 -0.7292 -0.6842
vn 0.0109 -0.7420 0.6703
vn -0.7504 0.0058 -0.6610
vn -0.6221 -0.5491 -0.5581
vn -0.6180 -0.5887 0.5211
vn -0.7424 0.0238 0.6695
vn -0.5908 0.5627 0.5782
vn -0.6115 0.6238 -0.4867
vn -0.0361 0.0006 -0.9993
vn 0.0002 0.0137 -0.9999
vn -0.0441 0.7235 -0.6890
vn -0.0575 0.0271 0.9980
vn -0.0004 0.0082 1.0000
vn -0.0223 0.7381 -0.6743
vn 0.0003 -0.0028 -1.0000
vn -0.0093 -0.7497 -0.6617
vn 0.0354 -0.7713 -0.6355
vn 0.0246 -0.7234 0.6900
vn 0.0153 -0.7232 0.6905
vn 0.0619 -0.7069 0.7046
vn -0.0058 -0.7155 0.6986
vn 0.7218 -0.0484 -0.6904
vn 0.7133 0.0379 -0.6998
vn 0.9995 0.0319 0.0041
vn 0.9987 -0.0500 -0.0022
vn 0.0008 0.6876 -0.7261
vn -0.0019 1.0000 0.0056
vn 0.7159 0.6982 0.0054
vn 0.5936 0.5428 -0.5941
vn -0.6046 0.5235 -0.6003
vn -0.7346 0.6785 0.0025
vn -0.6090 0.5283 0.5916
vn -0.0073 0.6872 0.7264
vn 0.5817 0.5400 0.6083
vn 0.7061 0.0438 0.7067
vn -0.7165 -0.0160 0.6974
vn -1.0000 -0.0028 -0.0081
vn -0.9999 0.0044 -0.0096
vn -0.7196 -0.0086 0.6944
vn 0.7156 -0.0484 0.6968
vn 0.6951 0.0141 0.7188
vn 0.7015 -0.0578 0.7103
vn -0.0015 -0.0237 0.9997
vn 0.0033 -0.0219 0.9998
vn -0.0044 0.0350 0.9994
vn -0.0043 -0.0235 0.9997
vn -0.6900 -0.0316 -0.7232
vn -0.7219 -0.0248 -0.6916
vn 0.0007 -0.0261 -0.9997
vn 0.0100 -0.0187 -0.9998
vn -0.7220 -0.0094 -0.6918
vn -0.7117 -0.0126 -0.7024
vn 0.0015 -0.0203 -0.9998
vn -0.0004 -0.0224 -0.9997
vn 0.0010 0.0270 -0.9996
vn 0.7031 -0.0569 -0.7088
vn 0.9980 -0.0617 -0.0098
vn -0.7090 0.0309 0.7046
vn -1.0000 0.0074 -0.0064
vn 0.6922 0.0099 -0.7217
vn 0.6882 0.0748 -0.7216
vn -0.7194 -0.0281 0.6940
vn 0.9989 0.0397 -0.0230
vn -0.9999 -0.0134 -0.0068
vn -0.9997 -0.0212 -0.0091
vn 0.9913 0.1255 -0.0404
vn -0.6927 -0.0408 0.7200
vn 0.0066 -0.0250 0.9997
vn 0.7269 0.0748 0.6827
vn -0.7115 0.0161 -0.7025
usemtl STFence_MAT
s 1
f 4/1/1 10/2/2 9/3/3 3/4/4
f 33/5/5 57/6/6 58/7/7 66/8/8
f 16/9/9 50/10/10 18/11/11 52/12/12
f 42/13/13 34/14/14 21/15/15 29/16/16
f 22/17/17 7/18/18 8/19/19 38/20/20
f 7/21/18 11/22/21 12/23/22 8/24/19
f 25/25/23 34/14/14 42/13/13 27/26/24
f 56/27/25 13/28/26 59/29/27 60/30/28
f 4/31/1 3/32/4 14/33/29 61/34/30
f 39/35/31 35/36/32 22/17/17 38/20/20
f 39/35/31 38/20/20 40/37/33 41/38/34
f 17/39/35 53/40/36 33/5/5 55/41/37
f 64/42/38 63/43/39 19/44/40 60/30/28
f 41/38/34 48/45/41 44/46/42 39/35/31
f 47/47/43 46/48/44 52/12/12 30/49/45
f 8/19/19 12/50/22 40/37/33 38/20/20
f 17/51/35 49/52/46 15/53/47 51/54/48
f 30/49/45 53/40/36 17/39/35 51/55/48
f 29/16/16 22/17/17 35/36/32 42/13/13
f 31/56/49 61/34/30 62/57/50 64/42/38
f 59/29/27 31/56/49 64/42/38 60/30/28
f 27/26/24 42/13/13 35/36/32 26/58/51
f 34/59/14 25/60/23 43/61/52 37/62/53
f 40/37/33 36/63/54 37/62/53 41/38/34
f 50/10/10 16/9/9 54/64/55 32/65/56
f 61/34/30 31/56/49 10/66/2 4/31/1
f 59/29/27 13/28/26 1/67/57 2/68/58
f 46/48/44 26/58/51 44/46/42 24/69/59
f 62/57/50 20/70/60 63/43/39 64/42/38
f 11/71/21 7/18/18 22/17/17 29/16/16
f 29/16/16 21/15/15 5/72/61 11/71/21
f 47/47/43 27/26/24 26/58/51 46/48/44
f 43/61/52 23/73/62 28/74/63 48/45/41
f 43/61/52 25/60/23 45/75/64 23/73/62
f 54/64/55 16/9/9 24/69/59 28/74/63
f 16/9/9 52/12/12 46/48/44 24/69/59
f 56/76/25 66/8/8 65/77/65 13/78/26
f 19/44/40 55/79/37 56/27/25 60/30/28
f 36/63/54 21/80/15 34/59/14 37/62/53
f 15/53/47 23/73/62 45/75/64 51/54/48
f 32/65/56 54/64/55 15/53/47 49/52/46
f 57/6/6 33/5/5 53/40/36 18/11/11
f 26/58/51 35/36/32 39/35/31 44/46/42
f 55/79/37 19/44/40 49/52/46 17/51/35
f 65/77/65 14/33/29 3/32/4 9/81/3
f 33/5/5 66/8/8 56/76/25 55/41/37
f 23/73/62 15/53/47 54/64/55 28/74/63
f 50/10/10 32/65/56 63/43/39 20/70/60
f 63/43/39 32/65/56 49/52/46 19/44/40
f 18/11/11 50/10/10 20/70/60 57/6/6
f 65/77/65 66/8/8 58/7/7 14/33/29
f 65/77/65 9/81/3 1/82/57 13/78/26
f 2/83/58 1/84/57 9/3/3 10/2/2
f 11/22/21 5/85/61 6/86/66 12/23/22
f 36/63/54 40/37/33 12/50/22 6/87/66
f 10/66/2 31/56/49 59/29/27 2/68/58
f 24/69/59 44/46/42 48/45/41 28/74/63
f 51/55/48 45/88/64 47/47/43 30/49/45
f 57/6/6 20/70/60 62/57/50 58/7/7
f 5/89/61 21/80/15 36/63/54 6/87/66
f 61/34/30 14/33/29 58/7/7 62/57/50
f 27/26/24 47/47/43 45/88/64 25/25/23
f 53/40/36 30/49/45 52/12/12 18/11/11
f 43/61/52 48/45/41 41/38/34 37/62/53
f 88/90/67 86/91/68 80/92/69 82/93/70
f 75/94/71 76/95/72 68/96/73 67/97/74
f 69/98/75 70/99/76 76/95/72 75/94/71
f 110/100/77 69/101/75 75/102/71 114/103/78
f 93/104/79 95/105/80 102/106/81 97/107/82
f 76/108/72 70/109/76 112/110/83 113/111/84
f 104/112/85 112/110/83 110/100/77 106/113/86
f 96/114/87 92/115/88 88/90/67 89/116/89
f 100/117/90 92/115/88 96/114/87 101/118/91
f 81/119/92 79/120/93 85/121/94 87/122/95
f 112/110/83 70/109/76 69/101/75 110/100/77
f 77/123/96 71/124/97 72/125/98 78/126/99
f 77/123/96 78/126/99 74/127/100 73/128/101
f 73/129/101 80/92/69 84/130/102 77/131/96
f 90/132/103 86/91/68 94/133/104 95/105/80
f 93/104/79 85/134/94 90/132/103 95/105/80
f 89/116/89 83/135/105 81/119/92 87/122/95
f 104/112/85 108/136/106 113/111/84 112/110/83
f 82/93/70 83/135/105 89/116/89 88/90/67
f 100/117/90 104/112/85 106/113/86 98/137/107
f 106/113/86 110/100/77 114/103/78 107/138/108
f 105/139/109 107/138/108 114/103/78 109/140/110
f 94/133/104 92/115/88 100/117/90 98/137/107
f 87/122/95 85/121/94 93/141/79 91/142/111
f 104/112/85 100/117/90 101/118/91 108/136/106
f 96/114/87 91/142/111 99/143/112 101/118/91
f 84/130/102 80/92/69 86/91/68 90/132/103
f 81/119/92 83/135/105 78/144/99 72/145/98
f 111/146/113 103/147/114 105/148/109 109/149/110
f 86/91/68 88/90/67 92/115/88 94/133/104
f 68/150/73 76/108/72 113/111/84 111/146/113
f 82/93/70 80/92/69 73/129/101 74/151/100
f 111/146/113 109/149/110 67/152/74 68/150/73
f 96/114/87 89/116/89 87/122/95 91/142/111
f 81/119/92 72/145/98 71/153/97 79/120/93
f 108/136/106 101/118/91 99/143/112 103/147/114
f 97/107/82 102/106/81 107/138/108 105/139/109
f 98/137/107 106/113/86 107/138/108 102/106/81
f 113/111/84 108/136/106 103/147/114 111/146/113
f 103/147/114 99/143/112 97/154/82 105/148/109
f 94/133/104 98/137/107 102/106/81 95/105/80
f 67/155/74 109/140/110 114/103/78 75/102/71
f 84/130/102 79/156/93 71/157/97 77/131/96
f 83/135/105 82/93/70 74/151/100 78/144/99
f 85/134/94 79/156/93 84/130/102 90/132/103
f 91/142/111 93/141/79 97/154/82 99/143/112
f 139/158/115 138/159/116 163/160/117 147/161/118
f 128/162/119 159/163/120 125/164/121 118/165/122
f 159/163/120 128/162/119 122/166/123 131/167/124
f 159/163/120 131/167/124 120/168/125 134/169/126
f 163/160/117 125/170/121 116/171/127 124/172/128
f 145/173/129 153/174/130 154/175/131 146/176/132
f 124/172/128 137/177/133 147/161/118 163/160/117
f 135/178/134 136/179/135 157/180/136 158/181/137
f 124/172/128 160/182/138 156/183/139 137/177/133
f 121/184/140 129/185/141 152/186/142 127/187/143
f 143/188/144 142/189/145 150/190/146 151/191/147
f 143/188/144 154/175/131 153/174/130 142/189/145
f 162/192/148 138/193/116 139/194/115 150/190/146
f 140/195/149 139/158/115 147/161/118 148/196/150
f 145/173/129 144/197/151 161/198/152 153/174/130
f 152/186/142 126/199/153 117/200/154 127/187/143
f 132/201/155 158/181/137 157/180/136 146/176/132
f 140/202/149 151/191/147 150/190/146 139/194/115
f 126/203/153 140/195/149 148/196/150 149/204/156
f 155/205/157 129/185/141 121/184/140 130/206/158
f 117/207/154 126/203/153 149/204/156 123/208/159
f 129/185/141 143/188/144 151/191/147 152/186/142
f 129/185/141 155/205/157 154/175/131 143/188/144
f 158/181/137 132/201/155 119/209/160 133/210/161
f 149/204/156 135/178/134 115/211/162 123/208/159
f 137/177/133 136/179/135 148/196/150 147/161/118
f 119/209/160 132/201/155 155/205/157 130/206/158
f 136/179/135 135/178/134 149/204/156 148/196/150
f 142/189/145 141/212/163 162/192/148 150/190/146
f 145/173/129 156/183/139 160/182/138 144/197/151
f 135/178/134 158/181/137 133/210/161 115/211/162
f 144/197/151 160/182/138 134/213/126 120/214/125
f 131/215/124 122/216/123 141/212/163 161/198/152
f 136/179/135 137/177/133 156/183/139 157/180/136
f 128/217/119 118/218/122 138/193/116 162/192/148
f 142/189/145 153/174/130 161/198/152 141/212/163
f 132/201/155 146/176/132 154/175/131 155/205/157
f 124/172/128 116/171/127 134/213/126 160/182/138
f 146/176/132 157/180/136 156/183/139 145/173/129
f 134/169/126 116/219/127 125/164/121 159/163/120
f 120/214/125 131/215/124 161/198/152 144/197/151
f 126/199/153 152/186/142 151/191/147 140/202/149
f 122/216/123 128/217/119 162/192/148 141/212/163
f 118/220/122 125/170/121 163/160/117 138/159/116
