# Blender v2.93.5 OBJ File: ''
# www.blender.org
mtllib fence_plank2.mtl
o STPlank2_Plano.017
v 0.696593 0.609324 0.101126
v 0.683498 0.610648 0.140642
v 0.690278 0.706905 0.104825
v 0.682559 0.710575 0.140084
v -0.705697 0.610826 0.103884
v -0.698828 0.615484 0.139742
v -0.695906 0.716577 0.103157
v -0.695708 0.715586 0.147945
v 0.697751 0.661928 0.092684
v 0.679895 0.656369 0.146994
v -0.700125 0.662917 0.096353
v -0.695779 0.662786 0.148662
v 0.657182 0.607994 0.097462
v 0.654905 0.712476 0.101017
v 0.058860 0.605042 0.152255
v 0.059038 0.716953 0.155477
v 0.298203 0.598991 0.096181
v 0.298361 0.719558 0.095193
v 0.418171 0.606656 0.151916
v 0.417817 0.701727 0.142759
v -0.659833 0.606570 0.095863
v -0.660100 0.725957 0.096539
v -0.061014 0.613675 0.151283
v -0.060978 0.716605 0.154237
v -0.300363 0.614632 0.098135
v -0.300373 0.729161 0.096082
v -0.300347 0.669683 0.080904
v -0.061067 0.663658 0.155819
v -0.660150 0.665209 0.082073
v 0.058779 0.662817 0.083390
v 0.657385 0.651367 0.154107
v 0.298047 0.656291 0.154268
v 0.417717 0.658246 0.082771
v -0.539843 0.607767 0.095005
v -0.539849 0.726549 0.098703
v -0.658960 0.612688 0.155231
v -0.539512 0.612866 0.154916
v -0.659030 0.722751 0.154011
v -0.539810 0.722901 0.150327
v -0.660816 0.664162 0.160819
v -0.540041 0.667137 0.156716
v -0.539805 0.667419 0.081345
v -0.300394 0.612855 0.152850
v -0.300466 0.722488 0.151972
v -0.060954 0.607321 0.096239
v -0.060986 0.722812 0.095899
v -0.060937 0.665087 0.082817
v -0.300558 0.669215 0.159438
v 0.298680 0.601475 0.153951
v 0.298034 0.706932 0.142338
v 0.058745 0.603649 0.096091
v 0.058782 0.721225 0.096057
v 0.298194 0.658296 0.086053
v 0.058731 0.662111 0.155418
v 0.417887 0.605755 0.097098
v 0.537537 0.612021 0.098560
v 0.418045 0.715255 0.097041
v 0.537652 0.717124 0.096812
v 0.657743 0.609748 0.148735
v 0.538094 0.609052 0.150864
v 0.657430 0.712551 0.143806
v 0.537495 0.696829 0.141796
v 0.417586 0.653801 0.152064
v 0.537374 0.642730 0.149845
v 0.657604 0.656139 0.080986
v 0.537641 0.650747 0.079306
vt 0.054160 0.869448
vt 0.024516 0.870423
vt 0.030575 0.839878
vt 0.054160 0.849779
vt 0.960833 0.153699
vt 0.927970 0.154771
vt 0.926402 0.089170
vt 0.963134 0.087907
vt 0.902166 0.351502
vt 0.903415 0.221889
vt 0.930039 0.221145
vt 0.934103 0.351217
vt 0.966088 0.678460
vt 0.999779 0.680619
vt 0.993555 0.746948
vt 0.961932 0.741657
vt 0.931387 0.736758
vt 0.929543 0.756914
vt 0.904237 0.755394
vt 0.903928 0.735826
vt 0.112195 0.865187
vt 0.082950 0.868327
vt 0.083586 0.839878
vt 0.112195 0.840899
vt 0.999194 0.547663
vt 0.967361 0.547747
vt 0.821534 0.086828
vt 0.825517 0.021457
vt 0.852475 0.025250
vt 0.850684 0.088083
vt 0.906629 0.012741
vt 0.926273 0.009325
vt 0.926412 0.028334
vt 0.905201 0.025906
vt 0.904956 0.677016
vt 0.932590 0.677093
vt 0.875450 0.738637
vt 0.875105 0.677495
vt 0.996808 0.218246
vt 0.963805 0.219568
vt 0.990804 0.152660
vt 0.869327 0.088743
vt 0.874593 0.155352
vt 0.848291 0.154738
vt 0.874243 0.548090
vt 0.903441 0.547998
vt 0.966852 0.416068
vt 0.934172 0.416673
vt 0.966691 0.350331
vt 0.875232 0.758122
vt 0.813531 0.219280
vt 0.845113 0.220127
vt 0.842232 0.349494
vt 0.811767 0.349918
vt 0.999779 0.349275
vt 0.874052 0.025151
vt 0.899547 0.088793
vt 0.933916 0.547894
vt 0.813186 0.680453
vt 0.813178 0.548188
vt 0.843193 0.548188
vt 0.846023 0.678319
vt 0.850304 0.738192
vt 0.872913 0.350675
vt 0.874958 0.221195
vt 0.876890 0.012475
vt 0.830922 0.000221
vt 0.851415 0.010765
vt 0.901731 0.416531
vt 0.901578 0.155458
vt 0.959404 0.764331
vt 0.987626 0.772123
vt 0.844319 0.415714
vt 0.872240 0.416222
vt 0.813492 0.415835
vt 0.986444 0.086910
vt 0.956793 0.025005
vt 0.983711 0.022135
vt 0.817757 0.153282
vt 0.820752 0.744703
vt 0.951363 0.003436
vt 0.980602 0.000451
vt 0.000221 0.864111
vt 0.001735 0.841582
vt 0.054602 0.863892
vt 0.057796 0.844195
vt 0.848934 0.759821
vt 0.999569 0.415276
vt 0.830787 0.767800
vn 0.5894 0.6115 0.5280
vn 0.6621 0.0337 0.7486
vn 0.8316 0.0647 -0.5516
vn 0.7061 0.6085 -0.3621
vn -0.0064 -0.0241 -0.9997
vn 0.0140 0.8684 -0.4956
vn -0.0083 0.8752 -0.4837
vn 0.0021 -0.0586 -0.9983
vn 0.0204 0.6840 0.7292
vn 0.0340 0.6927 0.7205
vn 0.0244 0.8336 -0.5518
vn 0.0156 0.8112 -0.5846
vn 0.0003 0.0096 -1.0000
vn 0.0089 -0.8061 -0.5917
vn -0.1131 -0.7963 -0.5942
vn -0.1364 0.0133 -0.9906
vn -0.1566 0.7910 -0.5914
vn -0.6995 0.5689 -0.4325
vn -0.6795 0.5218 0.5158
vn -0.1370 0.7143 0.6863
vn -0.7951 0.0312 -0.6057
vn -0.7611 0.0103 0.6486
vn 0.0016 -0.8023 -0.5969
vn 0.0010 -0.0037 -1.0000
vn 0.0051 -0.8179 -0.5753
vn 0.0725 -0.8095 -0.5827
vn 0.1147 -0.7062 0.6987
vn 0.0104 -0.7185 0.6955
vn 0.0837 0.8352 -0.5436
vn 0.0792 0.7251 0.6841
vn 0.0045 0.7256 0.6881
vn -0.0043 0.8197 -0.5727
vn -0.1413 -0.0044 0.9900
vn 0.0100 0.0244 0.9997
vn 0.0101 -0.7901 -0.6129
vn 0.0005 -0.0086 -1.0000
vn 0.0229 -0.8004 -0.5990
vn -0.0022 0.0654 0.9979
vn 0.0178 0.0982 0.9950
vn 0.0417 -0.7014 0.7116
vn 0.0010 0.0089 1.0000
vn 0.0052 0.7103 0.7039
vn 0.0013 -0.0078 -1.0000
vn 0.0149 0.8118 -0.5837
vn 0.0027 -0.0031 -1.0000
vn 0.0169 -0.7058 0.7082
vn -0.0256 -0.7122 0.7015
vn -0.0232 -0.7921 -0.6099
vn 0.1216 0.0261 0.9922
vn -0.0164 0.6433 0.7655
vn 0.0068 0.8227 -0.5684
vn 0.0033 -0.7267 0.6869
vn 0.0128 -0.7101 0.7040
vn -0.1302 -0.6756 0.7256
vn 0.0058 0.0060 1.0000
vn 0.0158 0.0721 0.9973
vn 0.7190 -0.6055 -0.3411
vn 0.5834 -0.6078 0.5387
vn 0.0101 0.6861 0.7274
vn 0.0253 0.6599 0.7509
vn -0.7206 -0.5828 -0.3757
vn -0.0198 -0.7116 0.7023
vn 0.0015 -0.0198 0.9998
vn -0.0243 -0.8032 -0.5953
vn 0.1104 -0.0116 -0.9938
vn -0.6729 -0.5542 0.4900
usemtl STFence_MAT
s 1
f 4/1/1 10/2/2 9/3/3 3/4/4
f 33/5/5 57/6/6 58/7/7 66/8/8
f 16/9/9 50/10/10 18/11/11 52/12/12
f 42/13/13 34/14/14 21/15/15 29/16/16
f 22/17/17 7/18/18 8/19/19 38/20/20
f 7/21/18 11/22/21 12/23/22 8/24/19
f 25/25/23 34/14/14 42/13/13 27/26/24
f 56/27/25 13/28/26 59/29/27 60/30/28
f 4/31/1 3/32/4 14/33/29 61/34/30
f 39/35/31 35/36/32 22/17/17 38/20/20
f 39/35/31 38/20/20 40/37/33 41/38/34
f 17/39/35 53/40/36 33/5/5 55/41/37
f 64/42/38 63/43/39 19/44/40 60/30/28
f 41/38/34 48/45/41 44/46/42 39/35/31
f 47/47/43 46/48/44 52/12/12 30/49/45
f 8/19/19 12/50/22 40/37/33 38/20/20
f 17/51/35 49/52/46 15/53/47 51/54/48
f 30/49/45 53/40/36 17/39/35 51/55/48
f 29/16/16 22/17/17 35/36/32 42/13/13
f 31/56/49 61/34/30 62/57/50 64/42/38
f 59/29/27 31/56/49 64/42/38 60/30/28
f 27/26/24 42/13/13 35/36/32 26/58/51
f 34/59/14 25/60/23 43/61/52 37/62/53
f 40/37/33 36/63/54 37/62/53 41/38/34
f 50/10/10 16/9/9 54/64/55 32/65/56
f 61/34/30 31/56/49 10/66/2 4/31/1
f 59/29/27 13/28/26 1/67/57 2/68/58
f 46/48/44 26/58/51 44/46/42 24/69/59
f 62/57/50 20/70/60 63/43/39 64/42/38
f 11/71/21 7/18/18 22/17/17 29/16/16
f 29/16/16 21/15/15 5/72/61 11/71/21
f 47/47/43 27/26/24 26/58/51 46/48/44
f 43/61/52 23/73/62 28/74/63 48/45/41
f 43/61/52 25/60/23 45/75/64 23/73/62
f 54/64/55 16/9/9 24/69/59 28/74/63
f 16/9/9 52/12/12 46/48/44 24/69/59
f 56/76/25 66/8/8 65/77/65 13/78/26
f 19/44/40 55/79/37 56/27/25 60/30/28
f 36/63/54 21/80/15 34/59/14 37/62/53
f 15/53/47 23/73/62 45/75/64 51/54/48
f 32/65/56 54/64/55 15/53/47 49/52/46
f 57/6/6 33/5/5 53/40/36 18/11/11
f 26/58/51 35/36/32 39/35/31 44/46/42
f 55/79/37 19/44/40 49/52/46 17/51/35
f 65/77/65 14/33/29 3/32/4 9/81/3
f 33/5/5 66/8/8 56/76/25 55/41/37
f 23/73/62 15/53/47 54/64/55 28/74/63
f 50/10/10 32/65/56 63/43/39 20/70/60
f 63/43/39 32/65/56 49/52/46 19/44/40
f 18/11/11 50/10/10 20/70/60 57/6/6
f 65/77/65 66/8/8 58/7/7 14/33/29
f 65/77/65 9/81/3 1/82/57 13/78/26
f 2/83/58 1/84/57 9/3/3 10/2/2
f 11/22/21 5/85/61 6/86/66 12/23/22
f 36/63/54 40/37/33 12/50/22 6/87/66
f 10/66/2 31/56/49 59/29/27 2/68/58
f 24/69/59 44/46/42 48/45/41 28/74/63
f 51/55/48 45/88/64 47/47/43 30/49/45
f 57/6/6 20/70/60 62/57/50 58/7/7
f 5/89/61 21/80/15 36/63/54 6/87/66
f 61/34/30 14/33/29 58/7/7 62/57/50
f 27/26/24 47/47/43 45/88/64 25/25/23
f 53/40/36 30/49/45 52/12/12 18/11/11
f 43/61/52 48/45/41 41/38/34 37/62/53
