# Blender v2.93.5 OBJ File: ''
# www.blender.org
mtllib rock2.mtl
o Stone_low_Cube.027
v -4.747385 0.000000 1.085291
v -0.083511 0.000001 4.250215
v -0.216137 0.000001 4.728621
v -4.668599 0.000000 1.865424
v -5.017261 0.950842 1.247514
v -4.979372 0.000000 1.467822
v -4.874523 0.889417 1.060631
v -4.778662 1.304180 2.153201
v -4.703067 1.364926 1.123930
v -4.869772 0.845263 2.121637
v -4.233893 1.107007 1.308848
v -4.203334 1.462779 2.819169
v -3.726913 1.544002 2.960765
v -3.670850 1.409346 1.728076
v -3.936404 1.191556 1.246332
v -3.652630 0.000001 3.264406
v -3.676971 1.922450 2.928059
v -3.753008 1.465218 3.299555
v -3.419144 1.889435 3.090586
v -3.765538 0.931698 3.370636
v -3.465189 1.516541 3.621114
v -3.510098 1.514670 3.116779
v -2.776852 1.367123 4.208881
v -2.263678 0.000001 4.510736
v -2.385021 1.294446 4.651544
v -2.472828 1.498886 4.011967
v -2.562554 1.561931 3.705022
v -2.750267 2.082405 3.598195
v -2.376378 0.713172 4.686676
v -2.835783 2.144395 3.363182
v -2.107783 2.090356 3.108346
v -1.831567 3.035027 3.217015
v -3.857025 1.413693 1.680609
v -3.652460 1.650981 1.646108
v -3.669935 1.775006 2.340544
v -3.260172 1.737687 1.865083
v -2.953521 1.895817 2.529345
v -2.871501 1.732894 1.629868
v -3.092010 1.985301 2.944577
v -3.001311 1.744336 2.054146
v -2.548235 1.710502 1.944141
v -2.619250 1.673409 1.634940
v -3.919369 2.579329 1.170168
v -3.805613 2.758056 1.309643
v -2.501544 3.997856 0.890641
v -2.537611 2.541404 1.308140
v -2.526543 2.412711 2.671702
v -2.468282 3.840330 2.569898
v -2.425203 1.955843 2.743926
v -2.192750 2.069620 2.840151
v -2.286367 2.994671 2.795095
v -1.835083 3.344535 2.734785
v -2.479364 4.725352 2.228240
v -2.550331 3.991035 1.104099
v -2.290783 5.358509 2.205046
v -2.084054 5.888958 2.078888
v -2.139699 5.885044 1.799246
v -1.685284 1.242470 4.707436
v -0.968663 0.943393 4.671868
v -1.017469 2.035202 3.663066
v -0.366986 0.659433 4.776224
v -0.196472 0.582582 4.323671
v -0.429074 0.886794 3.869892
v -1.663998 2.924237 3.291531
v -1.831947 2.118387 3.233318
v -1.547632 3.902709 3.437805
v 0.002859 3.484012 3.482693
v -0.228063 2.034894 3.135212
v -1.531796 4.107134 3.367983
v -0.112278 4.718822 3.144458
v -1.991203 5.735869 1.930476
v -1.658024 4.134065 2.643148
v -1.134783 5.167964 2.365943
v -1.012139 5.656631 2.000654
v -1.042556 5.892967 2.175150
v 0.268669 5.486860 2.122861
v -0.530986 4.584939 2.537988
v 0.016923 5.869757 2.276189
v 0.192429 5.188115 2.440741
v -1.654599 6.925540 1.727558
v -1.936799 5.920589 0.378087
v -1.499011 7.067428 0.483801
v -1.350119 7.201162 1.513737
v -1.564760 7.323019 1.643719
v -1.431935 7.698120 1.745057
v -1.530778 7.769168 1.341726
v -1.154994 7.349657 0.323560
v -0.986366 8.140927 0.421500
v -0.225509 6.810690 1.916687
v -0.293311 7.517901 1.964710
v -0.086677 7.972598 1.780151
v -0.090617 7.234874 1.899425
v 0.006573 8.160884 0.914705
v -2.104231 -0.000001 -5.713973
v 0.225015 -0.000000 -0.707329
v 0.780468 -0.000001 -6.263112
v -5.855681 0.606611 -1.459199
v -6.007728 0.464279 -1.258746
v -6.032053 -0.000000 -1.152013
v -5.768084 0.781959 -0.510226
v -5.541388 0.000000 0.550107
v -5.587188 1.106882 -0.001080
v -5.187793 1.336425 -0.700184
v -5.367401 1.269680 0.681253
v -5.023375 1.624067 0.854234
v -3.961888 1.697292 0.766597
v -4.020959 2.294539 0.040698
v -4.040149 2.118312 -0.723769
v -5.330336 0.891254 -2.502233
v -4.851800 -0.000001 -3.157167
v -4.188126 1.821319 -2.092327
v -4.562887 1.485774 -2.369685
v -3.935658 1.602567 -3.485275
v -4.183982 1.782435 -2.190530
v -4.089165 3.640861 -1.142060
v -4.500682 1.148998 -3.503560
v -4.364234 -0.000001 -3.608136
v -2.930710 -0.000001 -3.732780
v -3.715306 1.539863 -3.630087
v -3.852587 4.296577 0.759979
v -3.736356 4.893458 -0.854113
v -3.602274 6.248736 -0.255413
v -3.571937 5.102114 0.374457
v -3.538128 5.554978 0.252690
v -3.314570 5.219686 0.007331
v -2.511194 5.204889 0.412945
v -2.478316 4.477520 0.659984
v -2.810211 5.254046 0.030502
v -2.437026 5.891586 0.231712
v -2.187709 5.153392 0.363499
v -1.942752 5.787624 0.177660
v -2.034729 5.349499 0.061287
v -3.456014 6.592393 -0.023914
v -3.087781 6.942642 -0.165214
v -3.884021 3.630414 -2.530558
v -2.879412 2.874633 -3.299762
v -2.906218 2.463200 -3.285185
v -3.679441 4.705316 -2.583569
v -4.038223 3.303321 -2.156752
v -3.570477 5.300181 -2.714401
v -3.652064 5.512106 -0.881132
v -3.523147 5.880991 -2.797800
v -3.336478 5.937159 -2.969137
v -3.258154 4.896263 -2.677778
v -2.832823 4.624382 -3.417052
v -2.846477 5.272778 -3.347949
v -2.568524 4.884177 -3.177435
v -3.366090 6.847322 -2.168268
v -3.178283 6.942279 -2.112656
v -2.983854 6.768041 -2.513391
v -2.191202 6.840040 -2.706766
v -3.151319 2.206959 -3.839945
v -2.918381 0.705907 -3.684782
v -2.917894 1.742884 -3.847628
v -2.877535 -0.000001 -5.307886
v -2.780531 1.962587 -3.917030
v -2.896169 1.499249 -4.489418
v -2.494686 1.908071 -4.154101
v -2.431290 1.754103 -4.463234
v -1.849350 1.955559 -3.934282
v -2.601118 3.486057 -3.520073
v -2.533582 2.410575 -3.445049
v -2.328995 2.627909 -3.462020
v -2.795485 2.321733 -3.866299
v -2.340401 3.842199 -3.725495
v -1.725479 2.293162 -3.436048
v -1.859544 2.134378 -3.916021
v -2.672744 4.654876 -3.426399
v -2.002152 5.385766 -4.038475
v -2.139038 4.654748 -3.877199
v -1.297388 6.074416 -3.878642
v -2.785576 0.748768 -5.491047
v -2.486736 1.192444 -5.065443
v -1.790830 5.721475 0.282642
v -1.447708 7.015278 -0.271126
v -1.389814 7.861588 0.473416
v -0.939326 7.795459 -1.693649
v -0.794369 7.592375 -1.545295
v -0.818147 8.437233 -1.087297
v 0.002444 8.479775 -1.140883
v -1.192304 7.095735 -1.642759
v -1.633185 7.035629 -1.980955
v -1.007005 7.414825 -1.751138
v -1.014073 6.955708 -1.950359
v -0.157485 7.511152 -1.563143
v -1.009866 8.303076 -1.580224
v -0.836622 8.201199 -1.771726
v -0.447767 8.432751 -1.721586
v 0.188707 8.388287 -1.715846
v -0.943149 1.860063 -3.994987
v -1.110760 1.463613 -4.933242
v -0.692075 1.718833 -4.477850
v 0.650262 1.718038 -4.488369
v -0.991430 2.098673 -3.751625
v -1.021735 1.917806 -3.887403
v -1.215345 3.438827 -3.758362
v 0.027186 2.912092 -3.520235
v -0.872605 2.190637 -3.373604
v -0.975956 2.162351 -3.907796
v 0.040684 2.246564 -3.370169
v -1.315153 4.681485 -3.951485
v -1.798429 4.911461 -3.724351
v -1.278610 5.295794 -4.019377
v -1.220086 5.682208 -4.124942
v -0.610253 5.884925 -4.145007
v 0.025338 5.347491 -4.017474
v 1.529370 5.204966 -3.718626
v -1.233779 6.273363 -3.657244
v -0.937596 6.622694 -2.803836
v 0.088154 5.926503 -3.951210
v -1.125245 0.322927 -6.185046
v -0.984516 -0.000001 -6.164860
v -0.202575 0.594668 -6.160782
v 0.686294 0.626149 -6.211525
v 3.802611 0.000001 4.248640
v 4.433082 0.000001 3.154479
v 4.826044 0.000000 2.522104
v 0.408939 0.810662 5.089780
v 1.034634 1.231115 5.320093
v 0.811531 1.228464 5.020210
v 0.844341 0.546339 5.400287
v 1.087516 0.000001 5.335224
v 2.131276 0.000001 5.161736
v 2.066189 1.861333 5.125742
v 1.918225 1.952824 5.056364
v 0.351288 0.000001 4.807971
v -0.076320 0.790898 3.909624
v 0.699656 1.398889 3.942831
v 0.873385 1.451353 4.391889
v 1.278303 1.698014 4.536754
v 1.256655 1.881632 3.970389
v -0.276979 1.996654 3.606453
v 1.721221 3.439191 3.488671
v 0.738458 3.215391 3.440787
v 1.633898 2.975201 4.760474
v 1.314494 2.126805 3.830462
v 1.314045 2.096842 3.281469
v 1.602611 3.228581 3.527682
v 1.858225 2.057702 4.534168
v 1.663566 3.275887 4.100674
v 1.213611 4.323949 3.258239
v 1.203091 4.475789 3.047733
v -0.011732 4.798196 2.568467
v 0.647522 4.617739 2.597160
v 1.356532 5.747388 2.275059
v 2.265562 4.266456 2.735215
v 2.434909 5.215496 2.173801
v 0.087808 7.085963 1.706083
v 0.981216 7.181037 1.877206
v 0.819951 7.993968 1.774761
v 0.725478 6.960238 1.686009
v 1.147727 6.602340 1.938001
v 1.162193 7.668382 1.899512
v 2.442139 6.451879 2.015042
v 2.375246 7.419398 1.909642
v 2.071981 8.047602 1.248727
v 0.465515 8.153324 1.281568
v 2.796570 1.489461 4.969440
v 3.323820 0.000001 4.872608
v 3.140805 2.077178 4.278881
v 3.404338 1.245542 4.761631
v 3.070819 3.384430 4.369707
v 2.785722 2.127650 4.398245
v 2.813809 3.253011 4.589155
v 2.424254 3.578835 3.457206
v 3.460235 3.318397 3.919268
v 3.337441 2.517489 4.145691
v 3.394447 2.159395 3.733784
v 3.621180 3.198403 3.926862
v 3.577484 2.218806 3.230811
v 3.691182 3.136768 3.640129
v 4.237867 1.784339 3.637304
v 3.768016 2.770626 3.028514
v 3.782616 3.291877 3.152461
v 2.619525 4.103974 3.268536
v 3.864640 1.724869 1.415299
v 3.877258 1.803666 1.314353
v 3.783904 1.723692 0.950592
v 3.739609 1.900615 1.828674
v 4.495949 2.001036 1.954881
v 3.228733 3.490170 2.358475
v 3.103316 4.057668 2.431687
v 3.200061 4.082299 1.296474
v 3.255431 3.571807 1.405448
v 3.540456 3.512558 1.439277
v 3.721073 3.459916 1.650009
v 3.525790 3.519031 1.113778
v 3.780320 2.079448 2.302944
v 3.989267 3.185423 2.743689
v 4.257275 3.301042 1.709344
v 4.019041 3.404974 1.390001
v 3.956136 3.434334 0.784608
v 4.238708 3.339730 1.181516
v 2.630122 5.635470 2.343709
v 2.733143 4.181402 2.647892
v 2.542852 5.221276 1.043062
v 2.674402 5.661918 1.489015
v 2.580360 5.114553 2.501269
v 2.806537 4.214960 1.790365
v 2.748716 4.263889 0.511881
v 2.327800 6.824381 1.854560
v 2.203287 6.693253 1.690601
v 2.338615 6.884925 0.248230
v 2.542999 7.080198 1.714773
v 2.607224 7.453141 1.653201
v 2.549445 6.666156 0.298249
v 2.705699 7.970989 0.926843
v 4.339147 0.845132 3.498534
v 4.439738 1.325915 3.478905
v 4.671536 1.638648 2.917302
v 4.355271 2.063804 2.317436
v 5.351483 1.708648 1.192475
v 5.255432 1.650575 2.027631
v 5.420637 0.000000 1.638105
v 5.448284 1.435148 1.685253
v 5.453010 1.709023 1.455173
v 4.313248 3.288541 0.541233
v 4.064169 -0.000000 -1.569296
v 2.036235 -0.000001 -4.962454
v 5.206725 -0.000000 -0.247887
v 4.854602 -0.000000 -1.700751
v 4.617729 -0.000001 -3.889092
v 1.204887 8.230089 0.894524
v 0.699420 8.284557 -1.638762
v 0.926315 8.364933 -0.295693
v 2.292362 8.111651 -0.177376
v 1.282469 7.122824 -1.677000
v 0.790767 6.653480 -1.919730
v 1.022464 6.045334 -3.459120
v 0.814056 7.595219 -1.674899
v 1.023812 7.306407 -1.521497
v 2.440281 7.377340 -1.571525
v 2.269281 7.947083 -1.582210
v 0.697654 1.621080 -4.833600
v 1.207499 1.415916 -5.241151
v 2.064959 0.790745 -4.942513
v 1.948564 1.438522 -4.866720
v 0.540059 2.109928 -4.399549
v 1.703920 4.398996 -3.881505
v 0.735314 4.363645 -3.865596
v 1.445083 2.217958 -3.425301
v 1.311778 2.155662 -4.062324
v 1.518280 2.408086 -3.798207
v 1.417437 2.520575 -3.485039
v 1.800141 3.792084 -3.689392
v 1.500445 2.733153 -4.105741
v 1.705104 3.504625 -4.191990
v 1.947817 2.618234 -3.872623
v 2.096820 2.551124 -4.163655
v 1.689860 3.663148 -3.931670
v 2.475485 2.105731 -4.123869
v 3.220600 3.579302 -4.166808
v 2.113267 1.976373 -4.830967
v 1.642469 4.916423 -3.885850
v 0.907903 5.485988 -4.082115
v 1.265235 5.675641 -3.964460
v 1.848157 5.482557 -3.810558
v 1.057338 1.028135 -5.721898
v 1.294265 0.315416 -5.734106
v 1.425319 1.267631 -5.418404
v 4.170953 2.257437 0.775452
v 4.015449 1.758892 0.423233
v 3.903776 1.370026 0.500016
v 4.284835 1.840116 -0.331104
v 4.103331 1.983496 -0.308011
v 4.022847 1.279124 0.259200
v 3.224209 3.540673 0.773737
v 3.621574 3.471695 0.809318
v 4.028286 2.495164 -0.702635
v 4.242811 2.647168 -0.276564
v 4.034626 3.446108 0.082457
v 4.057663 3.530681 -1.114655
v 4.339951 3.137906 -2.867322
v 2.519272 5.234400 0.153639
v 2.626763 5.489141 0.004263
v 2.723135 4.818297 0.410828
v 2.706802 5.738268 -0.262567
v 3.206706 5.962925 -0.180205
v 3.139014 4.140104 0.529090
v 3.254213 5.794187 -0.354454
v 4.064359 5.442960 0.026071
v 3.847701 5.754088 -1.225317
v 4.259898 4.229047 0.281574
v 2.580646 7.150672 0.142305
v 2.297991 7.120628 -1.442680
v 2.561371 7.349636 -1.126685
v 2.497325 6.935138 -1.588845
v 2.694214 7.862258 -0.213735
v 2.606145 6.360190 -0.279450
v 2.606803 6.563078 -1.138306
v 2.704753 5.916530 -0.084098
v 4.145352 1.754283 -2.245931
v 4.207623 0.414718 -1.562426
v 4.648065 1.237380 -2.288080
v 2.453758 3.814718 -3.014081
v 2.859994 3.801662 -2.440964
v 3.531693 3.625453 -1.620999
v 3.587337 4.129522 -1.633298
v 3.379294 3.315917 -3.888870
v 3.307514 3.758659 -3.335104
v 3.926716 3.196680 -2.864121
v 3.658866 3.328219 -4.179061
v 2.281401 5.853210 -3.207485
v 2.762758 5.486063 -2.384389
v 3.119989 5.727795 -2.456925
v 3.461378 5.683001 -1.663315
v 3.827067 5.405638 -1.426040
v 2.636732 6.422332 -1.647921
v 2.666674 7.859967 -1.414408
v 3.077516 6.062886 -2.331018
v 2.292743 6.376306 -1.911694
v 3.698650 6.142859 -1.827241
v 3.962372 5.853908 -1.432970
v 2.691884 1.648249 -5.121315
v 3.076347 1.854819 -4.084672
v 3.555671 1.301447 -4.543142
v 3.982025 1.068716 -4.374543
v 4.363582 2.856993 -3.351292
v 3.968475 1.208439 -4.047286
v 2.879141 2.942371 -4.157823
v 3.015196 3.739228 -4.099298
v 3.670779 1.891469 -4.106288
v 3.889322 3.227797 -4.205272
v 2.783072 5.099403 -2.690147
v 3.444141 0.889116 -5.310701
v 3.136560 -0.000001 -5.286755
v 4.909580 0.949091 -0.630713
v 5.195678 0.861698 -0.456317
v 4.318615 3.337385 -0.074075
v 4.399887 3.424297 -1.423437
v 4.249516 4.564234 0.295566
v 4.560603 5.215047 -0.636814
v 4.433981 5.155810 0.054584
v 4.422273 5.365661 -0.831935
v 4.167654 0.646924 -1.198695
v 4.478048 1.656042 -1.280825
v 4.679837 0.451749 -1.660549
v 4.615285 1.577085 -1.778503
v 4.890347 0.320107 -1.634419
v 4.365442 3.279540 -1.969094
v 4.197625 3.077538 -2.257993
v 4.062851 1.220204 -3.719001
v 4.276670 0.625961 -4.450847
v 4.719178 0.613811 -3.716153
v 4.641468 0.553274 -4.030494
vt 0.165483 0.909088
vt 0.170028 0.900360
vt 0.170533 0.906667
vt 0.101333 0.893590
vt 0.143213 0.839903
vt 0.163073 0.856206
vt 0.138551 0.843983
vt 0.102295 0.502136
vt 0.122032 0.496498
vt 0.117038 0.535661
vt 0.066367 0.518360
vt 0.073959 0.544168
vt 0.121117 0.546138
vt 0.172833 0.504186
vt 0.153560 0.530373
vt 0.711117 0.228646
vt 0.716364 0.242624
vt 0.686731 0.222241
vt 0.688096 0.262394
vt 0.130500 0.458899
vt 0.146469 0.438163
vt 0.181496 0.498267
vt 0.170328 0.530332
vt 0.837181 0.200095
vt 0.796577 0.224086
vt 0.813632 0.194476
vt 0.132235 0.425138
vt 0.149229 0.423145
vt 0.238241 0.841219
vt 0.246232 0.858063
vt 0.226451 0.846520
vt 0.103817 0.423564
vt 0.132158 0.403824
vt 0.234621 0.861374
vt 0.256536 0.871711
vt 0.275600 0.862996
vt 0.292145 0.832078
vt 0.282267 0.855141
vt 0.125028 0.361661
vt 0.142517 0.354613
vt 0.120022 0.337913
vt 0.126751 0.312850
vt 0.096811 0.333931
vt 0.063140 0.324798
vt 0.104263 0.232657
vt 0.299847 0.885037
vt 0.277859 0.896343
vt 0.556765 0.624574
vt 0.496565 0.649484
vt 0.549838 0.612698
vt 0.184896 0.891849
vt 0.217237 0.877420
vt 0.192758 0.902602
vt 0.177004 0.898002
vt 0.216223 0.908052
vt 0.223278 0.930787
vt 0.249568 0.891857
vt 0.234002 0.939233
vt 0.247525 0.928531
vt 0.232422 0.909430
vt 0.835552 0.266496
vt 0.889953 0.339316
vt 0.826438 0.337449
vt 0.896819 0.263111
vt 0.533197 0.595700
vt 0.523460 0.532297
vt 0.565441 0.560984
vt 0.470183 0.597251
vt 0.430827 0.585393
vt 0.452530 0.528682
vt 0.900650 0.336642
vt 0.507499 0.608453
vt 0.490234 0.628767
vt 0.404456 0.589990
vt 0.382047 0.511572
vt 0.879183 0.406749
vt 0.883543 0.366292
vt 0.798683 0.837919
vt 0.800660 0.824662
vt 0.809224 0.832566
vt 0.749090 0.812902
vt 0.811832 0.760489
vt 0.354404 0.878214
vt 0.128227 0.280614
vt 0.171409 0.254016
vt 0.154810 0.364840
vt 0.398856 0.836740
vt 0.387178 0.891349
vt 0.126526 0.252717
vt 0.142371 0.237972
vt 0.086965 0.608524
vt 0.090760 0.629983
vt 0.074103 0.635049
vt 0.122707 0.212586
vt 0.129302 0.654316
vt 0.443431 0.874970
vt 0.460490 0.917021
vt 0.072467 0.583881
vt 0.102211 0.566245
vt 0.149507 0.606420
vt 0.313429 0.884158
vt 0.562276 0.638211
vt 0.532003 0.662734
vt 0.523416 0.657899
vt 0.501559 0.689918
vt 0.493623 0.692793
vt 0.538597 0.742479
vt 0.380962 0.913409
vt 0.598444 0.706712
vt 0.561405 0.770665
vt 0.467637 0.677918
vt 0.396254 0.641647
vt 0.450882 0.630764
vt 0.365447 0.635792
vt 0.380886 0.590230
vt 0.354312 0.356355
vt 0.398265 0.371346
vt 0.352197 0.370024
vt 0.415699 0.678110
vt 0.398338 0.700276
vt 0.482623 0.751657
vt 0.454720 0.760313
vt 0.375682 0.703711
vt 0.326307 0.122137
vt 0.321963 0.103362
vt 0.341689 0.102007
vt 0.383151 0.099961
vt 0.402985 0.361554
vt 0.322264 0.307174
vt 0.389897 0.308141
vt 0.826771 0.411804
vt 0.772076 0.451954
vt 0.771946 0.435967
vt 0.811266 0.400621
vt 0.752115 0.421948
vt 0.772527 0.466069
vt 0.824882 0.424532
vt 0.922822 0.024194
vt 0.983974 0.072031
vt 0.941690 0.073233
vt 0.170080 0.920117
vt 0.163501 0.941221
vt 0.076433 0.958788
vt 0.057371 0.947689
vt 0.577788 0.140650
vt 0.632995 0.193227
vt 0.609429 0.178477
vt 0.576382 0.164507
vt 0.602867 0.215331
vt 0.665222 0.147418
vt 0.661279 0.203659
vt 0.692273 0.200055
vt 0.667339 0.222466
vt 0.605671 0.280377
vt 0.644611 0.280367
vt 0.770362 0.261875
vt 0.825696 0.259673
vt 0.737714 0.339657
vt 0.732276 0.265637
vt 0.568006 0.173547
vt 0.521717 0.198047
vt 0.471383 0.171559
vt 0.525092 0.241873
vt 0.467917 0.264302
vt 0.537345 0.266164
vt 0.532437 0.265039
vt 0.687960 0.344384
vt 0.662914 0.276691
vt 0.657770 0.276832
vt 0.991410 0.834553
vt 0.971937 0.849617
vt 0.964586 0.792719
vt 0.986939 0.702552
vt 0.931471 0.828746
vt 0.938091 0.709033
vt 0.824182 0.375634
vt 0.864618 0.399591
vt 0.820494 0.394122
vt 0.841185 0.409230
vt 0.878033 0.427271
vt 0.648654 0.948052
vt 0.614029 0.948991
vt 0.579997 0.905504
vt 0.366340 0.502197
vt 0.581215 0.932797
vt 0.824325 0.757341
vt 0.846822 0.752735
vt 0.671653 0.915557
vt 0.658479 0.903666
vt 0.606563 0.912467
vt 0.600589 0.832309
vt 0.773123 0.389199
vt 0.696638 0.418907
vt 0.677158 0.367504
vt 0.530900 0.064517
vt 0.546368 0.011305
vt 0.600835 0.024901
vt 0.963117 0.709437
vt 0.933955 0.697956
vt 0.961828 0.665735
vt 0.986351 0.656905
vt 0.567291 0.000265
vt 0.608518 0.005471
vt 0.891387 0.734878
vt 0.888567 0.709140
vt 0.723745 0.841136
vt 0.674252 0.785506
vt 0.719878 0.786418
vt 0.647349 0.777890
vt 0.396099 0.258390
vt 0.471865 0.229758
vt 0.454746 0.269219
vt 0.427037 0.302754
vt 0.787305 0.683752
vt 0.777880 0.661328
vt 0.838656 0.673791
vt 0.814063 0.662277
vt 0.803377 0.600304
vt 0.473340 0.330668
vt 0.609771 0.078383
vt 0.429850 0.316551
vt 0.450021 0.310809
vt 0.444784 0.325889
vt 0.606976 0.130991
vt 0.587546 0.126819
vt 0.590699 0.106794
vt 0.617697 0.121207
vt 0.458048 0.345602
vt 0.436582 0.382176
vt 0.608121 0.022856
vt 0.625640 0.063096
vt 0.948380 0.618896
vt 0.975187 0.609773
vt 0.881390 0.661057
vt 0.884167 0.608099
vt 0.568990 0.908887
vt 0.569946 0.895706
vt 0.380322 0.147309
vt 0.334037 0.132490
vt 0.390652 0.127677
vt 0.486670 0.109125
vt 0.415481 0.152876
vt 0.488324 0.135610
vt 0.481066 0.152136
vt 0.844971 0.065836
vt 0.850896 0.028541
vt 0.881313 0.111867
vt 0.655710 0.760286
vt 0.498369 0.156845
vt 0.691734 0.730114
vt 0.186809 0.166109
vt 0.224806 0.151032
vt 0.190907 0.189120
vt 0.819204 0.041875
vt 0.829427 0.014720
vt 0.816835 0.019757
vt 0.972246 0.372715
vt 0.964028 0.454769
vt 0.943551 0.410345
vt 0.754756 0.589815
vt 0.780160 0.578901
vt 0.748727 0.635288
vt 0.276879 0.646655
vt 0.349150 0.665461
vt 0.280246 0.669379
vt 0.786261 0.513772
vt 0.674664 0.086527
vt 0.399730 0.406729
vt 0.416371 0.362793
vt 0.645428 0.139784
vt 0.407459 0.359343
vt 0.389338 0.400019
vt 0.351241 0.681660
vt 0.353459 0.699665
vt 0.345935 0.678141
vt 0.353191 0.671522
vt 0.311538 0.713329
vt 0.674827 0.029830
vt 0.638535 0.028953
vt 0.948353 0.586296
vt 0.928239 0.586282
vt 0.906017 0.596863
vt 0.913495 0.557024
vt 0.938138 0.520854
vt 0.810496 0.025571
vt 0.652408 0.014271
vt 0.806056 0.009988
vt 0.944723 0.442034
vt 0.753603 0.712095
vt 0.736412 0.822582
vt 0.739551 0.717170
vt 0.220576 0.301400
vt 0.188189 0.275725
vt 0.252355 0.289145
vt 0.902523 0.606006
vt 0.877697 0.564026
vt 0.913090 0.520492
vt 0.137838 0.835186
vt 0.121693 0.819288
vt 0.083927 0.824441
vt 0.098002 0.817353
vt 0.075495 0.828340
vt 0.052529 0.854606
vt 0.142261 0.571111
vt 0.129691 0.592888
vt 0.160951 0.595605
vt 0.141331 0.543438
vt 0.192555 0.526960
vt 0.235282 0.593202
vt 0.205952 0.610589
vt 0.463258 0.903675
vt 0.201239 0.616713
vt 0.145850 0.637456
vt 0.168828 0.634796
vt 0.201740 0.639501
vt 0.449076 0.939233
vt 0.433230 0.754841
vt 0.367610 0.763435
vt 0.423153 0.740711
vt 0.360413 0.736994
vt 0.351833 0.708344
vt 0.364538 0.710160
vt 0.385463 0.803872
vt 0.329735 0.770690
vt 0.515234 0.805864
vt 0.539574 0.865246
vt 0.502540 0.809364
vt 0.470182 0.792170
vt 0.764284 0.887934
vt 0.843796 0.866137
vt 0.761907 0.925727
vt 0.291939 0.370092
vt 0.242164 0.351038
vt 0.305218 0.352078
vt 0.188743 0.371346
vt 0.715788 0.444938
vt 0.793915 0.471623
vt 0.745047 0.516124
vt 0.749522 0.487470
vt 0.731729 0.482923
vt 0.711457 0.468033
vt 0.669332 0.509592
vt 0.980622 0.115423
vt 0.989482 0.193558
vt 0.950424 0.171107
vt 0.686573 0.532078
vt 0.697364 0.536577
vt 0.699765 0.558845
vt 0.956428 0.096709
vt 0.264071 0.579703
vt 0.247259 0.632589
vt 0.254397 0.518693
vt 0.294348 0.518120
vt 0.341175 0.562963
vt 0.330077 0.610677
vt 0.359159 0.517617
vt 0.344547 0.587998
vt 0.567309 0.855278
vt 0.337773 0.817372
vt 0.319619 0.822959
vt 0.306008 0.802361
vt 0.287418 0.821514
vt 0.317574 0.766557
vt 0.293431 0.773964
vt 0.296247 0.767359
vt 0.251863 0.787114
vt 0.260908 0.815650
vt 0.281299 0.774144
vt 0.518117 0.886248
vt 0.726938 0.618127
vt 0.714467 0.598253
vt 0.717717 0.592727
vt 0.690668 0.558502
vt 0.711274 0.575690
vt 0.695208 0.634573
vt 0.551209 0.926796
vt 0.518158 0.969675
vt 0.491208 0.958726
vt 0.498870 0.999841
vt 0.194681 0.713378
vt 0.169726 0.686910
vt 0.198496 0.699451
vt 0.242301 0.718729
vt 0.200813 0.725555
vt 0.193733 0.749777
vt 0.213161 0.815281
vt 0.189679 0.820468
vt 0.260985 0.763399
vt 0.239347 0.765068
vt 0.164117 0.819813
vt 0.732342 0.642796
vt 0.705490 0.650106
vt 0.171535 0.741525
vt 0.184156 0.734301
vt 0.181559 0.349351
vt 0.511844 0.863604
vt 0.821146 0.835046
vt 0.844490 0.826033
vt 0.850369 0.878916
vt 0.897823 0.899853
vt 0.801094 0.165760
vt 0.782824 0.227122
vt 0.776980 0.197764
vt 0.744018 0.259596
vt 0.941668 0.893556
vt 0.883037 0.840152
vt 0.942164 0.862018
vt 0.524186 0.908397
vt 0.489370 0.922749
vt 0.478285 0.044912
vt 0.488457 0.057970
vt 0.482773 0.068464
vt 0.490649 0.030306
vt 0.934038 0.200550
vt 0.474241 0.028287
vt 0.437527 0.007594
vt 0.625779 0.531969
vt 0.686009 0.686362
vt 0.657042 0.646147
vt 0.602567 0.705018
vt 0.582040 0.652908
vt 0.641236 0.634186
vt 0.570081 0.553913
vt 0.140721 0.737311
vt 0.055368 0.876222
vt 0.033680 0.896606
vt 0.053214 0.925513
vt 0.039520 0.921340
vt 0.934643 0.128843
vt 0.818660 0.097747
vt 0.989223 0.415353
vt 0.984012 0.454512
vt 0.276226 0.185139
vt 0.198112 0.231442
vt 0.993592 0.345270
vt 0.984575 0.359244
vt 0.293829 0.157039
vt 0.348924 0.183285
vt 0.963175 0.296149
vt 0.939305 0.310561
vt 0.803879 0.513628
vt 0.216707 0.638489
vt 0.206657 0.663867
vt 0.817261 0.453627
vt 0.849626 0.438979
vt 0.840008 0.484025
vt 0.728375 0.148864
vt 0.729969 0.116910
vt 0.793853 0.139144
vt 0.245343 0.685696
vt 0.794268 0.153693
vt 0.242152 0.717877
vt 0.812226 0.049892
vt 0.766930 0.049350
vt 0.063881 0.309859
vt 0.058354 0.335139
vt 0.045874 0.320999
vt 0.057748 0.291604
vt 0.167234 0.149626
vt 0.186525 0.095532
vt 0.211192 0.127232
vt 0.928377 0.431165
vt 0.925309 0.476613
vt 0.916893 0.456390
vt 0.828007 0.492638
vt 0.855751 0.503226
vt 0.888136 0.486685
vt 0.881144 0.524586
vt 0.893394 0.429211
vt 0.506762 0.465095
vt 0.466122 0.497285
vt 0.467631 0.482131
vt 0.486501 0.501829
vt 0.548124 0.470965
vt 0.472774 0.528002
vt 0.514865 0.474165
vt 0.157388 0.722022
vt 0.122830 0.715623
vt 0.062348 0.015183
vt 0.078403 0.024160
vt 0.059569 0.079678
vt 0.939144 0.923265
vt 0.724867 0.251267
vt 0.726746 0.263000
vt 0.213333 0.517567
vt 0.197650 0.509056
vt 0.234244 0.501068
vt 0.235709 0.463006
vt 0.184118 0.503404
vt 0.170557 0.436766
vt 0.965845 0.252273
vt 0.966423 0.260651
vt 0.935505 0.288585
vt 0.266296 0.457243
vt 0.283382 0.485536
vt 0.225806 0.429747
vt 0.240446 0.448062
vt 0.413753 0.069187
vt 0.406344 0.052976
vt 0.346368 0.053364
vt 0.328150 0.083917
vt 0.333209 0.070689
vt 0.328812 0.031981
vt 0.384158 0.021786
vt 0.705986 0.215561
vt 0.925471 0.219253
vt 0.967167 0.224324
vt 0.980022 0.242357
vt 0.882669 0.177296
vt 0.879349 0.199521
vt 0.523076 0.419953
vt 0.560850 0.389983
vt 0.324698 0.414064
vt 0.331304 0.388089
vt 0.385053 0.412527
vt 0.078400 0.093938
vt 0.034744 0.112466
vt 0.620265 0.403679
vt 0.680319 0.382819
vt 0.605656 0.425349
vt 0.360997 0.499373
vt 0.377007 0.482084
vt 0.450595 0.517567
vt 0.420444 0.425687
vt 0.907147 0.348761
vt 0.922870 0.352735
vt 0.913239 0.402081
vt 0.312007 0.491831
vt 0.297585 0.471232
vt 0.924230 0.291905
vt 0.936098 0.315449
vt 0.260948 0.449167
vt 0.292095 0.377337
vt 0.937868 0.289986
vt 0.901658 0.227199
vt 0.902740 0.203015
vt 0.415414 0.180151
vt 0.388310 0.204039
vt 0.901656 0.278482
vt 0.204633 0.068349
vt 0.244669 0.030444
vt 0.245447 0.061811
vt 0.208362 0.038767
vt 0.258206 0.041633
vt 0.282836 0.034467
vt 0.272257 0.084650
vt 0.311817 0.102643
vt 0.627208 0.383052
vt 0.588156 0.318853
vt 0.599152 0.306455
vt 0.315558 0.002567
vt 0.160643 0.109508
vt 0.148916 0.068003
vt 0.056386 0.231348
vt 0.065448 0.229636
vt 0.040816 0.271513
vt 0.015750 0.265317
vt 0.006502 0.211347
vt 0.077857 0.221164
vt 0.077148 0.286863
vt 0.126500 0.042705
vt 0.137673 0.026157
vt 0.264404 0.146895
vt 0.237121 0.108393
vt 0.680618 0.550838
vt 0.638115 0.487076
vt 0.596903 0.491370
vt 0.606141 0.486632
vt 0.142214 0.789811
vt 0.110871 0.728528
vt 0.094342 0.761842
vt 0.224141 0.415430
vt 0.473226 0.398874
vt 0.474174 0.376794
vt 0.532238 0.368912
vt 0.530167 0.396948
vt 0.582971 0.480660
vt 0.117986 0.034394
vt 0.087786 0.119071
vt 0.285644 0.007037
vt 0.551000 0.297105
vt 0.559008 0.283275
vt 0.531569 0.270666
vt 0.672496 0.373844
vt 0.169054 0.878790
vt 0.709863 0.160352
vt 0.080932 0.565362
vt 0.062277 0.423306
vt 0.554831 0.600201
vt 0.846405 0.212111
vt 0.884200 0.219090
vt 0.896819 0.217364
vt 0.566726 0.545517
vt 0.565868 0.818469
vt 0.455241 0.733842
vt 0.353802 0.699930
vt 0.753319 0.752602
vt 0.321963 0.150216
vt 0.928277 0.002958
vt 0.970401 0.000807
vt 0.844569 0.431131
vt 0.989482 0.006803
vt 0.137427 0.954006
vt 0.129239 0.955366
vt 0.113444 0.946821
vt 0.091208 0.961782
vt 0.102057 0.962866
vt 0.502023 0.153693
vt 0.437437 0.183238
vt 0.375057 0.225880
vt 0.701181 0.441615
vt 0.632514 0.959810
vt 0.655819 0.881970
vt 0.731928 0.847439
vt 0.813019 0.756750
vt 0.785611 0.735589
vt 0.860369 0.700051
vt 0.756499 0.693735
vt 0.751957 0.681121
vt 0.762135 0.665785
vt 0.762651 0.717475
vt 0.480837 0.121347
vt 0.194832 0.152131
vt 0.993874 0.445123
vt 0.482195 0.084901
vt 0.493951 0.090518
vt 0.948843 0.439776
vt 0.816830 0.072780
vt 0.381605 0.400976
vt 0.414461 0.422940
vt 0.685192 0.148218
vt 0.294293 0.302857
vt 0.186809 0.289924
vt 0.133770 0.824638
vt 0.107276 0.814125
vt 0.063233 0.833476
vt 0.465795 0.870004
vt 0.456455 0.794002
vt 0.424907 0.791914
vt 0.621287 0.777639
vt 0.573933 0.810038
vt 0.431938 0.710951
vt 0.314529 0.717823
vt 0.741669 0.914271
vt 0.775339 0.940035
vt 0.257209 0.308978
vt 0.265971 0.628065
vt 0.293960 0.641169
vt 0.318031 0.654316
vt 0.752770 0.689033
vt 0.715578 0.719347
vt 0.462910 0.990929
vt 0.180081 0.706925
vt 0.164087 0.706473
vt 0.814597 0.184490
vt 0.443561 0.978015
vt 0.195561 0.309224
vt 0.417339 0.083240
vt 0.498369 0.083917
vt 0.976608 0.203929
vt 0.687859 0.721649
vt 0.616905 0.741364
vt 0.650360 0.612398
vt 0.649204 0.623021
vt 0.046227 0.872166
vt 0.293916 0.261712
vt 0.977960 0.299067
vt 0.353746 0.249222
vt 0.815695 0.173813
vt 0.822446 0.193683
vt 0.137550 0.154987
vt 0.150354 0.140141
vt 0.815570 0.079931
vt 0.029551 0.269993
vt 0.147525 0.118067
vt 0.308859 0.289489
vt 0.465764 0.475467
vt 0.466906 0.441807
vt 0.458591 0.501442
vt 0.145107 0.822959
vt 0.159493 0.404979
vt 0.176006 0.392220
vt 0.190970 0.383346
vt 0.070551 0.769852
vt 0.227318 0.376116
vt 0.938857 0.940035
vt 0.961293 0.854132
vt 0.984636 0.251496
vt 0.991410 0.207231
vt 0.012176 0.169747
vt 0.051296 0.200683
vt 0.089112 0.169053
vt 0.632597 0.415105
vt 0.908381 0.311983
vt 0.987207 0.287946
vt 0.350465 0.150930
vt 0.325460 0.057830
vt 0.365493 0.170369
vt 0.232959 0.143690
vt 0.302886 0.155749
vt 0.144828 0.015847
vt 0.680176 0.400045
vt 0.615858 0.544296
vt 0.455344 0.364923
vt 0.621704 0.472704
vt 0.612294 0.451928
vt 0.097800 0.135119
vt 0.129783 0.056842
vt 0.760285 0.155189
vn -0.3878 -0.9186 0.0759
vn -0.4518 -0.8243 0.3412
vn -0.7480 -0.6637 -0.0017
vn -0.0000 -1.0000 0.0000
vn 0.5228 -0.5538 0.6481
vn -0.2656 -0.7451 0.6118
vn 0.0199 -0.9720 0.2339
vn -0.8913 -0.0427 0.4514
vn -0.6993 0.6820 0.2140
vn -0.8119 0.4681 -0.3488
vn -0.8659 0.2804 0.4143
vn -0.4726 0.8336 0.2858
vn -0.2028 0.9672 0.1528
vn -0.6119 0.7431 0.2710
vn -0.2675 0.3999 0.8767
vn -0.6870 0.5030 0.5244
vn -0.5926 0.7076 0.3849
vn -0.5414 0.7858 0.2990
vn -0.6439 0.6705 0.3685
vn -0.5616 0.6628 0.4953
vn -0.4007 0.7381 0.5428
vn -0.4738 0.6304 0.6149
vn -0.7204 -0.0354 0.6927
vn -0.4995 0.6955 0.5166
vn -0.6689 0.6876 0.2825
vn -0.1429 0.9703 -0.1951
vn -0.2451 0.9661 0.0809
vn -0.1040 0.7137 0.6927
vn -0.2938 0.5986 0.7453
vn -0.4947 0.5947 0.6337
vn 0.0184 0.9689 0.2468
vn -0.3299 0.5499 0.7673
vn 0.1630 0.6698 0.7244
vn -0.4045 -0.0941 0.9097
vn -0.4830 0.8657 0.1318
vn -0.5667 0.8152 0.1200
vn -0.6435 0.2636 0.7186
vn -0.6585 0.5125 0.5510
vn -0.7215 0.6759 -0.1506
vn -0.3925 0.5481 0.7386
vn -0.0397 0.9911 -0.1271
vn 0.1093 0.7036 0.7022
vn 0.0734 0.9749 -0.2104
vn -0.4357 0.7581 0.4853
vn -0.6778 0.7320 -0.0698
vn 0.0022 0.9814 -0.1917
vn -0.4714 0.2705 0.8394
vn -0.7990 0.2439 0.5496
vn -0.6762 0.3625 0.6414
vn -0.6786 0.2371 0.6952
vn -0.8521 -0.0134 0.5232
vn -0.7222 0.1651 0.6717
vn -0.9363 0.2194 0.2743
vn -0.9940 0.0689 -0.0848
vn -0.2698 0.1008 0.9576
vn -0.6482 0.5222 0.5542
vn -0.5197 0.7306 0.4429
vn -0.3914 0.4784 0.7861
vn -0.6613 -0.1473 0.7355
vn -0.9863 -0.1640 0.0155
vn -0.7711 -0.1193 0.6255
vn -0.5970 0.6152 0.5148
vn -0.9962 -0.0513 -0.0700
vn 0.0411 0.7294 0.6829
vn 0.2848 0.6432 0.7108
vn 0.1785 0.6518 0.7371
vn -0.0242 0.7751 0.6314
vn 0.4354 0.4218 0.7953
vn 0.1677 0.7780 0.6055
vn -0.2551 0.6475 0.7181
vn -0.4874 0.6090 0.6258
vn -0.8044 0.5497 0.2252
vn -0.4793 -0.7385 0.4741
vn -0.5923 0.7380 0.3234
vn -0.1405 0.7092 0.6909
vn -0.2524 -0.0530 0.9662
vn -0.7919 0.1265 0.5974
vn -0.4826 0.1721 0.8588
vn -0.5420 0.5903 0.5981
vn -0.0103 -0.0167 0.9998
vn -0.0005 0.5880 0.8089
vn -0.0451 -0.1765 0.9833
vn -0.4507 0.5053 0.7359
vn -0.0471 0.4366 0.8984
vn -0.0672 0.0003 0.9977
vn -0.1029 -0.1487 0.9835
vn -0.2835 0.6881 0.6679
vn -0.0601 0.7150 0.6966
vn -0.0837 0.8154 0.5728
vn -0.0035 0.5410 0.8410
vn -0.7695 -0.4542 0.4489
vn -0.5241 0.4657 0.7131
vn -0.8160 0.5719 0.0839
vn -0.9104 0.4017 -0.0991
vn -0.0197 0.4927 0.8700
vn -0.0809 -0.5733 0.8154
vn -0.1021 0.0381 0.9940
vn -0.0932 0.7628 0.6399
vn -0.0006 -0.1994 0.9799
vn -0.7735 -0.1516 0.6154
vn -0.3179 0.9376 0.1408
vn -0.0939 0.9840 0.1513
vn -0.6537 -0.6211 0.4323
vn -0.7853 -0.6167 -0.0545
vn -0.1228 -0.7215 -0.6815
vn 0.2998 -0.5812 -0.7566
vn -0.8621 0.5005 0.0786
vn -0.9051 0.4143 0.0959
vn -0.9494 0.2797 -0.1426
vn -0.6184 0.7792 -0.1019
vn -0.8090 0.3441 0.4766
vn -0.5111 0.6855 0.5185
vn -0.8957 0.4438 -0.0274
vn -0.9217 0.3786 0.0850
vn -0.9531 0.0906 0.2889
vn -0.9892 0.1469 -0.0019
vn -0.7618 0.6225 -0.1793
vn -0.8123 0.4121 -0.4128
vn -0.5633 -0.6795 -0.4700
vn -0.5699 0.7977 -0.1972
vn -0.5510 0.6520 -0.5209
vn -0.8680 0.4808 -0.1242
vn -0.7142 0.6024 -0.3564
vn -0.9733 0.1328 -0.1871
vn -0.7559 0.3964 0.5211
vn -0.6123 -0.2514 0.7496
vn -0.9534 -0.3001 0.0300
vn -0.8072 0.2193 -0.5480
vn -0.9745 0.1898 0.1200
vn -0.8714 0.1790 -0.4567
vn -0.5254 0.7213 0.4513
vn 0.0190 0.7285 0.6848
vn -0.0298 0.4479 0.8936
vn -0.5094 0.4547 0.7306
vn -0.4730 -0.0957 0.8758
vn -0.9591 -0.0720 0.2739
vn -0.6065 0.5097 0.6102
vn 0.0589 0.1171 0.9914
vn -0.6458 0.7539 0.1212
vn -0.7795 0.6237 -0.0582
vn -0.7563 0.5269 -0.3878
vn -0.8331 0.0753 -0.5480
vn -0.3966 0.3897 -0.8312
vn -0.8836 -0.2991 -0.3603
vn -0.5928 0.3024 -0.7464
vn -0.5839 -0.3384 -0.7380
vn -0.5705 0.1278 -0.8113
vn -0.7104 0.6467 -0.2775
vn -0.3259 0.7193 -0.6134
vn -0.2576 0.9460 -0.1970
vn 0.0363 0.9705 -0.2383
vn -0.0749 0.8807 -0.4677
vn -0.5012 0.8208 -0.2741
vn -0.7208 0.0009 -0.6931
vn -0.5447 0.3729 -0.7512
vn -0.3195 0.0653 -0.9453
vn -0.6790 0.0524 -0.7323
vn -0.8182 0.4503 -0.3575
vn -0.1514 0.8248 -0.5448
vn -0.6420 0.3324 -0.6909
vn -0.1005 0.7263 -0.6800
vn -0.0642 0.8209 -0.5675
vn -0.5649 0.5004 -0.6562
vn -0.5162 -0.0966 -0.8510
vn -0.3360 0.3877 -0.8584
vn -0.4730 0.5276 -0.7057
vn -0.0880 0.6908 -0.7176
vn -0.0505 0.6617 -0.7481
vn -0.5121 -0.0382 -0.8581
vn -0.1488 -0.1057 -0.9832
vn 0.0816 0.5074 -0.8578
vn -0.3650 0.4965 -0.7876
vn -0.3811 -0.1005 -0.9191
vn -0.3680 -0.0899 -0.9255
vn -0.2591 0.0544 -0.9643
vn -0.2822 -0.7394 -0.6113
vn -0.2301 0.2587 -0.9381
vn -0.8094 0.5851 -0.0494
vn -0.9822 0.0542 -0.1800
vn -0.6077 -0.3760 -0.6995
vn -0.4558 0.6404 -0.6182
vn 0.0530 0.9985 0.0135
vn -0.3340 0.9414 0.0466
vn 0.0903 0.9952 0.0381
vn 0.0252 0.8120 -0.5831
vn 0.1405 0.9142 -0.3801
vn 0.0219 -0.0326 -0.9992
vn -0.0649 0.7603 -0.6464
vn -0.7554 0.5307 -0.3844
vn -0.3463 0.2222 -0.9115
vn 0.0070 -0.2617 -0.9651
vn 0.1403 0.6712 -0.7279
vn -0.1808 0.7608 -0.6233
vn -0.0165 0.9281 -0.3719
vn 0.0355 0.6008 -0.7986
vn -0.1322 0.6558 -0.7432
vn -0.1664 0.7084 -0.6860
vn -0.0116 -0.2210 -0.9752
vn -0.5335 0.8031 -0.2653
vn 0.0807 0.5034 -0.8603
vn -0.3421 0.6243 -0.7023
vn -0.0025 0.5846 -0.8113
vn -0.6114 0.6633 -0.4316
vn -0.0169 0.5611 -0.8276
vn -0.0436 0.2652 -0.9632
vn -0.3591 0.3352 -0.8710
vn 0.0043 -0.4565 -0.8897
vn -0.1235 0.1298 -0.9838
vn -0.2061 0.6350 -0.7445
vn 0.0373 0.3954 -0.9178
vn 0.0260 -0.5190 -0.8544
vn 0.3475 0.2882 -0.8923
vn 0.3711 -0.0744 -0.9256
vn -0.0142 0.8356 -0.5491
vn 0.1522 0.7587 -0.6334
vn -0.0771 0.5103 -0.8565
vn 0.1565 -0.6894 0.7073
vn 0.5620 -0.7529 0.3424
vn 0.5842 -0.6991 0.4124
vn 0.5770 -0.7350 0.3561
vn 0.6996 -0.7048 -0.1179
vn -0.2910 -0.0508 0.9554
vn -0.7342 0.2163 0.6436
vn -0.2763 0.4575 0.8452
vn -0.0930 -0.6934 0.7145
vn 0.3834 0.3082 0.8706
vn 0.2030 0.4696 0.8592
vn -0.7606 0.5176 0.3919
vn -0.1737 0.8163 0.5509
vn -0.6280 0.7491 0.2107
vn -0.6606 0.6398 0.3927
vn -0.0677 0.4568 0.8870
vn -0.5312 0.5778 0.6197
vn -0.4786 0.3779 0.7926
vn -0.6430 0.7282 0.2374
vn -0.2509 0.5631 0.7873
vn -0.6825 0.2836 0.6736
vn 0.2153 0.4648 0.8588
vn 0.0757 0.5526 0.8300
vn 0.5127 0.5461 0.6625
vn 0.1956 0.9286 0.3152
vn 0.1572 0.7800 0.6057
vn 0.5576 0.6044 0.5690
vn -0.0298 0.1919 0.9810
vn -0.0304 0.0260 0.9992
vn -0.0621 -0.0391 0.9973
vn 0.5968 0.5654 0.5694
vn 0.0483 0.7394 0.6716
vn 0.0616 0.5317 0.8447
vn -0.0041 0.0287 0.9996
vn -0.0456 -0.3271 0.9439
vn 0.0389 0.2093 0.9771
vn 0.3899 0.2925 0.8732
vn 0.2289 0.8972 0.3778
vn 0.4498 -0.5865 0.6736
vn 0.6971 0.1735 0.6956
vn 0.5588 0.5877 0.5851
vn -0.0438 0.9765 0.2109
vn 0.5679 0.2285 0.7907
vn 0.3172 0.2691 0.9094
vn 0.4124 -0.6236 0.6641
vn 0.8050 -0.0832 0.5874
vn 0.6897 0.5265 0.4972
vn 0.7660 0.0070 0.6428
vn 0.1937 0.7711 0.6065
vn 0.5643 0.3060 0.7667
vn 0.7946 -0.1508 0.5881
vn 0.8351 0.3850 0.3929
vn 0.4040 0.6922 0.5980
vn 0.8606 0.3326 0.3856
vn 0.4469 0.8758 0.1825
vn 0.9368 -0.2208 0.2715
vn 0.8575 0.4136 0.3059
vn 0.9494 0.1331 0.2844
vn 0.5339 0.7790 0.3289
vn 0.8627 0.5023 -0.0587
vn 0.6291 0.7443 -0.2241
vn 0.9391 -0.3395 0.0541
vn 0.7547 0.6557 -0.0223
vn 0.9978 -0.0511 -0.0413
vn 0.1381 0.9755 -0.1711
vn 0.6449 0.7358 0.2065
vn 0.7460 0.6659 0.0039
vn 0.7973 0.6036 0.0103
vn 0.6003 0.6675 0.4406
vn 0.2189 0.9755 0.0244
vn 0.2342 0.9677 0.0934
vn 0.8572 0.4813 0.1833
vn 0.6651 0.7148 -0.2160
vn 0.7513 0.6133 0.2438
vn 0.9418 0.1053 0.3193
vn 0.2704 0.9627 0.0116
vn 0.5188 0.8544 0.0280
vn 0.2669 0.9625 0.0479
vn 0.6555 -0.0619 0.7527
vn 0.1634 0.8371 0.5221
vn 0.9981 0.0609 0.0096
vn 0.9967 -0.0697 0.0419
vn 0.7627 0.2594 0.5925
vn 0.8939 0.4128 0.1749
vn 0.7175 0.6932 0.0685
vn 0.6580 0.5237 0.5410
vn 0.7719 0.5865 0.2452
vn 0.8719 -0.3364 0.3560
vn 0.7929 0.5826 0.1784
vn 0.8750 0.2315 0.4253
vn 0.2332 0.8639 -0.4464
vn 0.8081 0.4263 0.4065
vn 0.7572 0.4902 0.4318
vn 0.7408 -0.6491 0.1727
vn 0.9694 0.0441 0.2416
vn 0.9027 0.4300 0.0162
vn 0.2042 -0.9661 -0.1579
vn 0.6853 -0.6972 -0.2106
vn 0.1454 -0.8407 -0.5217
vn 0.1064 -0.6461 -0.7558
vn 0.0699 0.9842 0.1629
vn 0.2088 0.9730 -0.0983
vn 0.1243 0.7268 -0.6755
vn 0.1138 0.5871 -0.8015
vn 0.0828 0.1822 -0.9798
vn 0.2319 0.7546 -0.6138
vn 0.5322 -0.3419 -0.7745
vn 0.2688 0.6177 -0.7391
vn 0.0303 0.9297 -0.3670
vn -0.0365 0.3218 -0.9461
vn -0.0388 0.7223 -0.6905
vn 0.1961 0.0793 -0.9774
vn 0.4016 0.5676 -0.7187
vn 0.0145 -0.2410 -0.9704
vn -0.6066 -0.1641 -0.7779
vn -0.1484 0.9551 -0.2566
vn -0.5618 0.5079 -0.6530
vn 0.3892 -0.0681 -0.9186
vn 0.0133 -0.1454 -0.9893
vn -0.8853 0.2458 -0.3948
vn -0.6077 -0.2743 -0.7453
vn 0.1657 0.4987 -0.8508
vn 0.5859 -0.1239 -0.8008
vn 0.1167 -0.1969 -0.9734
vn 0.2560 0.5132 -0.8192
vn 0.0650 0.8701 -0.4886
vn 0.2818 0.5774 -0.7663
vn 0.6862 0.0905 -0.7217
vn 0.2312 0.4276 -0.8739
vn 0.8798 0.3809 0.2843
vn 0.6925 0.7206 -0.0336
vn 0.9537 0.1217 0.2749
vn 0.9812 -0.1896 0.0370
vn 0.8660 0.4416 0.2347
vn 0.3843 0.8571 0.3429
vn 0.8959 0.4385 0.0709
vn 0.8615 0.5035 0.0654
vn 0.7439 0.6265 -0.2326
vn 0.8164 0.1845 0.5473
vn 0.8708 -0.0564 0.4884
vn 0.5698 0.0264 0.8214
vn 0.5145 0.2745 0.8124
vn 0.3127 0.7163 0.6238
vn 0.3446 0.5899 0.7303
vn 0.5744 0.1370 0.8071
vn 0.9709 0.2348 -0.0481
vn 0.8242 0.4143 -0.3860
vn 0.4909 0.1866 0.8510
vn 0.7445 0.3606 0.5619
vn 0.9991 0.0154 0.0397
vn 0.8904 -0.4527 -0.0469
vn 0.8827 -0.4518 -0.1291
vn 0.6622 0.5741 -0.4815
vn 0.6791 0.1825 -0.7110
vn 0.8007 0.4126 -0.4343
vn 0.9184 0.3934 -0.0417
vn 0.8789 0.4697 0.0835
vn 0.7941 0.6062 0.0435
vn 0.8794 0.4353 0.1926
vn 0.3253 0.9451 -0.0304
vn 0.9142 0.3859 0.1238
vn 0.9349 0.3312 -0.1276
vn 0.7404 -0.0736 -0.6681
vn 0.6512 0.6020 -0.4621
vn 0.6645 0.6109 -0.4305
vn 0.8500 0.5264 -0.0196
vn 0.7697 0.6343 0.0729
vn 0.0063 0.7870 -0.6169
vn 0.9857 0.1521 -0.0720
vn 0.7183 0.0361 -0.6948
vn 0.6975 0.2448 -0.6735
vn 0.5653 0.6790 -0.4684
vn 0.4141 0.7017 -0.5798
vn 0.6961 -0.3758 -0.6117
vn 0.4602 0.6573 -0.5967
vn 0.7238 -0.3632 -0.5867
vn 0.7115 0.2482 -0.6574
vn 0.9972 -0.0669 -0.0342
vn 0.9506 0.2743 -0.1454
vn 0.4759 0.7644 -0.4350
vn 0.7084 0.5929 -0.3830
vn 0.2745 0.4315 -0.8593
vn 0.7309 0.5103 -0.4532
vn 0.5602 0.7312 -0.3892
vn -0.0093 -0.0822 -0.9966
vn 0.6337 0.6679 -0.3903
vn 0.7410 0.1459 -0.6554
vn 0.4078 0.2338 -0.8827
vn 0.9822 0.0949 -0.1623
vn 0.8969 0.3673 -0.2463
vn -0.2685 0.4251 -0.8644
vn -0.2534 0.4724 -0.8442
vn 0.1702 0.8208 -0.5453
vn 0.5440 0.1917 -0.8169
vn -0.5226 0.3700 -0.7681
vn 0.1989 0.4399 -0.8757
vn 0.4011 0.6417 -0.6538
vn -0.1659 0.1695 -0.9715
vn 0.1138 0.5640 -0.8179
vn 0.8118 0.5594 -0.1674
vn 0.7026 0.2887 -0.6504
vn 0.0935 0.5645 -0.8202
vn 0.9178 -0.3970 0.0012
vn 0.9207 -0.3840 -0.0698
vn 0.9487 -0.1516 0.2775
vn 0.8468 0.1065 -0.5212
vn 0.9776 0.2074 -0.0360
vn 0.9032 0.4275 0.0394
vn 0.4338 -0.5713 -0.6967
vn 0.9600 0.1375 -0.2438
vn 0.8602 0.2272 -0.4565
vn 0.9541 0.2641 -0.1410
vn 0.4987 0.4688 -0.7291
vn -0.4777 -0.7561 0.4473
vn -0.2957 -0.6267 -0.7210
vn -0.3505 -0.8796 -0.3217
vn -0.6820 -0.6269 -0.3766
vn -0.2552 0.8135 0.5226
vn -0.0667 0.9217 -0.3821
vn -0.6064 0.0636 -0.7926
vn 0.1606 0.9867 -0.0241
vn 0.1599 0.8612 0.4825
vn 0.4556 0.8247 -0.3351
vn 0.8091 0.5876 0.0013
vn 0.1776 0.8820 -0.4365
vn -0.7009 0.6743 -0.2325
vn 0.3605 0.9253 -0.1177
vn 0.7419 0.6202 -0.2549
vn 0.8492 0.3979 -0.3473
usemtl Stone_MAT
s 1
f 1/1/1 4/2/2 6/3/3
f 95/4/4 4/2/2 1/1/1
f 3/5/5 24/6/6 2/7/7
f 10/8/8 8/9/9 5/10/10
f 4/11/2 10/8/8 6/12/3
f 10/8/8 5/10/10 6/12/3
f 7/13/11 6/12/3 5/10/10
f 8/9/9 33/14/12 5/10/10
f 5/10/10 33/14/12 11/15/13
f 11/16/13 15/17/14 9/18/15
f 9/18/15 15/17/14 106/19/16
f 12/20/17 13/21/18 14/22/19
f 11/15/13 33/14/12 15/23/14
f 33/24/12 106/25/16 15/26/14
f 13/21/18 18/27/20 22/28/21
f 22/29/21 19/30/22 13/31/18
f 18/27/20 20/32/23 21/33/24
f 13/31/18 19/30/22 17/34/25
f 17/34/25 19/30/22 39/35/26
f 19/30/22 30/36/27 39/35/26
f 27/37/28 28/38/29 22/29/21
f 21/33/24 23/39/30 26/40/31
f 25/41/32 58/42/33 26/40/31
f 29/43/34 58/42/33 25/41/32
f 24/44/6 3/45/5 29/43/34
f 30/36/27 31/46/35 49/47/36
f 31/48/35 52/49/37 50/50/38
f 13/31/18 17/34/25 14/51/19
f 14/51/19 17/34/25 35/52/39
f 35/52/39 34/53/40 14/51/19
f 14/51/19 34/53/40 33/54/12
f 34/53/40 36/55/41 38/56/42
f 39/35/26 37/57/43 17/34/25
f 38/56/42 36/55/41 42/58/44
f 37/57/43 41/59/45 40/60/46
f 40/60/46 41/59/45 42/58/44
f 44/61/47 45/62/48 120/63/49
f 39/35/26 30/36/27 49/47/36
f 44/61/47 46/64/50 45/62/48
f 47/65/51 46/66/50 41/67/45
f 48/68/52 53/69/53 54/70/54
f 46/64/50 54/71/54 45/62/48
f 50/50/38 51/72/55 47/65/51
f 50/50/38 52/73/37 51/72/55
f 51/72/55 52/73/37 48/68/52
f 48/68/52 55/74/56 53/69/53
f 130/75/57 54/70/54 55/74/56
f 54/71/54 130/76/57 127/77/58
f 56/78/59 57/79/60 71/80/61
f 57/79/60 56/78/59 80/81/62
f 57/79/60 80/81/62 81/82/63
f 27/37/28 60/83/64 28/38/29
f 3/45/5 59/84/65 58/42/33
f 58/42/33 63/85/66 27/86/28
f 27/37/28 63/87/66 60/83/64
f 60/83/64 63/87/66 232/88/67
f 59/84/65 61/89/68 63/85/66
f 61/89/68 3/45/5 62/90/69
f 62/91/69 227/92/70 63/93/66
f 3/45/5 2/94/7 62/90/69
f 63/93/66 227/92/70 228/95/71
f 63/87/66 228/96/71 236/97/72
f 63/87/66 236/97/72 232/88/67
f 2/98/7 226/99/73 62/91/69
f 62/91/69 220/100/74 227/92/70
f 30/36/27 60/83/64 65/101/75
f 65/102/75 64/103/76 32/104/77
f 32/104/77 66/105/78 69/106/79
f 32/104/77 69/106/79 52/49/37
f 67/107/80 69/106/79 66/105/78
f 65/101/75 60/83/64 68/108/81
f 64/103/76 67/107/80 66/105/78
f 68/109/81 67/107/80 65/102/75
f 68/109/81 234/110/82 67/107/80
f 232/88/67 68/108/81 60/83/64
f 52/49/37 69/106/79 72/111/83
f 73/112/84 48/68/52 72/113/83
f 55/74/56 74/114/85 71/115/61
f 55/74/56 73/112/84 74/114/85
f 75/116/86 71/117/61 74/118/85
f 73/112/84 77/119/87 243/120/88
f 69/106/79 70/121/89 243/122/88
f 243/120/88 79/123/90 73/112/84
f 84/124/91 85/125/92 86/126/93
f 84/124/91 86/126/93 176/127/94
f 56/128/59 89/129/95 80/130/62
f 84/131/91 92/132/96 90/133/97
f 85/134/92 90/133/97 91/135/98
f 248/136/99 92/132/96 83/137/100
f 88/138/101 91/139/98 93/140/102
f 1/1/1 101/141/103 99/142/104
f 95/4/4 1/1/1 99/142/104
f 95/4/4 212/143/105 96/144/106
f 99/145/104 102/146/107 100/147/108
f 99/145/104 100/147/108 98/148/109
f 100/147/108 103/149/110 98/148/109
f 99/145/104 101/150/103 102/146/107
f 104/151/111 101/150/103 7/152/11
f 104/151/111 7/152/11 9/18/15
f 105/153/112 102/146/107 104/151/111
f 105/153/112 108/154/113 102/146/107
f 105/153/112 9/18/15 106/19/16
f 107/155/114 105/153/112 106/19/16
f 107/156/114 43/157/115 115/158/116
f 107/156/114 115/158/116 108/159/113
f 98/148/109 103/149/110 97/160/117
f 98/148/109 97/160/117 109/161/118
f 110/162/119 99/145/104 109/161/118
f 103/149/110 112/163/120 109/161/118
f 109/161/118 112/163/120 113/164/121
f 111/165/122 114/166/123 112/163/120
f 115/158/116 139/167/124 111/168/122
f 111/168/122 139/167/124 114/169/123
f 125/170/125 124/171/126 141/172/127
f 125/170/125 141/172/127 144/173/128
f 122/174/129 142/175/130 141/172/127
f 123/176/131 120/63/49 126/177/132
f 125/178/125 123/176/131 128/179/133
f 127/77/58 126/177/132 120/63/49
f 123/176/131 126/177/132 128/179/133
f 126/177/132 132/180/134 128/179/133
f 54/71/54 127/77/58 45/62/48
f 127/77/58 130/76/57 126/177/132
f 124/181/126 128/182/133 131/183/135
f 71/115/61 132/184/134 130/75/57
f 131/183/135 128/182/133 132/185/134
f 71/80/61 174/186/136 132/187/134
f 122/188/129 124/181/126 133/189/137
f 129/190/138 131/183/135 175/191/139
f 115/158/116 121/192/140 138/193/141
f 135/194/142 139/167/124 138/193/141
f 135/195/142 138/196/141 145/197/143
f 140/198/144 142/175/130 143/199/145
f 143/199/145 146/200/146 140/198/144
f 146/200/146 147/201/147 144/173/128
f 144/202/128 147/203/147 145/197/143
f 143/199/145 148/204/148 150/205/149
f 149/206/150 182/207/151 151/208/152
f 149/206/150 181/209/153 182/207/151
f 149/206/150 175/191/139 181/209/153
f 153/210/154 116/211/155 119/212/156
f 153/210/154 119/212/156 154/213/157
f 157/214/158 159/215/159 172/216/160
f 172/216/160 159/215/159 173/217/161
f 191/218/162 173/217/161 159/215/159
f 114/166/123 137/219/163 113/164/121
f 135/195/142 145/197/143 161/220/164
f 156/221/165 152/222/166 164/223/167
f 162/224/168 137/225/163 136/226/169
f 162/224/168 136/226/169 163/227/170
f 137/219/163 162/228/168 164/223/167
f 162/228/168 166/229/171 164/223/167
f 161/220/164 168/230/172 165/231/173
f 147/201/147 169/232/174 202/233/175
f 94/234/176 172/216/160 211/235/177
f 172/216/160 173/217/161 191/218/162
f 57/79/60 81/82/63 174/186/136
f 132/185/134 174/236/136 131/183/135
f 81/237/63 175/191/139 131/183/135
f 82/238/178 83/239/100 87/240/179
f 87/240/179 84/124/91 177/241/180
f 175/242/139 183/243/181 181/244/153
f 88/138/101 180/245/182 179/246/183
f 88/138/101 325/247/184 180/245/182
f 181/209/153 184/248/185 182/207/151
f 184/249/185 181/244/153 183/243/181
f 182/207/151 184/248/185 209/250/186
f 183/251/181 185/252/187 184/253/185
f 179/246/183 188/254/188 186/255/189
f 188/254/188 187/256/190 186/255/189
f 330/257/191 187/258/190 189/259/192
f 190/260/193 192/261/194 160/262/195
f 193/263/196 190/264/193 338/265/197
f 190/260/193 193/266/196 192/261/194
f 163/227/170 165/231/173 196/267/198
f 164/223/167 166/229/171 194/268/199
f 164/223/167 194/268/199 167/269/200
f 166/270/171 163/227/170 196/267/198
f 160/271/195 167/269/200 195/272/201
f 195/272/201 167/269/200 194/268/199
f 194/273/199 198/274/202 199/275/203
f 195/276/201 199/275/203 190/264/193
f 198/274/202 200/277/204 199/275/203
f 190/264/193 199/275/203 338/265/197
f 200/277/204 338/265/197 199/275/203
f 201/278/205 165/231/173 170/279/206
f 203/280/207 169/232/174 204/281/208
f 169/232/174 171/282/209 204/281/208
f 204/281/208 171/282/209 205/283/210
f 206/284/211 203/280/207 204/281/208
f 206/284/211 204/281/208 205/283/210
f 354/285/212 202/286/175 207/287/213
f 206/284/211 207/288/213 202/233/175
f 171/289/209 150/290/149 208/291/214
f 205/292/210 208/293/214 210/294/215
f 211/235/177 172/216/160 191/218/162
f 212/295/105 94/234/176 211/235/177
f 211/235/177 213/296/216 96/297/106
f 212/295/105 211/235/177 96/297/106
f 95/4/4 226/298/73 2/7/7
f 95/4/4 223/299/217 226/298/73
f 216/300/218 215/301/219 95/4/4
f 217/302/220 216/300/218 95/4/4
f 217/302/220 95/4/4 320/303/221
f 221/304/222 62/91/69 226/99/73
f 221/304/222 218/305/223 62/91/69
f 219/306/224 220/100/74 218/305/223
f 222/307/225 223/308/217 221/304/222
f 223/308/217 258/309/226 224/310/227
f 218/305/223 220/100/74 62/91/69
f 227/92/70 220/100/74 228/95/71
f 236/97/72 228/96/71 231/311/228
f 225/312/229 229/313/230 220/100/74
f 225/312/229 230/314/231 229/313/230
f 230/314/231 225/312/229 239/315/232
f 232/88/67 237/316/233 68/108/81
f 231/317/228 235/318/234 236/319/72
f 235/318/234 240/320/235 236/319/72
f 240/320/235 233/321/236 238/322/237
f 235/318/234 239/323/232 264/324/238
f 241/325/239 275/326/240 242/327/241
f 243/122/88 242/327/241 244/328/242
f 244/329/242 298/330/243 79/331/90
f 76/332/244 245/333/245 78/334/246
f 245/333/245 76/332/244 247/335/247
f 90/133/97 250/336/248 91/135/98
f 89/337/95 252/338/249 251/339/250
f 249/340/251 248/136/99 251/339/250
f 249/340/251 253/341/252 90/133/97
f 250/336/248 253/341/252 255/342/253
f 250/343/248 255/344/253 256/345/254
f 301/346/255 251/339/250 302/347/256
f 252/338/249 254/348/257 302/347/256
f 91/139/98 250/343/248 257/349/258
f 223/308/217 261/350/259 258/309/226
f 258/309/226 261/350/259 263/351/260
f 261/350/259 259/352/261 215/353/219
f 261/350/259 308/354/262 272/355/263
f 308/354/262 215/353/219 216/356/218
f 309/357/264 272/355/263 308/354/262
f 265/358/265 275/326/240 241/325/239
f 263/359/260 260/360/266 264/324/238
f 267/361/267 260/360/266 268/362/268
f 262/363/269 267/361/267 269/364/270
f 266/365/271 262/363/269 269/364/270
f 273/366/272 268/362/268 270/367/273
f 266/365/271 269/364/270 271/368/274
f 275/326/240 295/369/275 242/327/241
f 279/370/276 276/371/277 277/372/278
f 276/371/277 363/373/279 278/374/280
f 276/371/277 279/370/276 280/375/281
f 281/376/282 284/377/283 283/378/284
f 283/378/284 284/377/283 367/379/285
f 285/380/286 367/381/285 284/382/283
f 281/383/282 286/384/287 284/382/283
f 284/382/283 286/384/287 285/380/286
f 281/383/282 290/385/288 286/384/287
f 270/367/273 288/386/289 273/366/272
f 273/366/272 288/386/289 279/387/276
f 290/385/288 274/388/290 289/389/291
f 273/366/272 279/387/276 277/390/278
f 288/391/289 311/392/292 279/370/276
f 290/385/288 293/393/293 291/394/294
f 247/335/247 294/395/295 245/333/245
f 242/327/241 295/369/275 246/396/296
f 246/397/296 295/398/275 298/330/243
f 247/399/247 298/330/243 296/400/297
f 294/401/295 296/402/297 297/403/298
f 297/403/298 296/402/297 375/404/299
f 298/330/243 376/405/300 296/400/297
f 376/405/300 299/406/301 300/407/302
f 295/369/275 275/326/240 282/408/303
f 295/369/275 282/408/303 299/409/301
f 282/408/303 283/378/284 299/409/301
f 304/410/304 301/411/255 302/412/256
f 301/411/255 304/410/304 255/413/253
f 307/414/305 256/345/254 255/344/253
f 305/415/306 255/413/253 304/410/304
f 305/415/306 304/410/304 307/416/305
f 276/371/277 280/375/281 427/417/307
f 311/392/292 310/418/308 313/419/309
f 217/420/220 313/419/309 310/418/308
f 314/421/310 313/419/309 217/420/220
f 315/422/311 314/421/310 320/423/221
f 311/392/292 280/375/281 279/370/276
f 293/393/293 290/385/288 317/424/312
f 318/425/313 320/303/221 95/4/4
f 322/426/314 319/427/315 426/428/316
f 322/426/314 318/425/313 95/4/4
f 325/247/184 93/140/102 323/429/317
f 257/349/258 323/429/317 93/140/102
f 180/245/182 325/247/184 324/430/318
f 330/257/191 185/431/187 177/432/180
f 328/433/319 184/253/185 185/252/187
f 328/433/319 209/434/186 184/253/185
f 327/435/320 185/431/187 331/436/321
f 327/437/320 411/438/322 328/433/319
f 332/439/323 330/257/191 189/259/192
f 333/440/324 332/439/323 189/259/192
f 193/266/196 334/441/325 192/261/194
f 337/442/326 193/263/196 338/265/197
f 353/443/327 337/442/326 338/265/197
f 337/444/326 336/445/328 360/446/329
f 200/447/204 197/448/330 344/449/331
f 338/265/197 200/277/204 342/450/332
f 341/451/333 200/447/204 344/449/331
f 200/277/204 341/452/333 342/450/332
f 339/453/334 344/449/331 340/454/335
f 343/455/336 341/456/333 344/457/331
f 343/455/336 344/457/331 346/458/337
f 338/265/197 342/450/332 353/443/327
f 342/459/332 351/460/338 353/461/327
f 357/462/339 355/463/340 356/464/341
f 191/218/162 335/465/342 358/466/343
f 358/466/343 359/467/344 214/468/345
f 214/468/345 359/467/344 96/297/106
f 358/466/343 335/465/342 360/446/329
f 360/446/329 359/467/344 358/466/343
f 336/445/328 319/469/315 359/467/344
f 360/446/329 336/445/328 359/467/344
f 364/470/346 363/471/279 366/472/347
f 362/473/348 369/474/349 278/475/280
f 369/474/349 362/473/348 365/476/350
f 292/477/351 293/393/293 371/478/352
f 293/393/293 317/424/312 371/478/352
f 371/479/352 429/480/353 372/481/354
f 374/482/355 296/400/297 376/405/300
f 391/483/356 375/404/299 377/484/357
f 377/485/357 375/486/299 380/487/358
f 375/486/299 381/488/359 380/487/358
f 374/489/355 379/490/360 381/488/359
f 378/491/361 380/492/358 382/493/362
f 381/488/359 434/494/363 382/495/362
f 431/496/364 433/497/365 381/488/359
f 302/412/256 303/498/366 384/499/367
f 384/499/367 303/498/366 386/500/368
f 303/498/366 387/501/369 385/502/370
f 386/500/368 303/498/366 385/502/370
f 409/503/371 388/504/372 386/500/368
f 306/505/373 297/403/298 391/483/356
f 307/416/305 384/499/367 388/504/372
f 390/506/374 389/507/375 378/491/361
f 389/507/375 391/508/356 378/491/361
f 325/247/184 323/429/317 326/509/376
f 307/414/305 388/510/372 326/509/376
f 365/476/350 436/511/377 392/512/378
f 398/513/379 397/514/380 396/515/381
f 372/481/354 430/516/382 397/517/380
f 373/518/383 365/476/350 392/512/378
f 402/519/384 441/520/385 373/518/383
f 404/521/386 424/522/387 207/523/213
f 396/515/381 395/524/388 424/522/387
f 410/525/389 405/526/390 403/527/391
f 406/528/392 424/522/387 404/521/386
f 406/528/392 407/529/393 424/522/387
f 413/530/394 406/531/392 405/526/390
f 432/532/395 398/513/379 424/522/387
f 372/533/354 397/514/380 398/513/379
f 432/532/395 407/529/393 434/494/363
f 382/495/362 434/494/363 407/529/393
f 409/534/371 332/439/323 333/440/324
f 390/506/374 408/535/396 387/536/369
f 412/537/397 410/538/389 411/438/322
f 412/539/397 378/491/361 413/530/394
f 415/540/398 419/541/399 416/542/400
f 419/541/399 415/540/398 422/543/401
f 416/542/400 419/541/399 417/544/402
f 443/545/403 425/546/404 417/544/402
f 443/545/403 426/547/316 425/546/404
f 418/548/405 442/549/406 419/550/399
f 322/551/314 426/547/316 443/545/403
f 415/540/398 349/552/407 420/553/408
f 421/554/409 352/555/410 347/556/411
f 345/557/412 395/558/388 421/554/409
f 399/559/413 348/560/414 352/555/410
f 422/543/401 415/540/398 420/553/408
f 420/553/408 399/561/413 402/562/384
f 426/547/316 336/563/328 414/564/415
f 364/470/346 436/511/377 365/476/350
f 366/565/347 427/417/307 435/566/416
f 439/567/417 437/568/418 427/417/307
f 317/424/312 361/569/419 429/570/353
f 429/570/353 361/569/419 370/571/420
f 372/481/354 429/480/353 430/516/382
f 433/497/365 431/496/364 383/572/421
f 381/488/359 433/497/365 432/532/395
f 432/532/395 433/497/365 383/572/421
f 435/573/416 393/574/422 394/575/423
f 436/511/377 435/573/416 438/576/424
f 392/512/378 436/511/377 438/576/424
f 438/576/424 394/575/423 392/512/378
f 321/577/425 437/568/418 439/567/417
f 373/518/383 392/512/378 442/549/406
f 430/516/382 370/578/420 440/579/426
f 417/544/402 445/580/427 443/545/403
f 444/581/428 445/582/427 442/549/406
f 444/581/428 394/575/423 322/583/314
f 444/581/428 322/583/314 445/582/427
f 373/518/383 418/548/405 423/584/429
f 95/4/4 16/585/430 4/2/2
f 95/4/4 24/6/6 16/585/430
f 95/4/4 2/7/7 24/6/6
f 20/32/23 18/27/20 12/20/17
f 101/150/103 1/586/1 7/152/11
f 8/9/9 10/8/8 20/32/23
f 7/13/11 1/587/1 6/12/3
f 10/8/8 4/11/2 16/588/430
f 7/13/11 5/10/10 11/15/13
f 7/152/11 11/16/13 9/18/15
f 8/9/9 20/32/23 12/20/17
f 16/588/430 20/32/23 10/8/8
f 14/22/19 8/9/9 12/20/17
f 33/14/12 8/9/9 14/22/19
f 43/157/115 106/25/16 33/24/12
f 13/21/18 12/20/17 18/27/20
f 22/28/21 18/27/20 21/33/24
f 22/29/21 28/38/29 19/30/22
f 22/28/21 21/33/24 27/86/28
f 28/38/29 30/36/27 19/30/22
f 20/32/23 23/39/30 21/33/24
f 21/33/24 26/40/31 27/86/28
f 16/588/430 29/43/34 20/32/23
f 20/32/23 29/43/34 23/39/30
f 29/43/34 25/41/32 23/39/30
f 29/43/34 16/588/430 24/44/6
f 23/39/30 25/41/32 26/40/31
f 27/86/28 26/40/31 58/42/33
f 49/589/36 31/48/35 50/50/38
f 30/36/27 28/38/29 60/83/64
f 31/46/35 30/36/27 65/101/75
f 31/48/35 65/102/75 32/104/77
f 31/48/35 32/104/77 52/49/37
f 33/24/12 34/590/40 44/61/47
f 44/61/47 34/590/40 38/591/42
f 17/34/25 37/57/43 40/60/46
f 35/52/39 17/34/25 40/60/46
f 35/52/39 36/55/41 34/53/40
f 36/55/41 35/52/39 40/60/46
f 36/55/41 40/60/46 42/58/44
f 39/35/26 41/59/45 37/57/43
f 43/157/115 33/24/12 44/61/47
f 43/157/115 44/61/47 120/63/49
f 44/61/47 38/591/42 46/64/50
f 38/591/42 42/592/44 46/64/50
f 41/67/45 49/589/36 47/65/51
f 54/70/54 47/65/51 48/68/52
f 41/67/45 46/66/50 42/593/44
f 46/66/50 47/65/51 54/70/54
f 48/68/52 47/65/51 51/72/55
f 54/70/54 53/69/53 55/74/56
f 55/74/56 71/115/61 130/75/57
f 55/74/56 48/68/52 73/112/84
f 3/45/5 58/42/33 29/43/34
f 58/42/33 59/84/65 63/85/66
f 3/45/5 61/89/68 59/84/65
f 61/89/68 62/90/69 63/85/66
f 64/103/76 66/105/78 32/104/77
f 64/103/76 65/102/75 67/107/80
f 69/106/79 67/107/80 233/594/236
f 69/106/79 233/594/236 70/121/89
f 52/73/37 72/113/83 48/68/52
f 71/117/61 75/116/86 56/128/59
f 73/112/84 72/113/83 77/119/87
f 72/111/83 69/106/79 77/595/87
f 69/106/79 243/122/88 77/595/87
f 74/114/85 73/112/84 76/596/244
f 74/118/85 76/332/244 78/334/246
f 74/118/85 78/334/246 75/116/86
f 73/112/84 79/123/90 76/596/244
f 80/81/62 82/597/178 81/82/63
f 80/598/62 83/239/100 82/238/178
f 83/239/100 84/124/91 87/240/179
f 56/128/59 75/116/86 89/129/95
f 176/599/94 86/600/93 88/138/101
f 80/601/62 89/337/95 83/137/100
f 86/600/93 85/602/92 88/138/101
f 85/134/92 84/131/91 90/133/97
f 83/137/100 92/132/96 84/131/91
f 85/602/92 91/139/98 88/138/101
f 89/337/95 248/136/99 83/137/100
f 89/129/95 75/116/86 78/334/246
f 249/340/251 92/132/96 248/136/99
f 91/139/98 257/349/258 93/140/102
f 110/603/119 95/4/4 99/142/104
f 110/603/119 117/604/431 95/4/4
f 118/605/432 95/4/4 117/604/431
f 94/606/176 118/605/432 155/607/433
f 94/606/176 95/4/4 118/605/432
f 94/606/176 212/143/105 95/4/4
f 101/150/103 104/151/111 102/146/107
f 100/147/108 102/146/107 103/149/110
f 105/153/112 104/151/111 9/18/15
f 108/154/113 103/149/110 102/146/107
f 108/154/113 105/153/112 107/155/114
f 106/25/16 43/157/115 107/156/114
f 99/145/104 98/148/109 109/161/118
f 109/161/118 97/160/117 103/149/110
f 110/162/119 109/161/118 116/211/155
f 108/154/113 111/165/122 103/149/110
f 109/161/118 113/164/121 116/211/155
f 103/149/110 111/165/122 112/163/120
f 113/164/121 112/163/120 114/166/123
f 111/168/122 108/159/113 115/158/116
f 114/169/123 139/167/124 135/194/142
f 136/226/169 114/608/123 135/195/142
f 110/162/119 116/211/155 117/609/431
f 118/610/432 117/609/431 153/210/154
f 113/164/121 119/212/156 116/211/155
f 121/192/140 115/158/116 120/63/49
f 121/192/140 120/63/49 123/176/131
f 141/172/127 124/171/126 122/174/129
f 125/178/125 121/192/140 123/176/131
f 121/192/140 125/178/125 144/611/128
f 125/612/125 128/182/133 124/181/126
f 127/77/58 120/63/49 45/62/48
f 124/181/126 131/183/135 129/190/138
f 126/177/132 130/76/57 132/180/134
f 133/189/137 124/181/126 129/190/138
f 133/189/137 134/613/434 148/614/148
f 133/189/137 129/190/138 175/191/139
f 134/613/434 133/189/137 175/191/139
f 149/206/150 134/613/434 175/191/139
f 137/225/163 114/608/123 136/226/169
f 136/226/169 135/195/142 161/220/164
f 139/167/124 115/158/116 138/193/141
f 142/175/130 140/198/144 141/172/127
f 144/173/128 141/172/127 140/198/144
f 138/196/141 144/202/128 145/197/143
f 140/198/144 146/200/146 144/173/128
f 148/614/148 122/188/129 133/189/137
f 150/290/149 148/614/148 149/206/150
f 143/199/145 142/175/130 148/204/148
f 148/614/148 134/613/434 149/206/150
f 150/290/149 149/206/150 151/208/152
f 171/282/209 143/199/145 150/205/149
f 150/290/149 151/208/152 208/291/214
f 153/210/154 117/609/431 116/211/155
f 119/212/156 113/164/121 152/222/166
f 152/222/166 154/213/157 119/212/156
f 118/615/432 153/616/154 155/617/433
f 153/616/154 154/618/157 157/214/158
f 157/214/158 154/618/157 156/619/165
f 155/617/433 153/616/154 157/214/158
f 172/216/160 155/617/433 157/214/158
f 159/215/159 157/214/158 156/619/165
f 159/215/159 156/619/165 158/620/435
f 156/619/165 160/262/195 158/620/435
f 158/620/435 160/262/195 159/215/159
f 113/164/121 137/219/163 152/222/166
f 152/222/166 137/219/163 164/223/167
f 156/221/165 154/213/157 152/222/166
f 161/220/164 163/227/170 136/226/169
f 160/271/195 156/221/165 164/223/167
f 166/270/171 162/224/168 163/227/170
f 160/271/195 164/223/167 167/269/200
f 168/230/172 145/197/143 147/203/147
f 168/230/172 161/220/164 145/197/143
f 170/279/206 165/231/173 168/230/172
f 143/199/145 169/232/174 146/200/146
f 168/230/172 147/203/147 170/279/206
f 169/232/174 147/201/147 146/200/146
f 170/279/206 147/203/147 202/286/175
f 171/282/209 169/232/174 143/199/145
f 172/216/160 94/234/176 155/617/433
f 174/186/136 71/80/61 57/79/60
f 174/236/136 81/237/63 131/183/135
f 88/138/101 179/246/183 176/599/94
f 177/241/180 84/124/91 176/127/94
f 175/621/139 81/82/63 82/597/178
f 175/242/139 82/238/178 183/243/181
f 178/622/436 183/243/181 87/240/179
f 178/622/436 87/240/179 177/241/180
f 82/238/178 87/240/179 183/243/181
f 186/255/189 176/599/94 179/246/183
f 88/138/101 93/140/102 325/247/184
f 151/208/152 182/207/151 209/250/186
f 151/208/152 209/250/186 208/291/214
f 178/623/436 185/252/187 183/251/181
f 177/432/180 185/431/187 178/624/436
f 177/241/180 186/625/189 187/626/190
f 188/254/188 179/246/183 180/245/182
f 189/259/192 187/258/190 188/627/188
f 188/254/188 180/245/182 189/628/192
f 330/257/191 177/432/180 187/258/190
f 159/215/159 160/262/195 191/218/162
f 190/629/193 160/271/195 195/272/201
f 191/218/162 160/262/195 192/261/194
f 191/218/162 192/261/194 334/441/325
f 166/229/171 198/630/202 194/268/199
f 197/448/330 198/631/202 166/270/171
f 196/267/198 197/448/330 166/270/171
f 194/273/199 199/275/203 195/276/201
f 197/448/330 200/447/204 198/631/202
f 340/454/335 196/267/198 201/278/205
f 340/454/335 197/448/330 196/267/198
f 170/279/206 202/286/175 201/278/205
f 203/280/207 202/233/175 169/232/174
f 201/278/205 196/267/198 165/231/173
f 203/280/207 206/284/211 202/233/175
f 210/294/215 355/632/340 205/292/210
f 205/283/210 355/463/340 206/284/211
f 202/286/175 354/285/212 201/278/205
f 171/633/209 208/293/214 205/292/210
f 208/293/214 209/434/186 210/294/215
f 211/235/177 191/218/162 213/296/216
f 213/296/216 191/218/162 214/468/345
f 223/299/217 222/634/225 226/298/73
f 259/635/261 223/299/217 95/4/4
f 95/4/4 215/301/219 259/635/261
f 314/636/310 217/302/220 320/303/221
f 218/305/223 221/304/222 219/306/224
f 226/99/73 222/307/225 221/304/222
f 220/100/74 219/306/224 225/312/229
f 221/304/222 223/308/217 219/306/224
f 224/310/227 219/306/224 223/308/217
f 228/95/71 220/100/74 229/313/230
f 228/96/71 229/637/230 231/311/228
f 229/638/230 230/639/231 231/317/228
f 237/316/233 232/88/67 236/97/72
f 233/594/236 67/107/80 234/110/82
f 234/110/82 68/109/81 237/640/233
f 234/110/82 237/640/233 238/641/237
f 231/317/228 230/639/231 235/318/234
f 234/110/82 238/641/237 233/594/236
f 237/642/233 240/320/235 238/322/237
f 235/318/234 230/639/231 239/323/232
f 236/319/72 240/320/235 237/642/233
f 241/325/239 233/594/236 265/358/265
f 235/318/234 264/324/238 240/320/235
f 262/363/269 240/320/235 264/324/238
f 233/321/236 240/320/235 265/643/265
f 70/121/89 233/594/236 241/325/239
f 70/121/89 241/325/239 242/327/241
f 243/122/88 70/121/89 242/327/241
f 79/331/90 243/644/88 244/329/242
f 247/399/247 76/645/244 79/331/90
f 79/331/90 298/330/243 247/399/247
f 246/396/296 244/328/242 242/327/241
f 252/646/249 245/333/245 294/395/295
f 90/133/97 92/132/96 249/340/251
f 89/129/95 78/334/246 252/646/249
f 248/136/99 89/337/95 251/339/250
f 250/336/248 90/133/97 253/341/252
f 251/339/250 252/338/249 302/347/256
f 251/339/250 301/346/255 249/340/251
f 253/341/252 249/340/251 255/342/253
f 255/342/253 249/340/251 301/346/255
f 257/349/258 250/343/248 323/429/317
f 323/429/317 250/343/248 256/345/254
f 323/429/317 256/345/254 307/414/305
f 263/351/260 224/310/227 258/309/226
f 263/351/260 261/350/259 260/647/266
f 223/308/217 259/352/261 261/350/259
f 260/647/266 272/355/263 268/648/268
f 261/350/259 215/353/219 308/354/262
f 260/647/266 261/350/259 272/355/263
f 225/312/229 224/310/227 263/351/260
f 239/315/232 225/312/229 263/351/260
f 265/643/265 240/320/235 262/363/269
f 239/323/232 263/359/260 264/324/238
f 265/643/265 266/365/271 281/383/282
f 265/643/265 262/363/269 266/365/271
f 262/363/269 264/324/238 267/361/267
f 264/324/238 260/360/266 267/361/267
f 281/383/282 266/365/271 274/388/290
f 268/362/268 271/368/274 267/361/267
f 268/648/268 272/355/263 270/649/273
f 271/368/274 269/364/270 267/361/267
f 273/366/272 271/368/274 268/362/268
f 266/365/271 271/368/274 274/388/290
f 274/388/290 271/368/274 273/366/272
f 311/392/292 270/650/273 272/651/263
f 277/372/278 276/371/277 278/374/280
f 276/371/277 427/417/307 363/373/279
f 282/408/303 275/326/240 281/376/282
f 281/376/282 275/326/240 265/358/265
f 283/378/284 282/408/303 281/376/282
f 379/652/360 283/378/284 367/379/285
f 367/381/285 285/380/286 287/653/437
f 368/654/438 367/381/285 287/653/437
f 281/383/282 274/388/290 290/385/288
f 285/380/286 286/384/287 287/653/437
f 288/391/289 270/650/273 311/392/292
f 286/384/287 291/394/294 287/653/437
f 274/388/290 273/366/272 289/389/291
f 289/389/291 273/366/272 277/390/278
f 291/394/294 286/384/287 290/385/288
f 292/477/351 368/654/438 291/394/294
f 368/654/438 287/653/437 291/394/294
f 361/569/419 289/389/291 277/390/278
f 292/477/351 291/394/294 293/393/293
f 244/329/242 246/397/296 298/330/243
f 290/385/288 289/389/291 361/569/419
f 296/402/297 294/401/295 247/655/247
f 376/405/300 295/398/275 299/406/301
f 298/330/243 295/398/275 376/405/300
f 300/656/302 299/409/301 283/378/284
f 254/657/257 252/646/249 294/395/295
f 303/498/366 302/412/256 306/658/373
f 302/412/256 254/659/257 306/658/373
f 306/505/373 294/401/295 297/403/298
f 307/414/305 255/344/253 305/660/306
f 309/357/264 308/354/262 216/356/218
f 272/651/263 309/661/264 310/418/308
f 309/661/264 216/662/218 217/420/220
f 311/392/292 272/651/263 310/418/308
f 280/375/281 312/663/439 427/417/307
f 312/663/439 280/375/281 316/664/440
f 311/392/292 313/419/309 280/375/281
f 315/422/311 313/419/309 314/421/310
f 316/664/440 280/375/281 313/419/309
f 316/664/440 313/419/309 315/422/311
f 317/424/312 290/385/288 361/569/419
f 319/427/315 95/4/4 96/144/106
f 322/426/314 95/4/4 319/427/315
f 321/665/425 320/303/221 318/425/313
f 325/247/184 326/509/376 324/430/318
f 330/257/191 331/436/321 185/431/187
f 327/437/320 328/433/319 185/252/187
f 328/433/319 329/666/441 209/434/186
f 385/667/370 331/436/321 330/257/191
f 332/439/323 385/667/370 330/257/191
f 410/538/389 329/666/441 328/433/319
f 327/435/320 331/436/321 385/667/370
f 329/666/441 410/538/389 403/668/391
f 410/538/389 328/433/319 411/438/322
f 189/628/192 180/245/182 324/430/318
f 333/669/324 189/628/192 324/430/318
f 333/669/324 324/430/318 326/509/376
f 333/669/324 326/509/376 409/670/371
f 191/218/162 334/441/325 335/465/342
f 337/444/326 334/441/325 193/266/196
f 334/441/325 337/444/326 335/465/342
f 360/446/329 335/465/342 337/444/326
f 344/449/331 197/448/330 340/454/335
f 342/459/332 341/671/333 343/672/336
f 345/673/412 344/449/331 339/453/334
f 346/458/337 344/457/331 347/556/411
f 350/674/442 344/457/331 345/557/412
f 342/459/332 343/672/336 349/552/407
f 348/560/414 343/455/336 346/458/337
f 347/556/411 344/457/331 350/674/442
f 349/552/407 343/672/336 348/675/414
f 349/552/407 351/460/338 342/459/332
f 347/556/411 352/555/410 346/458/337
f 346/458/337 352/555/410 348/560/414
f 210/294/215 329/666/441 356/676/341
f 356/676/341 355/632/340 210/294/215
f 355/463/340 207/288/213 206/284/211
f 339/453/334 340/454/335 354/285/212
f 357/462/339 207/288/213 355/463/340
f 356/676/341 329/666/441 403/668/391
f 356/464/341 403/527/391 357/462/339
f 339/677/334 395/524/388 345/678/412
f 207/523/213 424/522/387 354/679/212
f 354/679/212 424/522/387 339/677/334
f 329/666/441 210/294/215 209/434/186
f 213/296/216 214/468/345 96/297/106
f 214/468/345 191/218/162 358/466/343
f 96/297/106 359/467/344 319/469/315
f 362/473/348 278/475/280 363/471/279
f 361/569/419 277/390/278 278/680/280
f 365/476/350 362/473/348 363/471/279
f 365/476/350 363/471/279 364/470/346
f 366/472/347 435/573/416 364/470/346
f 367/681/285 368/682/438 379/490/360
f 379/490/360 368/682/438 292/683/351
f 369/684/349 361/569/419 278/680/280
f 383/572/421 292/683/351 371/685/352
f 429/570/353 371/478/352 317/424/312
f 369/684/349 370/571/420 361/569/419
f 383/572/421 371/685/352 372/533/354
f 373/518/383 369/474/349 365/476/350
f 374/482/355 375/686/299 296/400/297
f 391/483/356 297/403/298 375/404/299
f 376/405/300 300/407/302 379/687/360
f 374/482/355 376/405/300 379/687/360
f 300/656/302 283/378/284 379/652/360
f 377/688/357 378/491/361 391/508/356
f 378/491/361 377/688/357 380/492/358
f 375/486/299 374/489/355 381/488/359
f 380/487/358 381/488/359 382/495/362
f 379/490/360 292/683/351 431/496/364
f 379/490/360 431/496/364 381/488/359
f 413/530/394 378/491/361 382/493/362
f 304/410/304 302/412/256 384/499/367
f 303/498/366 306/658/373 387/501/369
f 306/689/373 391/508/356 389/507/375
f 388/504/372 384/499/367 386/500/368
f 390/506/374 306/689/373 389/507/375
f 387/536/369 306/689/373 390/506/374
f 307/416/305 304/410/304 384/499/367
f 390/506/374 378/491/361 412/539/397
f 323/429/317 307/414/305 326/509/376
f 326/509/376 388/510/372 409/670/371
f 395/558/388 396/690/381 400/691/443
f 396/690/381 397/517/380 400/691/443
f 430/516/382 400/691/443 397/517/380
f 352/555/410 400/691/443 440/579/426
f 352/555/410 440/579/426 401/692/444
f 440/579/426 400/691/443 430/516/382
f 401/693/444 441/520/385 402/519/384
f 406/528/392 404/521/386 207/523/213
f 357/462/339 405/526/390 406/531/392
f 403/527/391 405/526/390 357/462/339
f 424/522/387 398/513/379 396/515/381
f 410/525/389 412/694/397 405/526/390
f 412/694/397 413/530/394 405/526/390
f 413/530/394 382/493/362 406/531/392
f 382/495/362 407/529/393 406/528/392
f 398/513/379 432/532/395 372/533/354
f 407/529/393 432/532/395 424/522/387
f 385/667/370 387/695/369 327/435/320
f 411/438/322 327/437/320 387/696/369
f 332/697/323 386/500/368 385/502/370
f 387/696/369 408/698/396 411/438/322
f 386/500/368 332/697/323 409/503/371
f 412/539/397 408/535/396 390/506/374
f 411/438/322 408/698/396 412/537/397
f 414/564/415 336/563/328 337/699/326
f 353/461/327 414/564/415 337/699/326
f 426/547/316 319/700/315 336/563/328
f 414/564/415 353/461/327 415/540/398
f 353/461/327 351/460/338 415/540/398
f 415/540/398 416/542/400 414/564/415
f 416/542/400 425/546/404 414/564/415
f 416/542/400 417/544/402 425/546/404
f 350/674/442 345/557/412 421/554/409
f 415/540/398 351/460/338 349/552/407
f 347/556/411 350/674/442 421/554/409
f 421/554/409 395/558/388 400/691/443
f 352/555/410 421/554/409 400/691/443
f 420/553/408 348/675/414 399/561/413
f 423/701/429 420/553/408 402/562/384
f 420/553/408 423/701/429 422/543/401
f 352/555/410 401/692/444 399/559/413
f 402/519/384 399/702/413 401/693/444
f 423/584/429 402/519/384 373/518/383
f 423/701/429 419/541/399 422/543/401
f 418/548/405 419/550/399 423/584/429
f 339/677/334 424/522/387 395/524/388
f 406/531/392 207/288/213 357/462/339
f 426/547/316 414/564/415 425/546/404
f 366/565/347 363/373/279 427/417/307
f 436/511/377 364/470/346 435/573/416
f 437/568/418 435/566/416 427/417/307
f 427/417/307 428/703/445 439/567/417
f 439/567/417 428/703/445 320/423/221
f 428/703/445 316/664/440 320/423/221
f 312/663/439 316/664/440 428/703/445
f 427/417/307 312/663/439 428/703/445
f 429/480/353 370/578/420 430/516/382
f 431/496/364 292/683/351 383/572/421
f 372/533/354 432/532/395 383/572/421
f 432/532/395 434/494/363 381/488/359
f 394/575/423 393/574/422 318/704/313
f 437/568/418 393/705/422 435/566/416
f 444/581/428 392/512/378 394/575/423
f 392/512/378 444/581/428 442/549/406
f 438/576/424 435/573/416 394/575/423
f 394/575/423 318/704/313 322/583/314
f 321/577/425 318/706/313 437/568/418
f 439/567/417 320/423/221 321/577/425
f 370/578/420 441/707/385 440/579/426
f 441/707/385 370/578/420 369/708/349
f 369/474/349 373/518/383 441/520/385
f 401/692/444 440/579/426 441/707/385
f 418/548/405 373/518/383 442/549/406
f 419/541/399 445/580/427 417/544/402
f 419/550/399 442/549/406 445/582/427
f 445/580/427 322/551/314 443/545/403
f 49/47/36 41/59/45 39/35/26
f 47/65/51 49/589/36 50/50/38
f 115/158/116 43/157/115 120/63/49
f 138/193/141 121/192/140 144/611/128
f 148/204/148 142/175/130 122/174/129
f 165/231/173 163/227/170 161/220/164
f 186/625/189 177/241/180 176/127/94
f 224/310/227 225/312/229 219/306/224
f 252/646/249 78/334/246 245/333/245
f 306/505/373 254/709/257 294/401/295
f 309/661/264 217/420/220 310/418/308
f 316/664/440 315/422/311 320/423/221
f 201/278/205 354/285/212 340/454/335
f 420/553/408 349/552/407 348/675/414
f 393/705/422 437/568/418 318/706/313
