# Blender v2.93.5 OBJ File: ''
# www.blender.org
mtllib fence1.mtl
o STFence1_Cubo.007
v 0.571554 0.015587 0.089490
v 0.561945 0.947934 0.087719
v 0.567639 0.013772 -0.081135
v 0.560101 0.950711 -0.091467
v 0.739869 0.015854 0.087730
v 0.742223 0.949484 0.089407
v 0.735331 0.014537 -0.090411
v 0.742985 0.951086 -0.087987
v -0.573551 0.017946 0.079812
v -0.561922 0.951280 0.091375
v -0.579811 0.015127 -0.082104
v -0.558929 0.952377 -0.091334
v -0.738914 0.015495 0.080342
v -0.743496 0.950374 0.088576
v -0.739581 0.015382 -0.080937
v -0.745274 0.954075 -0.093767
v 0.567738 0.010374 -0.003978
v 0.552529 0.849759 0.097919
v 0.552283 0.964731 0.000099
v 0.582183 0.121334 -0.081164
v 0.653986 0.011323 -0.084595
v 0.653654 0.960449 -0.096398
v 0.738463 0.121425 -0.081289
v 0.740298 0.010007 -0.003842
v 0.752234 0.964543 -0.000283
v 0.741018 0.121388 0.084020
v 0.652700 0.009665 0.091211
v 0.653750 0.961659 0.097599
v -0.560346 0.012865 -0.005710
v -0.551553 0.849788 0.099575
v -0.552266 0.964716 0.000080
v -0.587545 0.121498 -0.080382
v -0.658980 0.010583 -0.088602
v -0.653614 0.962144 -0.097795
v -0.747288 0.121361 -0.082905
v -0.755887 0.010029 -0.005397
v -0.752400 0.964620 -0.000246
v -0.748458 0.121335 0.083984
v -0.659593 0.010025 0.090370
v -0.653808 0.963147 0.097990
v 0.569949 0.363854 0.088839
v 0.554881 0.606615 -0.093304
v 0.742668 0.606827 -0.093602
v 0.741949 0.606968 0.091212
v 0.555980 0.606695 0.094251
v 0.551063 0.849736 -0.098538
v 0.745854 0.849955 -0.096045
v 0.749301 0.849577 0.100943
v 0.571927 0.363938 -0.086450
v 0.745367 0.364051 -0.091052
v 0.745633 0.364143 0.091169
v 0.578418 0.121507 0.082990
v -0.584234 0.121314 0.082746
v -0.575358 0.363789 0.089506
v -0.555958 0.606657 0.094250
v -0.551315 0.849797 -0.098637
v -0.555924 0.606779 -0.092017
v -0.576981 0.363674 -0.089986
v -0.746615 0.849854 -0.096797
v -0.743323 0.606817 -0.093799
v -0.746342 0.364039 -0.088809
v -0.750362 0.849588 0.100446
v -0.743047 0.606878 0.091280
v -0.749394 0.364039 0.090131
v -0.549178 0.606998 0.000285
v -0.566408 0.363708 -0.000043
v -0.578070 0.122090 -0.000249
v -0.649919 0.606851 -0.101704
v -0.664237 0.363991 -0.099879
v -0.666716 0.121244 -0.092768
v -0.751505 0.607149 0.000193
v -0.753761 0.364536 0.000412
v -0.751600 0.121533 0.000308
v -0.649917 0.606718 0.105462
v -0.662307 0.364036 0.094630
v -0.664466 0.121284 0.092668
v 0.658296 0.121368 0.092863
v 0.746509 0.121427 0.000205
v 0.659011 0.121334 -0.091116
v 0.574859 0.122130 -0.000157
v 0.549198 0.607041 0.000303
v 0.649933 0.606850 -0.101710
v 0.751510 0.607139 0.000218
v 0.649924 0.606724 0.105463
v 0.562369 0.363989 0.000068
v 0.658257 0.363979 -0.099830
v 0.752987 0.364500 0.000384
v 0.658336 0.364025 0.095022
v -0.654115 0.980358 -0.000132
v -0.649755 0.849693 0.106152
v -0.755106 0.849775 0.000035
v -0.650076 0.849650 -0.109844
v -0.543058 0.849660 -0.000467
v 0.654152 0.980008 -0.000110
v 0.649728 0.849714 0.106157
v 0.755134 0.849790 0.000029
v 0.650157 0.849699 -0.109844
v 0.543090 0.849670 -0.000448
v 0.697702 0.296734 0.101126
v 0.684607 0.298057 0.140642
v 0.691387 0.394315 0.104824
v 0.683668 0.397985 0.140083
v -0.704588 0.298236 0.103884
v -0.697719 0.302894 0.139742
v -0.694797 0.403987 0.103157
v -0.694600 0.402996 0.147945
v 0.698859 0.349338 0.092684
v 0.681004 0.343779 0.146994
v -0.699016 0.350327 0.096353
v -0.694670 0.350196 0.148662
v 0.658291 0.295404 0.097462
v 0.656014 0.399886 0.101017
v 0.059969 0.292452 0.152255
v 0.060147 0.404363 0.155477
v 0.299312 0.286401 0.096181
v 0.299470 0.406968 0.095193
v 0.419280 0.294066 0.151916
v 0.418925 0.389137 0.142759
v -0.658724 0.293979 0.095863
v -0.658991 0.413367 0.096538
v -0.059905 0.301085 0.151283
v -0.059869 0.404015 0.154237
v -0.299254 0.302042 0.098135
v -0.299265 0.416571 0.096082
v -0.299238 0.357093 0.080904
v -0.059958 0.351068 0.155819
v -0.659041 0.352619 0.082073
v 0.059887 0.350227 0.083389
v 0.658493 0.338777 0.154107
v 0.299156 0.343701 0.154268
v 0.418826 0.345656 0.082771
v -0.538735 0.295177 0.095005
v -0.538740 0.413959 0.098703
v -0.657851 0.300098 0.155231
v -0.538403 0.300276 0.154916
v -0.657921 0.410161 0.154011
v -0.538701 0.410311 0.150327
v -0.659707 0.351571 0.160819
v -0.538933 0.354547 0.156716
v -0.538697 0.354829 0.081345
v -0.299285 0.300265 0.152850
v -0.299357 0.409898 0.151972
v -0.059845 0.294731 0.096239
v -0.059877 0.410222 0.095899
v -0.059828 0.352497 0.082817
v -0.299449 0.356625 0.159438
v 0.299789 0.288885 0.153950
v 0.299143 0.394342 0.142338
v 0.059854 0.291059 0.096091
v 0.059890 0.408635 0.096056
v 0.299303 0.345706 0.086053
v 0.059840 0.349521 0.155418
v 0.418996 0.293165 0.097098
v 0.538646 0.299431 0.098560
v 0.419154 0.402665 0.097041
v 0.538760 0.404534 0.096812
v 0.658852 0.297158 0.148735
v 0.539203 0.296462 0.150864
v 0.658539 0.399961 0.143806
v 0.538604 0.384239 0.141796
v 0.418695 0.341211 0.152064
v 0.538483 0.330140 0.149845
v 0.658713 0.343549 0.080986
v 0.538750 0.338156 0.079306
v 0.712101 0.578834 0.104625
v 0.702634 0.590188 0.160783
v 0.706103 0.753427 0.104462
v 0.704226 0.755801 0.162173
v -0.707536 0.586753 0.108295
v -0.711372 0.577959 0.169419
v -0.712309 0.761273 0.104586
v -0.701968 0.747987 0.162409
v 0.718992 0.670174 0.100154
v 0.714274 0.670418 0.166092
v -0.716935 0.669590 0.100418
v -0.714720 0.669603 0.170719
v -0.631090 0.570498 0.100173
v -0.630894 0.763513 0.100963
v -0.631084 0.570982 0.173145
v -0.630863 0.761316 0.173810
v -0.630963 0.667143 0.183042
v -0.630872 0.666972 0.093630
v -0.270343 0.565368 0.100435
v -0.270573 0.746982 0.104031
v -0.270335 0.565251 0.171406
v -0.270380 0.746440 0.161457
v -0.270309 0.661360 0.180849
v -0.270328 0.661217 0.098205
v -0.090199 0.573708 0.173105
v -0.090628 0.756077 0.166095
v -0.090102 0.570946 0.100425
v -0.090470 0.754440 0.101667
v -0.090228 0.666973 0.096346
v -0.090232 0.667061 0.178612
v 0.270193 0.583764 0.101054
v 0.270074 0.775962 0.100331
v 0.270214 0.584273 0.173557
v 0.270012 0.775969 0.168222
v 0.270204 0.679347 0.181849
v 0.270033 0.679433 0.092033
v 0.450297 0.588142 0.172484
v 0.450340 0.774724 0.170759
v 0.450284 0.583215 0.100017
v 0.450372 0.776298 0.099346
v 0.450292 0.679485 0.093345
v 0.450336 0.679397 0.180864
v 0.630659 0.576459 0.101069
v 0.630961 0.769378 0.100431
v 0.631008 0.582640 0.170570
v 0.631037 0.769219 0.172349
v 0.630948 0.673012 0.181746
v 0.630669 0.673045 0.092224
vt 0.690440 0.838718
vt 0.694531 0.785438
vt 0.746326 0.791353
vt 0.746326 0.842835
vt 0.636584 0.834673
vt 0.644595 0.785936
vt 0.686706 0.892663
vt 0.637602 0.885312
vt 0.200619 0.780936
vt 0.202995 0.732577
vt 0.335901 0.733216
vt 0.333852 0.784368
vt 0.329792 0.007002
vt 0.464308 0.000221
vt 0.463804 0.054247
vt 0.332200 0.057987
vt 0.202881 0.684113
vt 0.202767 0.634553
vt 0.335297 0.633392
vt 0.335531 0.683397
vt 0.463157 0.682771
vt 0.461268 0.631769
vt 0.514880 0.631343
vt 0.525996 0.681207
vt 0.636142 0.844316
vt 0.582157 0.841433
vt 0.585326 0.785438
vt 0.636142 0.791542
vt 0.631277 0.895037
vt 0.579067 0.895513
vt 0.529550 0.888501
vt 0.528047 0.838135
vt 0.527605 0.057035
vt 0.518012 0.108798
vt 0.462364 0.107661
vt 0.063681 0.776892
vt 0.063099 0.731987
vt 0.329840 0.482002
vt 0.331846 0.532214
vt 0.198851 0.537562
vt 0.196590 0.487929
vt 0.064234 0.684374
vt 0.002579 0.775627
vt 0.001314 0.728936
vt 0.331881 0.835454
vt 0.198375 0.829568
vt 0.063558 0.821534
vt 0.327559 0.430140
vt 0.461582 0.424206
vt 0.461785 0.476947
vt 0.333362 0.211666
vt 0.332785 0.262137
vt 0.199451 0.260243
vt 0.199962 0.211187
vt 0.334257 0.108941
vt 0.200611 0.585556
vt 0.333385 0.582957
vt 0.063918 0.120369
vt 0.200942 0.115618
vt 0.200555 0.163612
vt 0.066091 0.166088
vt 0.463560 0.159106
vt 0.333719 0.159979
vt 0.008209 0.302825
vt 0.066502 0.303193
vt 0.063886 0.347440
vt 0.002572 0.347608
vt 0.198391 0.309337
vt 0.331929 0.314259
vt 0.330759 0.366152
vt 0.196957 0.354710
vt 0.464358 0.368980
vt 0.464126 0.423764
vt 0.329340 0.418557
vt 0.195116 0.015619
vt 0.198232 0.065888
vt 0.462823 0.211290
vt 0.464517 0.263827
vt 0.061312 0.391616
vt 0.002085 0.391785
vt 0.068182 0.212546
vt 0.194959 0.403111
vt 0.060663 0.027772
vt 0.062543 0.072930
vt 0.066897 0.257948
vt 0.005505 0.259944
vt 0.001364 0.028057
vt 0.000221 0.071887
vt 0.010011 0.211571
vt 0.004386 0.167442
vt 0.005223 0.119597
vt 0.464605 0.786774
vt 0.465642 0.839436
vt 0.000382 0.493388
vt 0.062022 0.494316
vt 0.062993 0.541487
vt 0.004473 0.543458
vt 0.005129 0.819995
vt 0.001193 0.590829
vt 0.063443 0.588740
vt 0.000221 0.686322
vt 0.462918 0.733981
vt 0.063042 0.635604
vt 0.462067 0.581358
vt 0.464569 0.315999
vt 0.001471 0.445698
vt 0.060334 0.449074
vt 0.525644 0.161115
vt 0.517798 0.212112
vt 0.460701 0.530038
vt 0.527605 0.262360
vt 0.522160 0.315269
vt 0.526940 0.366736
vt 0.521681 0.419873
vt 0.515004 0.528937
vt 0.523008 0.578896
vt 0.524979 0.478395
vt 0.525996 0.786185
vt 0.522559 0.836705
vt 0.193990 0.437446
vt 0.518209 0.428896
vt 0.738372 0.891894
vt 0.518193 0.733447
vt 0.002339 0.634794
vt 0.534008 0.787097
vt 0.522210 0.005175
vt 0.054160 0.869448
vt 0.024516 0.870423
vt 0.030575 0.839878
vt 0.054160 0.849779
vt 0.960833 0.153699
vt 0.927970 0.154771
vt 0.926402 0.089170
vt 0.963134 0.087907
vt 0.902166 0.351502
vt 0.903415 0.221889
vt 0.930039 0.221145
vt 0.934103 0.351217
vt 0.966088 0.678460
vt 0.999779 0.680619
vt 0.993555 0.746948
vt 0.961932 0.741657
vt 0.931387 0.736758
vt 0.929543 0.756914
vt 0.904237 0.755394
vt 0.903928 0.735826
vt 0.112195 0.865187
vt 0.082950 0.868327
vt 0.083586 0.839878
vt 0.112195 0.840899
vt 0.999194 0.547663
vt 0.967361 0.547747
vt 0.821534 0.086828
vt 0.825517 0.021457
vt 0.852475 0.025250
vt 0.850684 0.088083
vt 0.906629 0.012741
vt 0.926273 0.009325
vt 0.926412 0.028334
vt 0.905201 0.025906
vt 0.904956 0.677016
vt 0.932590 0.677093
vt 0.875450 0.738637
vt 0.875105 0.677495
vt 0.996808 0.218246
vt 0.963805 0.219568
vt 0.990804 0.152660
vt 0.869327 0.088743
vt 0.874593 0.155352
vt 0.848291 0.154738
vt 0.874243 0.548090
vt 0.903441 0.547998
vt 0.966852 0.416068
vt 0.934172 0.416673
vt 0.966691 0.350331
vt 0.875232 0.758122
vt 0.813531 0.219280
vt 0.845113 0.220127
vt 0.842232 0.349494
vt 0.811767 0.349918
vt 0.999779 0.349275
vt 0.874052 0.025151
vt 0.899547 0.088793
vt 0.933916 0.547894
vt 0.813186 0.680453
vt 0.813178 0.548188
vt 0.843193 0.548188
vt 0.846023 0.678319
vt 0.850304 0.738192
vt 0.872913 0.350675
vt 0.874958 0.221195
vt 0.876890 0.012475
vt 0.830922 0.000221
vt 0.851415 0.010765
vt 0.901731 0.416531
vt 0.901578 0.155458
vt 0.959404 0.764331
vt 0.987626 0.772123
vt 0.844319 0.415714
vt 0.872240 0.416222
vt 0.813492 0.415835
vt 0.986444 0.086910
vt 0.956793 0.025005
vt 0.983711 0.022135
vt 0.817757 0.153282
vt 0.820752 0.744703
vt 0.951363 0.003436
vt 0.980602 0.000451
vt 0.000221 0.864111
vt 0.001735 0.841582
vt 0.054602 0.863892
vt 0.057796 0.844195
vt 0.848934 0.759821
vt 0.999569 0.415276
vt 0.830787 0.767800
vt 0.666795 0.246857
vt 0.633885 0.246828
vt 0.632898 0.049104
vt 0.670049 0.051425
vt 0.746768 0.830949
vt 0.782587 0.832124
vt 0.778565 0.875985
vt 0.747432 0.880663
vt 0.751257 0.785438
vt 0.782587 0.785468
vt 0.634632 0.727191
vt 0.635389 0.767409
vt 0.591191 0.781282
vt 0.585984 0.733981
vt 0.532121 0.345010
vt 0.584721 0.347014
vt 0.581154 0.542485
vt 0.528758 0.541656
vt 0.714686 0.777015
vt 0.667899 0.766014
vt 0.669862 0.726435
vt 0.717487 0.731989
vt 0.669636 0.637204
vt 0.632828 0.637236
vt 0.717514 0.346946
vt 0.668194 0.349246
vt 0.716672 0.246336
vt 0.668279 0.543644
vt 0.720225 0.542543
vt 0.770771 0.049098
vt 0.811325 0.047395
vt 0.809798 0.246043
vt 0.770814 0.245821
vt 0.811767 0.821921
vt 0.816620 0.776783
vt 0.849896 0.772565
vt 0.849896 0.822286
vt 0.845206 0.865320
vt 0.813190 0.871720
vt 0.635684 0.004391
vt 0.581349 0.047971
vt 0.583873 0.000221
vt 0.584868 0.246831
vt 0.632734 0.349168
vt 0.531526 0.246761
vt 0.718703 0.049029
vt 0.719831 0.638410
vt 0.632462 0.543684
vt 0.581667 0.638958
vt 0.529644 0.641302
vt 0.534322 0.739825
vt 0.809156 0.344851
vt 0.769119 0.344960
vt 0.771556 0.541710
vt 0.715517 0.002281
vt 0.768077 0.003950
vt 0.763968 0.735213
vt 0.768985 0.640158
vt 0.809181 0.642238
vt 0.800597 0.741045
vt 0.759780 0.773904
vt 0.670147 0.011696
vt 0.790001 0.784996
vt 0.803762 0.002671
vt 0.811325 0.542108
vt 0.540978 0.784036
vt 0.528047 0.048045
vt 0.536992 0.004766
vn 0.0016 1.0000 0.0032
vn 0.0133 0.6846 -0.7288
vn -0.5860 0.5416 -0.6027
vn -0.7126 0.7015 0.0094
vn 0.7329 0.6804 -0.0058
vn 0.6098 0.5256 -0.5933
vn -0.0068 0.6826 0.7308
vn 0.6014 0.5274 0.6001
vn -0.0131 -0.0256 -0.9996
vn -0.7171 -0.0532 -0.6949
vn -0.7222 -0.0442 -0.6902
vn -0.0040 -0.0206 -0.9998
vn 0.7218 -0.0484 -0.6904
vn 0.7133 0.0379 -0.6998
vn 0.9995 0.0319 0.0041
vn 0.9987 -0.0500 -0.0022
vn -0.9985 -0.0530 -0.0104
vn -0.7117 -0.0510 0.7006
vn -0.7160 -0.0399 0.6970
vn -0.9992 -0.0403 0.0019
vn -0.9994 0.0343 0.0083
vn -0.7072 0.0489 0.7053
vn -0.5946 0.5305 0.6042
vn 0.0008 0.6876 -0.7261
vn -0.0019 1.0000 0.0056
vn 0.7159 0.6982 0.0054
vn 0.5936 0.5428 -0.5941
vn -0.6046 0.5235 -0.6003
vn -0.7346 0.6785 0.0025
vn -0.6090 0.5283 0.5916
vn -0.0073 0.6872 0.7264
vn 0.5817 0.5400 0.6083
vn 0.7061 0.0438 0.7067
vn -0.0212 -0.0205 -0.9996
vn -0.7050 -0.0020 -0.7092
vn 1.0000 -0.0050 -0.0028
vn 0.7118 -0.0181 0.7022
vn 0.7092 -0.0169 0.7048
vn 1.0000 -0.0086 -0.0031
vn -0.9998 0.0175 -0.0096
vn -0.0307 -0.0064 -0.9995
vn -0.7471 0.0548 -0.6625
vn 0.7091 -0.0116 -0.7050
vn 0.7125 -0.0216 -0.7013
vn 0.7149 -0.0321 -0.6985
vn 0.7097 0.0298 -0.7038
vn 0.9999 0.0107 -0.0076
vn -0.7165 -0.0160 0.6974
vn -1.0000 -0.0028 -0.0081
vn -0.9999 0.0044 -0.0096
vn -0.7196 -0.0086 0.6944
vn 0.7156 -0.0484 0.6968
vn -0.0027 -0.0234 0.9997
vn 0.0003 -0.0223 0.9998
vn 0.6951 0.0141 0.7188
vn 0.7015 -0.0578 0.7103
vn -0.0015 -0.0237 0.9997
vn 0.0033 -0.0219 0.9998
vn -0.0044 0.0350 0.9994
vn -0.0043 -0.0235 0.9997
vn -0.6900 -0.0316 -0.7232
vn -0.7219 -0.0248 -0.6916
vn 0.0007 -0.0261 -0.9997
vn 0.0100 -0.0187 -0.9998
vn -0.7220 -0.0094 -0.6918
vn -0.7117 -0.0126 -0.7024
vn 0.0015 -0.0203 -0.9998
vn -0.0004 -0.0224 -0.9997
vn 0.0010 0.0270 -0.9996
vn 0.7031 -0.0569 -0.7088
vn 0.9980 -0.0617 -0.0098
vn -0.7090 0.0309 0.7046
vn -1.0000 0.0074 -0.0064
vn 0.6922 0.0099 -0.7217
vn 0.6882 0.0748 -0.7216
vn -0.7194 -0.0281 0.6940
vn 0.9989 0.0397 -0.0230
vn -0.9999 -0.0134 -0.0068
vn -0.9997 -0.0212 -0.0091
vn 0.9913 0.1255 -0.0404
vn -0.6927 -0.0408 0.7200
vn 0.0066 -0.0250 0.9997
vn 0.7269 0.0748 0.6827
vn 0.0113 0.0377 -0.9992
vn 0.9991 -0.0360 -0.0233
vn 0.9994 -0.0313 -0.0144
vn 0.7196 -0.0237 0.6940
vn 0.7094 -0.0175 0.7046
vn 0.6674 -0.0171 -0.7445
vn -0.0017 0.0171 0.9999
vn -0.0037 -0.0013 1.0000
vn -0.9966 0.0823 -0.0031
vn -0.7131 0.0439 -0.6997
vn -0.7168 0.0102 0.6972
vn -0.0073 0.0396 0.9992
vn -0.7115 0.0161 -0.7025
vn 0.7039 0.0315 0.7096
vn -0.7136 0.0608 0.6979
vn 0.5894 0.6115 0.5280
vn 0.6621 0.0337 0.7486
vn 0.8316 0.0647 -0.5516
vn 0.7061 0.6085 -0.3621
vn -0.0064 -0.0241 -0.9997
vn 0.0140 0.8684 -0.4956
vn -0.0083 0.8752 -0.4837
vn 0.0021 -0.0586 -0.9983
vn 0.0204 0.6840 0.7292
vn 0.0340 0.6927 0.7205
vn 0.0244 0.8336 -0.5518
vn 0.0156 0.8112 -0.5846
vn 0.0003 0.0096 -1.0000
vn 0.0089 -0.8061 -0.5917
vn -0.1131 -0.7963 -0.5942
vn -0.1364 0.0133 -0.9906
vn -0.1566 0.7910 -0.5914
vn -0.6995 0.5689 -0.4325
vn -0.6795 0.5218 0.5158
vn -0.1370 0.7143 0.6863
vn -0.7951 0.0312 -0.6057
vn -0.7611 0.0103 0.6486
vn 0.0016 -0.8023 -0.5969
vn 0.0010 -0.0037 -1.0000
vn 0.0051 -0.8179 -0.5753
vn 0.0725 -0.8095 -0.5827
vn 0.1147 -0.7062 0.6987
vn 0.0104 -0.7185 0.6955
vn 0.0837 0.8352 -0.5436
vn 0.0792 0.7251 0.6841
vn 0.0045 0.7256 0.6881
vn -0.0043 0.8197 -0.5727
vn -0.1413 -0.0044 0.9900
vn 0.0100 0.0244 0.9997
vn 0.0101 -0.7901 -0.6129
vn 0.0005 -0.0086 -1.0000
vn 0.0229 -0.8004 -0.5990
vn -0.0022 0.0654 0.9979
vn 0.0178 0.0982 0.9950
vn 0.0417 -0.7014 0.7116
vn 0.0010 0.0089 1.0000
vn 0.0052 0.7103 0.7039
vn 0.0013 -0.0078 -1.0000
vn 0.0149 0.8118 -0.5837
vn 0.0027 -0.0031 -1.0000
vn 0.0169 -0.7058 0.7082
vn -0.0256 -0.7122 0.7015
vn -0.0232 -0.7921 -0.6099
vn 0.1216 0.0261 0.9922
vn -0.0164 0.6433 0.7655
vn 0.0068 0.8227 -0.5684
vn 0.0033 -0.7267 0.6869
vn 0.0128 -0.7101 0.7040
vn -0.1302 -0.6756 0.7256
vn 0.0058 0.0060 1.0000
vn 0.0158 0.0721 0.9973
vn 0.7190 -0.6055 -0.3411
vn 0.5834 -0.6078 0.5387
vn 0.0101 0.6861 0.7274
vn 0.0253 0.6599 0.7509
vn -0.7206 -0.5828 -0.3757
vn -0.0198 -0.7116 0.7023
vn 0.0015 -0.0198 0.9998
vn -0.0243 -0.8032 -0.5953
vn 0.1104 -0.0116 -0.9938
vn -0.6729 -0.5542 0.4900
vn 0.0021 0.7607 0.6491
vn -0.0016 0.7261 -0.6875
vn -0.0395 0.7546 -0.6550
vn -0.0590 0.7310 0.6798
vn 0.7716 0.0077 -0.6360
vn 0.7467 0.0012 0.6652
vn 0.5727 -0.5724 0.5868
vn 0.6063 -0.6374 -0.4755
vn 0.6204 0.5640 -0.5450
vn 0.6196 0.5817 0.5270
vn 0.1042 0.7383 -0.6664
vn 0.0370 -0.0013 -0.9993
vn 0.0224 -0.7316 -0.6814
vn -0.0081 0.0090 -0.9999
vn -0.0032 0.0002 -1.0000
vn 0.0137 -0.7400 -0.6725
vn 0.1275 0.7314 0.6699
vn 0.0828 -0.0078 0.9965
vn 0.0099 0.7434 0.6688
vn 0.0138 0.7392 -0.6733
vn -0.0066 0.0424 0.9991
vn -0.0436 0.7616 0.6465
vn 0.0047 0.0381 0.9993
vn -0.0240 0.7582 0.6515
vn -0.0035 0.0263 0.9996
vn -0.0881 -0.7433 0.6632
vn -0.0835 -0.7238 -0.6850
vn 0.0090 -0.7292 -0.6842
vn 0.0109 -0.7420 0.6703
vn -0.7504 0.0058 -0.6610
vn -0.6221 -0.5491 -0.5581
vn -0.6180 -0.5887 0.5211
vn -0.7424 0.0238 0.6695
vn -0.5908 0.5627 0.5782
vn -0.6115 0.6238 -0.4867
vn -0.0361 0.0006 -0.9993
vn 0.0002 0.0137 -0.9999
vn -0.0441 0.7235 -0.6890
vn -0.0575 0.0271 0.9980
vn -0.0004 0.0082 1.0000
vn -0.0223 0.7381 -0.6743
vn 0.0003 -0.0028 -1.0000
vn -0.0093 -0.7497 -0.6617
vn 0.0354 -0.7713 -0.6355
vn 0.0246 -0.7234 0.6900
vn 0.0153 -0.7232 0.6905
vn 0.0619 -0.7069 0.7046
vn -0.0058 -0.7155 0.6986
usemtl STFence_MAT
s 1
f 94/1/1 22/2/2 4/3/3 19/4/4
f 94/1/1 25/5/5 8/6/6 22/2/2
f 94/1/1 28/7/7 6/8/8 25/5/5
f 86/9/9 49/10/10 42/11/11 82/12/12
f 57/13/13 56/14/14 93/15/15 65/16/16
f 85/17/17 41/18/18 45/19/19 81/20/20
f 98/21/21 18/22/22 2/23/23 19/24/4
f 34/25/24 89/26/25 31/27/26 12/28/27
f 89/26/25 34/25/24 16/29/28 37/30/29
f 89/26/25 37/30/29 14/31/30 40/32/31
f 93/15/15 31/33/26 10/34/32 30/35/33
f 49/10/10 86/9/9 79/36/34 20/37/35
f 83/38/36 44/39/37 51/40/38 87/41/39
f 49/10/10 20/37/35 80/42/40 85/17/17
f 21/43/41 3/44/42 20/37/35 79/36/34
f 43/45/43 50/46/44 86/9/9 82/12/12
f 86/9/9 50/46/44 23/47/45 79/36/34
f 83/38/36 43/48/43 47/49/46 96/50/47
f 63/51/48 71/52/49 72/53/50 64/54/51
f 30/35/33 55/55/52 65/16/16 93/15/15
f 45/19/19 41/18/18 88/56/53 84/57/54
f 53/58/55 54/59/56 75/60/57 76/61/58
f 30/35/33 90/62/59 74/63/60 55/55/52
f 15/64/61 35/65/62 70/66/63 33/67/64
f 61/68/65 60/69/66 68/70/67 69/71/68
f 61/68/65 72/53/50 71/52/49 60/69/66
f 45/19/19 18/22/22 98/21/21 81/20/20
f 92/72/69 56/73/14 57/74/13 68/70/67
f 58/75/70 57/13/13 65/16/16 66/76/71
f 63/51/48 62/77/72 91/78/73 71/52/49
f 70/66/63 32/79/74 11/80/75 33/67/64
f 38/81/76 76/61/58 75/60/57 64/54/51
f 58/82/70 69/71/68 68/70/67 57/74/13
f 32/83/74 58/75/70 66/76/71 67/84/77
f 73/85/78 35/65/62 15/64/61 36/86/79
f 11/87/75 32/83/74 67/84/77 29/88/80
f 35/65/62 61/68/65 69/71/68 70/66/63
f 35/65/62 73/85/78 72/53/50 61/68/65
f 76/61/58 38/81/76 13/89/81 39/90/82
f 67/84/77 53/58/55 9/91/83 29/88/80
f 55/55/52 54/59/56 66/76/71 65/16/16
f 43/45/43 82/12/12 97/92/84 47/93/46
f 13/89/81 38/81/76 73/85/78 36/86/79
f 24/94/85 78/95/86 26/96/87 5/97/88
f 54/59/56 53/58/55 67/84/77 66/76/71
f 21/43/41 79/36/34 23/47/45 7/98/89
f 27/99/90 5/97/88 26/96/87 77/100/91
f 17/101/92 80/42/40 20/37/35 3/44/42
f 46/102/93 97/92/84 82/12/12 42/11/11
f 26/96/87 51/40/38 88/56/53 77/100/91
f 85/17/17 80/42/40 52/103/94 41/18/18
f 45/19/19 84/57/54 95/104/95 18/22/22
f 60/69/66 59/105/96 92/72/69 68/70/67
f 81/20/20 98/21/21 46/102/93 42/11/11
f 24/94/85 7/106/89 23/107/45 78/95/86
f 63/51/48 74/63/60 90/62/59 62/77/72
f 53/58/55 76/61/58 39/90/82 9/91/83
f 81/20/20 42/11/11 49/10/10 85/17/17
f 62/77/72 90/62/59 40/108/31 14/109/30
f 96/50/47 48/110/97 44/39/37 83/38/36
f 37/111/29 16/112/28 59/105/96 91/78/73
f 54/59/56 55/55/52 74/63/60 75/60/57
f 34/113/24 12/114/27 56/73/14 92/72/69
f 60/69/66 71/52/49 91/78/73 59/105/96
f 38/81/76 64/54/51 72/53/50 73/85/78
f 6/115/8 28/116/7 95/104/95 48/110/97
f 25/117/5 6/115/8 48/110/97 96/50/47
f 84/57/54 44/39/37 48/110/97 95/104/95
f 88/56/53 51/40/38 44/39/37 84/57/54
f 22/118/2 8/119/6 47/93/46 97/92/84
f 30/35/33 10/34/32 40/108/31 90/62/59
f 23/107/45 50/120/44 87/41/39 78/95/86
f 8/121/6 25/117/5 96/50/47 47/49/46
f 26/96/87 78/95/86 87/41/39 51/40/38
f 94/1/1 19/4/4 2/122/23 28/7/7
f 52/103/94 77/100/91 88/56/53 41/18/18
f 4/123/3 22/118/2 97/92/84 46/102/93
f 2/23/23 18/22/22 95/104/95 28/116/7
f 64/54/51 75/60/57 74/63/60 63/51/48
f 77/100/91 52/103/94 1/124/98 27/99/90
f 19/24/4 4/123/3 46/102/93 98/21/21
f 40/32/31 10/125/32 31/27/26 89/26/25
f 80/42/40 17/101/92 1/124/98 52/103/94
f 14/109/30 37/111/29 91/78/73 62/77/72
f 32/79/74 70/66/63 69/71/68 58/82/70
f 16/112/28 34/113/24 92/72/69 59/105/96
f 12/126/27 31/33/26 93/15/15 56/14/14
f 83/38/36 87/41/39 50/120/44 43/48/43
f 102/127/99 108/128/100 107/129/101 101/130/102
f 131/131/103 155/132/104 156/133/105 164/134/106
f 114/135/107 148/136/108 116/137/109 150/138/110
f 140/139/111 132/140/112 119/141/113 127/142/114
f 120/143/115 105/144/116 106/145/117 136/146/118
f 105/147/116 109/148/119 110/149/120 106/150/117
f 123/151/121 132/140/112 140/139/111 125/152/122
f 154/153/123 111/154/124 157/155/125 158/156/126
f 102/157/99 101/158/102 112/159/127 159/160/128
f 137/161/129 133/162/130 120/143/115 136/146/118
f 137/161/129 136/146/118 138/163/131 139/164/132
f 115/165/133 151/166/134 131/131/103 153/167/135
f 162/168/136 161/169/137 117/170/138 158/156/126
f 139/164/132 146/171/139 142/172/140 137/161/129
f 145/173/141 144/174/142 150/138/110 128/175/143
f 106/145/117 110/176/120 138/163/131 136/146/118
f 115/177/133 147/178/144 113/179/145 149/180/146
f 128/175/143 151/166/134 115/165/133 149/181/146
f 127/142/114 120/143/115 133/162/130 140/139/111
f 129/182/147 159/160/128 160/183/148 162/168/136
f 157/155/125 129/182/147 162/168/136 158/156/126
f 125/152/122 140/139/111 133/162/130 124/184/149
f 132/185/112 123/186/121 141/187/150 135/188/151
f 138/163/131 134/189/152 135/188/151 139/164/132
f 148/136/108 114/135/107 152/190/153 130/191/154
f 159/160/128 129/182/147 108/192/100 102/157/99
f 157/155/125 111/154/124 99/193/155 100/194/156
f 144/174/142 124/184/149 142/172/140 122/195/157
f 160/183/148 118/196/158 161/169/137 162/168/136
f 109/197/119 105/144/116 120/143/115 127/142/114
f 127/142/114 119/141/113 103/198/159 109/197/119
f 145/173/141 125/152/122 124/184/149 144/174/142
f 141/187/150 121/199/160 126/200/161 146/171/139
f 141/187/150 123/186/121 143/201/162 121/199/160
f 152/190/153 114/135/107 122/195/157 126/200/161
f 114/135/107 150/138/110 144/174/142 122/195/157
f 154/202/123 164/134/106 163/203/163 111/204/124
f 117/170/138 153/205/135 154/153/123 158/156/126
f 134/189/152 119/206/113 132/185/112 135/188/151
f 113/179/145 121/199/160 143/201/162 149/180/146
f 130/191/154 152/190/153 113/179/145 147/178/144
f 155/132/104 131/131/103 151/166/134 116/137/109
f 124/184/149 133/162/130 137/161/129 142/172/140
f 153/205/135 117/170/138 147/178/144 115/177/133
f 163/203/163 112/159/127 101/158/102 107/207/101
f 131/131/103 164/134/106 154/202/123 153/167/135
f 121/199/160 113/179/145 152/190/153 126/200/161
f 148/136/108 130/191/154 161/169/137 118/196/158
f 161/169/137 130/191/154 147/178/144 117/170/138
f 116/137/109 148/136/108 118/196/158 155/132/104
f 163/203/163 164/134/106 156/133/105 112/159/127
f 163/203/163 107/207/101 99/208/155 111/204/124
f 100/209/156 99/210/155 107/129/101 108/128/100
f 109/148/119 103/211/159 104/212/164 110/149/120
f 134/189/152 138/163/131 110/176/120 104/213/164
f 108/192/100 129/182/147 157/155/125 100/194/156
f 122/195/157 142/172/140 146/171/139 126/200/161
f 149/181/146 143/214/162 145/173/141 128/175/143
f 155/132/104 118/196/158 160/183/148 156/133/105
f 103/215/159 119/206/113 134/189/152 104/213/164
f 159/160/128 112/159/127 156/133/105 160/183/148
f 125/152/122 145/173/141 143/214/162 123/151/121
f 151/166/134 128/175/143 150/138/110 116/137/109
f 141/187/150 146/171/139 139/164/132 135/188/151
f 186/216/165 184/217/166 178/218/167 180/219/168
f 173/220/169 174/221/170 166/222/171 165/223/172
f 167/224/173 168/225/174 174/221/170 173/220/169
f 208/226/175 167/227/173 173/228/169 212/229/176
f 191/230/177 193/231/178 200/232/179 195/233/180
f 174/234/170 168/235/174 210/236/181 211/237/182
f 202/238/183 210/236/181 208/226/175 204/239/184
f 194/240/185 190/241/186 186/216/165 187/242/187
f 198/243/188 190/241/186 194/240/185 199/244/189
f 179/245/190 177/246/191 183/247/192 185/248/193
f 210/236/181 168/235/174 167/227/173 208/226/175
f 175/249/194 169/250/195 170/251/196 176/252/197
f 175/249/194 176/252/197 172/253/198 171/254/199
f 171/255/199 178/218/167 182/256/200 175/257/194
f 188/258/201 184/217/166 192/259/202 193/231/178
f 191/230/177 183/260/192 188/258/201 193/231/178
f 187/242/187 181/261/203 179/245/190 185/248/193
f 202/238/183 206/262/204 211/237/182 210/236/181
f 180/219/168 181/261/203 187/242/187 186/216/165
f 198/243/188 202/238/183 204/239/184 196/263/205
f 204/239/184 208/226/175 212/229/176 205/264/206
f 203/265/207 205/264/206 212/229/176 207/266/208
f 192/259/202 190/241/186 198/243/188 196/263/205
f 185/248/193 183/247/192 191/267/177 189/268/209
f 202/238/183 198/243/188 199/244/189 206/262/204
f 194/240/185 189/268/209 197/269/210 199/244/189
f 182/256/200 178/218/167 184/217/166 188/258/201
f 179/245/190 181/261/203 176/270/197 170/271/196
f 209/272/211 201/273/212 203/274/207 207/275/208
f 184/217/166 186/216/165 190/241/186 192/259/202
f 166/276/171 174/234/170 211/237/182 209/272/211
f 180/219/168 178/218/167 171/255/199 172/277/198
f 209/272/211 207/275/208 165/278/172 166/276/171
f 194/240/185 187/242/187 185/248/193 189/268/209
f 179/245/190 170/271/196 169/279/195 177/246/191
f 206/262/204 199/244/189 197/269/210 201/273/212
f 195/233/180 200/232/179 205/264/206 203/265/207
f 196/263/205 204/239/184 205/264/206 200/232/179
f 211/237/182 206/262/204 201/273/212 209/272/211
f 201/273/212 197/269/210 195/280/180 203/274/207
f 192/259/202 196/263/205 200/232/179 193/231/178
f 165/281/172 207/266/208 212/229/176 173/228/169
f 182/256/200 177/282/191 169/283/195 175/257/194
f 181/261/203 180/219/168 172/277/198 176/270/197
f 183/260/192 177/282/191 182/256/200 188/258/201
f 189/268/209 191/267/177 195/280/180 197/269/210
